<?xml version="1.0" encoding="utf-8"?>
<!-- Generator: Adobe Illustrator 18.0.0, SVG Export Plug-In . SVG Version: 6.00 Build 0)  -->
<!DOCTYPE svg PUBLIC "-//W3C//DTD SVG 1.1//EN" "http://www.w3.org/Graphics/SVG/1.1/DTD/svg11.dtd">
<svg version="1.1" id="Capa_1" xmlns="http://www.w3.org/2000/svg" xmlns:xlink="http://www.w3.org/1999/xlink" x="0px" y="0px"
	 viewBox="0 0 640 160" enable-background="new 0 0 640 160" xml:space="preserve">
<rect id="XMLID_2561_" fill="#5CACE9" width="640" height="160"/>
<g id="XMLID_99_">
	<polygon id="XMLID_2_" opacity="0.31" fill="#333333" enable-background="new    " points="205.6,149.5 201.9,155.8 473.9,156 
		457.8,137.6 449.5,125.6 216.9,135.6 	"/>
	<polygon id="XMLID_67_" fill="#B7B7B7" points="464,134.3 392.3,45.4 357.4,52.7 316.7,42.3 275.1,52.3 242.9,39.7 166.7,134.2 
		166,134 166,136 166.1,136 232.5,155.3 316.7,140.7 399.1,154.9 464.7,135.4 464.7,134.1 	"/>
	<g id="XMLID_4_">
		<polygon id="XMLID_64_" fill="#F4F4F4" points="398.6,153.8 464.7,134.1 392.3,44.4 357.1,51.7 		"/>
		<polygon id="XMLID_63_" fill="#E8E8E8" points="317,139.4 317,41.3 357.2,51.7 398.9,153.8 		"/>
		<polygon id="XMLID_39_" fill="#F4F4F4" points="232.4,153.8 317,139.4 317,41.3 274.9,51.3 		"/>
		<polygon id="XMLID_27_" fill="#E8E8E8" points="166.1,134 232.5,153.8 275,51.3 242.9,38.6 		"/>
		<polygon id="XMLID_26_" fill="#2CCC6F" points="443.3,128.9 430.5,110.7 385.9,122.6 394.6,143.8 		"/>
		<polygon id="XMLID_25_" fill="#2BB767" points="366.3,138.9 360.7,116.6 385.9,122.6 394.6,143.8 		"/>
		<polygon id="XMLID_24_" fill="#2BB767" points="351.1,79.2 370.1,83.8 382.2,113.5 358.2,107.5 		"/>
		<polygon id="XMLID_23_" fill="#2CCC6F" points="404.3,74 423.8,101.6 382.2,113.5 370.1,83.8 		"/>
		<polygon id="XMLID_22_" fill="#2BB767" points="366.7,75.3 358.8,56 343.9,52.4 348.8,70.9 		"/>
		<polygon id="XMLID_21_" fill="#2CCC6F" points="398.6,67.1 366.7,75.3 358.8,56 386.8,50.1 		"/>
		<polygon id="XMLID_20_" fill="#2BB767" points="352.9,136.5 317,130.2 317,60.9 340.2,67.3 		"/>
		<polygon id="XMLID_19_" fill="#2CCC6F" points="236.6,143.9 280.6,136.5 244.2,125.5 		"/>
		<polygon id="XMLID_18_" fill="#2BB767" points="187.7,128.7 211.1,96.2 244.2,125.5 236.6,143.9 		"/>
		<polygon id="XMLID_15_" fill="#2CCC6F" points="317,130.2 299.5,133 246.8,119.2 267.7,68.6 317,60.9 		"/>
		<polygon id="XMLID_14_" fill="#2BB767" points="215.7,89.8 246.9,119.2 267.8,68.6 239.6,56.2 		"/>
		<polygon id="XMLID_13_" fill="#2BB767" points="336.6,50 338.8,60.2 317,54.1 317,45.1 		"/>
		<polyline id="XMLID_12_" fill="#2CCC6F" points="317.1,54.1 290.3,58.2 291.8,50.3 317.1,45.1 		"/>
		<polygon id="XMLID_10_" fill="#2BB767" points="270.5,62 243.7,50.5 248,44.4 273.8,54.2 		"/>
		<polygon id="XMLID_16_" fill="#2CCC6F" points="270.5,62 282.9,59.6 284.8,51.8 273.8,54.2 		"/>
	</g>
</g>
<g id="Capa_3">
</g>
<g>
	<polygon opacity="0.26" fill="#2D2D2D" enable-background="new    " points="239.9,135.9 224.8,130.8 230.2,120.3 244.2,125.5 	"/>
	<g>
		<polygon opacity="0.26" fill="#2D2D2D" enable-background="new    " points="239.9,135.9 291.8,128.7 293,120 244.2,125.5 		"/>
		<g id="XMLID_1_">
			<g id="XMLID_3_">
				<g id="XMLID_5_">
					<path id="XMLID_79_" fill="#444444" d="M221.7,41h71.9v84.9l-70.2-0.1c-1,0-1.7-0.8-1.7-1.7L221.7,41L221.7,41z"/>
					<g id="XMLID_75_">
						<path id="XMLID_78_" fill="#444444" d="M293.6,41l5.6,3.8c0.4,0.3,0.7,1,0.7,1.7v77.3c0,1.1-0.7,2.1-1.5,2.1h-4.8L293.6,41
							L293.6,41z"/>
						<polygon id="XMLID_77_" fill="#707070" points="293.6,41 296.6,43 296.6,125.8 293.6,125.8 						"/>
						<polygon id="XMLID_76_" fill="#282828" points="293.6,41 296.2,42.7 296.2,125.8 293.6,125.8 						"/>
					</g>
					<g id="XMLID_41_">
						<g id="XMLID_62_">
							<path id="XMLID_74_" fill="#A3A3A3" d="M243.2,82.1h-16.7c-0.3,0-0.7,0.3-0.7,0.7v7.4c0,0.3,0.3,0.7,0.7,0.7h16.7
								c0.3,0,0.7-0.3,0.7-0.7v-7.4C243.9,82.5,243.5,82.1,243.2,82.1z"/>
							<path id="XMLID_73_" fill="#A3A3A3" d="M266,82.1h-16.7c-0.3,0-0.7,0.3-0.7,0.7v7.4c0,0.3,0.3,0.7,0.7,0.7H266
								c0.3,0,0.7-0.3,0.7-0.7v-7.4C266.7,82.5,266.3,82.1,266,82.1z"/>
							<path id="XMLID_72_" fill="#A3A3A3" d="M288.8,82.1h-16.7c-0.3,0-0.7,0.3-0.7,0.7v7.4c0,0.3,0.3,0.7,0.7,0.7h16.7
								c0.3,0,0.7-0.3,0.7-0.7v-7.4C289.5,82.5,289.1,82.1,288.8,82.1z"/>
							<path id="XMLID_71_" fill="#FFFFFF" d="M243.2,82.1h-16.7c-0.3,0-0.7,0.3-0.7,0.7v6.9c0,0.3,0.3,0.7,0.7,0.7h16.7
								c0.3,0,0.7-0.3,0.7-0.7v-6.9C243.9,82.5,243.5,82.1,243.2,82.1z"/>
							<path id="XMLID_70_" fill="#FFFFFF" d="M266,82.1h-16.7c-0.3,0-0.7,0.3-0.7,0.7v6.9c0,0.3,0.3,0.7,0.7,0.7H266
								c0.3,0,0.7-0.3,0.7-0.7v-6.9C266.7,82.5,266.3,82.1,266,82.1z"/>
							<path id="XMLID_69_" fill="#FFFFFF" d="M288.8,82.1h-16.7c-0.3,0-0.7,0.3-0.7,0.7v6.9c0,0.3,0.3,0.7,0.7,0.7h16.7
								c0.3,0,0.7-0.3,0.7-0.7v-6.9C289.5,82.5,289.1,82.1,288.8,82.1z"/>
							<path id="XMLID_68_" fill="#E4E4E4" d="M243.2,82.6h-16.7c-0.3,0-0.7,0.3-0.7,0.7v6.4c0,0.3,0.3,0.7,0.7,0.7h16.7
								c0.3,0,0.7-0.3,0.7-0.7v-6.4C243.9,83,243.5,82.6,243.2,82.6z"/>
							<path id="XMLID_66_" fill="#E4E4E4" d="M266,82.6h-16.7c-0.3,0-0.7,0.3-0.7,0.7v6.4c0,0.3,0.3,0.7,0.7,0.7H266
								c0.3,0,0.7-0.3,0.7-0.7v-6.4C266.7,83,266.3,82.6,266,82.6z"/>
							<path id="XMLID_65_" fill="#E4E4E4" d="M288.8,82.6h-16.7c-0.3,0-0.7,0.3-0.7,0.7v6.4c0,0.3,0.3,0.7,0.7,0.7h16.7
								c0.3,0,0.7-0.3,0.7-0.7v-6.4C289.5,83,289.1,82.6,288.8,82.6z"/>
						</g>
						<g id="XMLID_52_">
							<path id="XMLID_61_" fill="#A3A3A3" d="M243.2,95.9h-16.7c-0.3,0-0.7,0.3-0.7,0.7v7.4c0,0.3,0.3,0.7,0.7,0.7h16.7
								c0.3,0,0.7-0.3,0.7-0.7v-7.4C243.9,96.3,243.5,95.9,243.2,95.9z"/>
							<path id="XMLID_60_" fill="#A3A3A3" d="M266,95.9h-16.7c-0.3,0-0.7,0.3-0.7,0.7v7.4c0,0.3,0.3,0.7,0.7,0.7H266
								c0.3,0,0.7-0.3,0.7-0.7v-7.4C266.7,96.3,266.3,95.9,266,95.9z"/>
							<path id="XMLID_59_" fill="#A3A3A3" d="M288.8,95.9h-16.7c-0.3,0-0.7,0.3-0.7,0.7v7.4c0,0.3,0.3,0.7,0.7,0.7h16.7
								c0.3,0,0.7-0.3,0.7-0.7v-7.4C289.5,96.3,289.1,95.9,288.8,95.9z"/>
							<path id="XMLID_58_" fill="#FFFFFF" d="M243.2,95.9h-16.7c-0.3,0-0.7,0.3-0.7,0.7v6.9c0,0.3,0.3,0.7,0.7,0.7h16.7
								c0.3,0,0.7-0.3,0.7-0.7v-6.9C243.9,96.3,243.5,95.9,243.2,95.9z"/>
							<path id="XMLID_57_" fill="#FFFFFF" d="M266,95.9h-16.7c-0.3,0-0.7,0.3-0.7,0.7v6.9c0,0.3,0.3,0.7,0.7,0.7H266
								c0.3,0,0.7-0.3,0.7-0.7v-6.9C266.7,96.3,266.3,95.9,266,95.9z"/>
							<path id="XMLID_56_" fill="#FFFFFF" d="M288.8,95.9h-16.7c-0.3,0-0.7,0.3-0.7,0.7v6.9c0,0.3,0.3,0.7,0.7,0.7h16.7
								c0.3,0,0.7-0.3,0.7-0.7v-6.9C289.5,96.3,289.1,95.9,288.8,95.9z"/>
							<path id="XMLID_55_" fill="#E4E4E4" d="M243.2,96.4h-16.7c-0.3,0-0.7,0.3-0.7,0.7v6.4c0,0.3,0.3,0.7,0.7,0.7h16.7
								c0.3,0,0.7-0.3,0.7-0.7v-6.4C243.9,96.8,243.5,96.4,243.2,96.4z"/>
							<path id="XMLID_54_" fill="#E4E4E4" d="M266,96.4h-16.7c-0.3,0-0.7,0.3-0.7,0.7v6.4c0,0.3,0.3,0.7,0.7,0.7H266
								c0.3,0,0.7-0.3,0.7-0.7v-6.4C266.7,96.8,266.3,96.4,266,96.4z"/>
							<path id="XMLID_53_" fill="#E4E4E4" d="M288.8,96.4h-16.7c-0.3,0-0.7,0.3-0.7,0.7v6.4c0,0.3,0.3,0.7,0.7,0.7h16.7
								c0.3,0,0.7-0.3,0.7-0.7v-6.4C289.5,96.8,289.1,96.4,288.8,96.4z"/>
						</g>
						<g id="XMLID_42_">
							<path id="XMLID_51_" fill="#417C25" d="M243.2,109.7h-16.7c-0.3,0-0.7,0.3-0.7,0.7v7.4c0,0.3,0.3,0.7,0.7,0.7h16.7
								c0.3,0,0.7-0.3,0.7-0.7v-7.4C243.9,110,243.5,109.7,243.2,109.7z"/>
							<path id="XMLID_50_" fill="#A6EF84" d="M243.2,109.7h-16.7c-0.3,0-0.7,0.3-0.7,0.7v6.9c0,0.3,0.3,0.7,0.7,0.7h16.7
								c0.3,0,0.7-0.3,0.7-0.7v-6.9C243.9,110,243.5,109.7,243.2,109.7z"/>
							<path id="XMLID_49_" fill="#5AB439" d="M243.2,110.4h-16.7c-0.3,0-0.7,0.3-0.7,0.7v6.2c0,0.3,0.3,0.7,0.7,0.7h16.7
								c0.3,0,0.7-0.3,0.7-0.7v-6.2C243.9,110.7,243.5,110.4,243.2,110.4z"/>
							<path id="XMLID_48_" fill="#A57F20" d="M266,109.7h-16.7c-0.3,0-0.7,0.3-0.7,0.7v7.4c0,0.3,0.3,0.7,0.7,0.7H266
								c0.3,0,0.7-0.3,0.7-0.7v-7.4C266.7,110,266.3,109.7,266,109.7z"/>
							<path id="XMLID_47_" fill="#FFE8B6" d="M266,109.7h-16.7c-0.3,0-0.7,0.3-0.7,0.7v6.9c0,0.3,0.3,0.7,0.7,0.7H266
								c0.3,0,0.7-0.3,0.7-0.7v-6.9C266.7,110,266.3,109.7,266,109.7z"/>
							<path id="XMLID_46_" fill="#EFC85B" d="M266,110.4h-16.7c-0.3,0-0.7,0.3-0.7,0.7v6.2c0,0.3,0.3,0.7,0.7,0.7H266
								c0.3,0,0.7-0.3,0.7-0.7v-6.2C266.7,110.7,266.3,110.4,266,110.4z"/>
							<path id="XMLID_45_" fill="#A53737" d="M288.8,109.7h-16.7c-0.3,0-0.7,0.3-0.7,0.7v7.4c0,0.3,0.3,0.7,0.7,0.7h16.7
								c0.3,0,0.7-0.3,0.7-0.7v-7.4C289.5,110,289.1,109.7,288.8,109.7z"/>
							<path id="XMLID_44_" fill="#FFAEAE" d="M288.8,109.7h-16.7c-0.3,0-0.7,0.3-0.7,0.7v6.9c0,0.3,0.3,0.7,0.7,0.7h16.7
								c0.3,0,0.7-0.3,0.7-0.7v-6.9C289.5,110,289.1,109.7,288.8,109.7z"/>
							<path id="XMLID_43_" fill="#FF605C" d="M288.8,110.4h-16.7c-0.3,0-0.7,0.3-0.7,0.7v6.2c0,0.3,0.3,0.7,0.7,0.7h16.7
								c0.3,0,0.7-0.3,0.7-0.7v-6.2C289.5,110.7,289.1,110.4,288.8,110.4z"/>
						</g>
					</g>
					<g id="XMLID_33_">
						<g id="XMLID_36_">
							<path id="XMLID_40_" fill="#83C8EA" d="M226.4,44.7h62.4c0.3,0,0.5,0.3,0.5,0.5v29.5c0,0.3-0.3,0.5-0.5,0.5h-62.4
								c-0.3,0-0.5-0.3-0.5-0.5V45.3C225.9,45,226.2,44.7,226.4,44.7z"/>
							<path id="XMLID_38_" fill="#3577A0" d="M226.4,44.7h62.4c0.3,0,0.5,0.3,0.5,0.5v28.6c0,0.3-0.3,0.5-0.5,0.5h-62.4
								c-0.3,0-0.5-0.3-0.5-0.5V45.3C225.9,45,226.2,44.7,226.4,44.7z"/>
							<path id="XMLID_37_" fill="#5CACE9" d="M226.4,46.1h62.4c0.3,0,0.5,0.3,0.5,0.5v27.2c0,0.3-0.3,0.5-0.5,0.5h-62.4
								c-0.3,0-0.5-0.3-0.5-0.5V46.7C225.9,46.4,226.2,46.1,226.4,46.1z"/>
						</g>
						<g id="XMLID_34_">
							<circle id="XMLID_35_" fill="#E4E4E4" cx="257.7" cy="60" r="10"/>
							<g>
								<rect x="256.8" y="54.9" fill="#5AB439" width="1.8" height="10.8"/>
								<rect x="252.2" y="59.4" fill="#5AB439" width="10.8" height="1.8"/>
							</g>
						</g>
					</g>
					<g id="XMLID_6_">
						<path id="XMLID_32_" fill="#444444" d="M228.4,3.4h58.4c1,0,1.9,0.8,2,1.8l4.8,35.8h-71.9l4.7-35.8
							C226.5,4.2,227.4,3.4,228.4,3.4z"/>
						<path id="XMLID_31_" fill="#282828" d="M284.7,35.6h-54.1c-0.2,0-0.3-0.1-0.3-0.3v-2.6c0-0.2,0.1-0.3,0.3-0.3h54.1
							c0.2,0,0.3,0.1,0.3,0.3v2.6C284.9,35.4,284.8,35.6,284.7,35.6z"/>
						<rect id="XMLID_30_" x="234.8" y="8.2" fill="#878787" width="45.6" height="27.3"/>
						<rect id="XMLID_29_" x="234.8" y="8.2" fill="#E4E4E4" width="45.6" height="25.4"/>
						<g id="XMLID_7_">
							<polygon id="XMLID_28_" fill="#E4E4E4" points="271,8.6 275.7,3.8 280.4,8.6 							"/>
							<polygon id="XMLID_17_" fill="#E4E4E4" points="262.1,8.6 266.9,3.7 271,8.6 							"/>
							<polygon id="XMLID_11_" fill="#E4E4E4" points="253.3,8.6 257.7,3.5 262.1,8.6 							"/>
							<polygon id="XMLID_9_" fill="#E4E4E4" points="244.2,8.6 248.7,3.5 253.3,8.6 							"/>
							<polygon id="XMLID_8_" fill="#E4E4E4" points="234.8,8.6 239.4,3.5 244.2,8.6 							"/>
						</g>
					</g>
				</g>
			</g>
		</g>
	</g>
</g>
<g id="XMLID_100_">
	<g id="XMLID_137_">
		<path id="XMLID_139_" fill="#E94C3C" d="M363.4,73.1c0-5.9,4.8-10.7,10.7-10.7s10.7,4.8,10.7,10.7c0,9.2-10.7,21.2-10.7,21.2
			S363.4,82.2,363.4,73.1z"/>
		<circle id="XMLID_138_" fill="#AD322B" cx="374.1" cy="73.1" r="8.2"/>
	</g>
</g>
<path opacity="0.2" fill="#2D2D2D" enable-background="new    " d="M383.5,93c0-0.5-9.2,1.6-9.2,1.6s-8.8-0.7-8.8-0.2
	s9.8,2.3,9.8,2.3S383.5,93.5,383.5,93z"/>
</svg>
