<?xml version="1.0" encoding="utf-8"?>
<!-- Generator: Adobe Illustrator 18.0.0, SVG Export Plug-In . SVG Version: 6.00 Build 0)  -->
<!DOCTYPE svg PUBLIC "-//W3C//DTD SVG 1.1//EN" "http://www.w3.org/Graphics/SVG/1.1/DTD/svg11.dtd">
<svg version="1.1" id="Capa_1" xmlns="http://www.w3.org/2000/svg" xmlns:xlink="http://www.w3.org/1999/xlink" x="0px" y="0px"
	 viewBox="0 0 640 160" enable-background="new 0 0 640 160" xml:space="preserve">
<g id="XMLID_1_">
	<rect id="XMLID_41_" fill="#2CCC6F" width="640" height="160"/>
	<g id="XMLID_2_">
		<g id="XMLID_122_">
			<polygon id="XMLID_124_" fill="#E7BA80" points="519,154 121,154 129.6,126.6 510.4,126.6 			"/>
			<rect id="XMLID_123_" x="121" y="154" fill="#A97949" width="398" height="6"/>
		</g>
		<g id="XMLID_104_">
			<polygon id="XMLID_121_" fill="#FFFFFF" points="492.7,150.4 430,150.4 436.1,130.9 486.7,130.9 			"/>
			<polygon id="XMLID_120_" fill="#B1B1B1" points="464.4,133.4 441.2,133.4 441.4,132.6 464.3,132.6 			"/>
			<polygon id="XMLID_119_" fill="#B1B1B1" points="450.5,137.7 440.2,137.7 440.4,136.7 450.6,136.7 			"/>
			<polygon id="XMLID_118_" fill="#B1B1B1" points="467.1,137.7 456.8,137.7 456.8,136.7 467,136.7 			"/>
			<polygon id="XMLID_117_" fill="#B1B1B1" points="482.8,137.7 472.5,137.7 472.4,136.7 482.6,136.7 			"/>
			<polygon id="XMLID_116_" fill="#B1B1B1" points="450.3,139.2 439.8,139.2 440.1,138.3 450.4,138.3 			"/>
			<polygon id="XMLID_115_" fill="#B1B1B1" points="467.2,139.2 456.7,139.2 456.8,138.3 467.1,138.3 			"/>
			<polygon id="XMLID_114_" fill="#FF5252" points="483.2,139.2 472.7,139.2 472.6,138.3 483,138.3 			"/>
			<polygon id="XMLID_113_" fill="#B1B1B1" points="450.1,140.8 439.5,140.8 439.7,139.9 450.2,139.9 			"/>
			<polygon id="XMLID_112_" fill="#B1B1B1" points="467.3,140.8 456.6,140.8 456.7,139.9 467.2,139.9 			"/>
			<polygon id="XMLID_111_" fill="#FF5252" points="483.6,140.8 473,140.8 472.8,139.9 483.4,139.9 			"/>
			<polygon id="XMLID_110_" fill="#B1B1B1" points="467.8,148.2 437.7,148.2 438.4,145 467.6,145 			"/>
			<polygon id="XMLID_109_" fill="#FF5252" points="485.4,148.2 473.9,148.2 473.5,145 484.7,145 			"/>
			<polygon id="XMLID_108_" fill="#B1B1B1" points="481.8,133.4 469.5,133.4 469.4,132.6 481.6,132.6 			"/>
			<polygon id="XMLID_107_" fill="#B1B1B1" points="482.1,134.7 469.6,134.7 469.5,133.9 481.9,133.9 			"/>
			<polygon id="XMLID_106_" fill="#B1B1B1" points="451.5,134.7 440.9,134.7 441.1,133.9 451.6,133.9 			"/>
			<polygon id="XMLID_105_" fill="#B1B1B1" points="464.4,134.7 452.7,134.7 452.8,133.9 464.4,133.9 			"/>
		</g>
		<ellipse id="XMLID_840_" opacity="0.15" fill="#282828" enable-background="new    " cx="321" cy="133" rx="82" ry="4.4"/>
		<g id="XMLID_93_">
			<ellipse id="XMLID_103_" opacity="0.15" fill="#282828" enable-background="new    " cx="215" cy="142" rx="13" ry="2.3"/>
			<g id="XMLID_94_">
				<g id="XMLID_97_">
					<rect id="XMLID_102_" x="207.9" y="141.3" fill="#38508D" width="13.6" height="1.3"/>
					<polygon id="XMLID_101_" fill="#FFFFFF" points="225.5,107.4 203.8,107.4 206.5,141.3 222.9,141.3 					"/>
					<polygon id="XMLID_100_" fill="#4B69C5" points="224.9,115.6 204.5,115.6 205.8,133 223.5,133 					"/>
					<polyline id="XMLID_99_" fill="#6D8EE1" points="218.2,107.4 226.8,107.4 226.8,105.6 202.6,105.6 202.6,107.4 218.2,107.4 
											"/>
					<rect id="XMLID_98_" x="203.8" y="103.9" fill="#4B69C5" width="21.7" height="1.7"/>
				</g>
				<circle id="XMLID_96_" fill="#FFFFFF" cx="214.7" cy="124" r="5.1"/>
				<polygon id="XMLID_95_" opacity="8.000000e-002" fill="#303030" enable-background="new    " points="226,105 226,103.6 
					219,103.6 219,142 221,142 221,141 222.8,141 225.3,107 227,107 227,105 				"/>
			</g>
		</g>
		<g id="XMLID_92_">
			<g id="XMLID_139_">
				<path id="XMLID_146_" fill="#494748" d="M405.7,17.7c0-5.1-2.2-6.7-6.8-6.7H241.1c-4.6,0-6.8,1.9-6.8,7.1V109h171.4V17.7z"/>
				<path id="XMLID_143_" fill="#FFFFFF" d="M234.3,108.9v2.5c0,5.1,2.2,7.1,6.8,7.1h157.8c4.6,0,6.8-2.3,6.8-7.4V109L234.3,108.9
					L234.3,108.9z"/>
				<path id="XMLID_3_" fill="#E8EAE9" d="M234.3,109.5v2.3c0,4.8,2.2,6.6,6.8,6.6h157.8c4.6,0,6.8-2.2,6.8-7v-2L234.3,109.5
					L234.3,109.5z"/>
			</g>
			<rect id="XMLID_136_" x="239.9" y="15.9" fill="#FF6F67" width="160.3" height="87.1"/>
			<polygon id="XMLID_133_" fill="#ECECED" points="335.9,129.5 304.1,129.5 305,118.5 334.7,118.5 			"/>
			<polygon id="XMLID_130_" fill="#989A9D" points="335.2,122.5 334.7,118.5 305,118.5 304.6,122.5 			"/>
			<path id="XMLID_129_" fill="#D2D2D2" d="M341.5,134.3c0.9,1.3,0.2,2.3-1.5,2.3h-40c-1.8,0-2.4-1-1.5-2.3l5.6-4.8H336L341.5,134.3
				z"/>
		</g>
		<g id="XMLID_331_">
			<g id="XMLID_396_">
				<g id="XMLID_397_" opacity="0.2">
					<g id="XMLID_771_">
						<g id="XMLID_779_">
							<g id="XMLID_780_">
								<rect id="XMLID_781_" x="318.2" y="24.7" fill="#FFFFFF" width="0.4" height="14.4"/>
							</g>
						</g>
						<g id="XMLID_776_">
							<g id="XMLID_777_">
								<circle id="XMLID_778_" fill="#FFFFFF" cx="318.4" cy="38.5" r="0.9"/>
							</g>
						</g>
						<g id="XMLID_774_">
							<path id="XMLID_775_" fill="#FFFFFF" d="M319.2,40.6h-1.4c-0.3,0-0.5-0.2-0.5-0.5v-1.4c0-0.3,0.2-0.5,0.5-0.5h1.4
								c0.3,0,0.5,0.2,0.5,0.5v1.4C319.7,40.4,319.4,40.6,319.2,40.6z"/>
						</g>
						<g id="XMLID_772_">
							<path id="XMLID_773_" fill="#FFFFFF" d="M316.4,45.8c-0.9,0-1.5-0.4-1.8-0.7c-0.7-0.8-0.6-2-0.6-2.1c0-0.4,0.4-0.7,0.8-0.6
								c0.4,0,0.7,0.4,0.6,0.8c0,0.2,0,0.7,0.3,1c0.2,0.2,0.4,0.3,0.8,0.3c1,0,1.4-0.4,1.4-1.4v-2.7c0-0.4,0.3-0.7,0.7-0.7
								c0.4,0,0.7,0.3,0.7,0.7v2.7C319.1,44.8,318.1,45.8,316.4,45.8z"/>
						</g>
					</g>
					<g id="XMLID_398_">
						<g id="XMLID_768_">
							<g id="XMLID_769_">
								<rect id="XMLID_770_" x="244.5" y="19.7" fill="#C1C1C1" width="10.6" height="6"/>
							</g>
						</g>
						<g id="XMLID_765_">
							<g id="XMLID_766_">
								<rect id="XMLID_767_" x="242.5" y="19.7" fill="#C1C1C1" width="9.3" height="6"/>
							</g>
						</g>
						<g id="XMLID_759_">
							<g id="XMLID_760_">
								<path id="XMLID_761_" fill="#C1C1C1" d="M274.9,28.1v-1.9h-6.8v10.2h4.8c1.1,0,2-1.1,2-2.4v-2.7h-1V28h1V28.1z M273,28.1
									v3.3h-3.4v-3.3H273z"/>
							</g>
						</g>
						<g id="XMLID_756_">
							<g id="XMLID_757_">
								<rect id="XMLID_758_" x="267.9" y="99.3" fill="#FFFFFF" width="5.5" height="0.6"/>
							</g>
						</g>
						<g id="XMLID_746_">
							<g id="XMLID_747_">
								<path id="XMLID_752_" fill="#C1C1C1" d="M256.9,25.5v76.6h11.4V25.5H256.9z M258.2,100.8v-74h8.8v74H258.2z"/>
							</g>
						</g>
						<g id="XMLID_743_">
							<g id="XMLID_744_">
								
									<rect id="XMLID_745_" x="262.3" y="87.9" transform="matrix(0.7071 -0.7071 0.7071 0.7071 9.8819 213.5601)" fill="#C1C1C1" width="0.9" height="13.9"/>
							</g>
						</g>
						<g id="XMLID_740_">
							<g id="XMLID_741_">
								
									<rect id="XMLID_742_" x="262.2" y="78.6" transform="matrix(0.7071 -0.7071 0.7071 0.7071 16.4439 210.8091)" fill="#C1C1C1" width="0.9" height="13.9"/>
							</g>
						</g>
						<g id="XMLID_737_">
							<g id="XMLID_738_">
								
									<rect id="XMLID_739_" x="262.3" y="69.4" transform="matrix(0.7071 -0.7071 0.7071 0.7071 22.9766 208.1287)" fill="#C1C1C1" width="0.9" height="13.9"/>
							</g>
						</g>
						<g id="XMLID_734_">
							<g id="XMLID_735_">
								
									<rect id="XMLID_736_" x="262.2" y="60.1" transform="matrix(0.7071 -0.7071 0.7071 0.7071 29.5387 205.3775)" fill="#C1C1C1" width="0.9" height="13.9"/>
							</g>
						</g>
						<g id="XMLID_731_">
							<g id="XMLID_732_">
								
									<rect id="XMLID_733_" x="255.8" y="94.3" transform="matrix(0.7071 -0.7071 0.7071 0.7071 9.9851 213.5152)" fill="#C1C1C1" width="13.9" height="0.9"/>
							</g>
						</g>
						<g id="XMLID_728_">
							<g id="XMLID_729_">
								
									<rect id="XMLID_730_" x="255.8" y="85" transform="matrix(0.7071 -0.7071 0.7071 0.7071 16.5172 210.8354)" fill="#C1C1C1" width="13.9" height="0.9"/>
							</g>
						</g>
						<g id="XMLID_725_">
							<g id="XMLID_726_">
								
									<rect id="XMLID_727_" x="255.8" y="75.8" transform="matrix(0.7071 -0.7071 0.7071 0.7071 23.0517 208.1525)" fill="#C1C1C1" width="13.9" height="0.9"/>
							</g>
						</g>
						<g id="XMLID_722_">
							<g id="XMLID_723_">
								
									<rect id="XMLID_724_" x="255.8" y="66.5" transform="matrix(0.7071 -0.7071 0.7071 0.7071 29.612 205.4034)" fill="#C1C1C1" width="13.9" height="0.9"/>
							</g>
						</g>
						<g id="XMLID_719_">
							<g id="XMLID_720_">
								
									<rect id="XMLID_721_" x="262.3" y="50.9" transform="matrix(0.7071 -0.7071 0.7071 0.7071 36.0741 202.6934)" fill="#C1C1C1" width="0.9" height="13.9"/>
							</g>
						</g>
						<g id="XMLID_716_">
							<g id="XMLID_717_">
								
									<rect id="XMLID_718_" x="255.8" y="57.3" transform="matrix(0.7071 -0.7071 0.7071 0.7071 36.1454 202.7217)" fill="#C1C1C1" width="13.9" height="0.9"/>
							</g>
						</g>
						<g id="XMLID_713_">
							<g id="XMLID_714_">
								<rect id="XMLID_715_" x="258.1" y="52.4" fill="#C1C1C1" width="9.6" height="1.3"/>
							</g>
						</g>
						<g id="XMLID_710_">
							<g id="XMLID_711_">
								<rect id="XMLID_712_" x="258.1" y="61.7" fill="#C1C1C1" width="9.6" height="1.3"/>
							</g>
						</g>
						<g id="XMLID_707_">
							<g id="XMLID_708_">
								
									<rect id="XMLID_709_" x="262.2" y="41.5" transform="matrix(0.7071 -0.7071 0.7071 0.7071 42.6777 199.9433)" fill="#C1C1C1" width="0.9" height="13.9"/>
							</g>
						</g>
						<g id="XMLID_704_">
							<g id="XMLID_705_">
								
									<rect id="XMLID_706_" x="255.8" y="47.9" transform="matrix(0.7071 -0.7071 0.7071 0.7071 42.751 199.9684)" fill="#C1C1C1" width="13.9" height="0.9"/>
							</g>
						</g>
						<g id="XMLID_701_">
							<g id="XMLID_702_">
								<rect id="XMLID_703_" x="258.1" y="43" fill="#C1C1C1" width="9.6" height="1.3"/>
							</g>
						</g>
						<g id="XMLID_698_">
							<g id="XMLID_699_">
								<rect id="XMLID_700_" x="258.1" y="52.4" fill="#C1C1C1" width="9.6" height="1.3"/>
							</g>
						</g>
						<g id="XMLID_695_">
							<g id="XMLID_696_">
								
									<rect id="XMLID_697_" x="262.2" y="33.2" transform="matrix(0.6993 -0.7149 0.7149 0.6993 50.3257 199.8367)" fill="#C1C1C1" width="0.9" height="13.8"/>
							</g>
						</g>
						<g id="XMLID_692_">
							<g id="XMLID_693_">
								
									<rect id="XMLID_694_" x="255.8" y="39.6" transform="matrix(0.7149 -0.6992 0.6992 0.7149 46.9036 195.0874)" fill="#C1C1C1" width="13.8" height="0.9"/>
							</g>
						</g>
						<g id="XMLID_689_">
							<g id="XMLID_690_">
								<rect id="XMLID_691_" x="258.1" y="34.8" fill="#C1C1C1" width="9.6" height="1.3"/>
							</g>
						</g>
						<g id="XMLID_686_">
							<g id="XMLID_687_">
								<rect id="XMLID_688_" x="258.1" y="43" fill="#C1C1C1" width="9.6" height="1.3"/>
							</g>
						</g>
						<g id="XMLID_683_">
							<g id="XMLID_684_">
								
									<rect id="XMLID_685_" x="262.3" y="23.9" transform="matrix(0.7071 -0.7071 0.7071 0.7071 55.1014 194.8074)" fill="#C1C1C1" width="0.9" height="13.9"/>
							</g>
						</g>
						<g id="XMLID_680_">
							<g id="XMLID_681_">
								
									<rect id="XMLID_682_" x="255.8" y="30.4" transform="matrix(0.7071 -0.7071 0.7071 0.7071 55.1715 194.8377)" fill="#C1C1C1" width="13.9" height="0.9"/>
							</g>
						</g>
						<g id="XMLID_677_">
							<g id="XMLID_678_">
								<rect id="XMLID_679_" x="261.8" y="25.5" fill="#C1C1C1" width="9.6" height="1.3"/>
							</g>
						</g>
						<g id="XMLID_674_">
							<g id="XMLID_675_">
								<rect id="XMLID_676_" x="258.1" y="34.8" fill="#C1C1C1" width="9.6" height="1.3"/>
							</g>
						</g>
						<g id="XMLID_671_">
							<g id="XMLID_672_">
								<rect id="XMLID_673_" x="258.1" y="70.9" fill="#C1C1C1" width="9.6" height="1.3"/>
							</g>
						</g>
						<g id="XMLID_668_">
							<g id="XMLID_669_">
								<rect id="XMLID_670_" x="258.1" y="80.1" fill="#C1C1C1" width="9.6" height="1.3"/>
							</g>
						</g>
						<g id="XMLID_665_">
							<g id="XMLID_666_">
								<rect id="XMLID_667_" x="258.1" y="89.3" fill="#C1C1C1" width="9.6" height="1.3"/>
							</g>
						</g>
						<g id="XMLID_655_">
							<g id="XMLID_656_">
								<path id="XMLID_657_" fill="#C1C1C1" d="M266.5,25.4L266.5,25.4l1,0.1v-0.1H266.5z M261.9,25.5h0.2v-0.1L261.9,25.5
									L261.9,25.5z M317.7,23.6l-4.6-4l-0.2-0.2l-0.5-0.4h-58.2v7.3H318v-2.4L317.7,23.6z M255.1,25.4v-5.5h57l0.2,0.1l0.4,0.4
									l0.4,0.4l3.9,3.4l0.1,0.1v1.1H255.1z M261.8,25.4L261.8,25.4l0.3,0.1v-0.1H261.8z M266.5,25.4L266.5,25.4l1,0.1v-0.1H266.5z
									"/>
							</g>
						</g>
						<g id="XMLID_652_">
							<g id="XMLID_653_">
								
									<rect id="XMLID_654_" x="257.6" y="18.1" transform="matrix(0.7071 -0.7071 0.7071 0.7071 59.5595 189.0717)" fill="#C1C1C1" width="0.9" height="9"/>
							</g>
						</g>
						<g id="XMLID_649_">
							<g id="XMLID_650_">
								<rect id="XMLID_651_" x="254.2" y="19.2" fill="#C1C1C1" width="0.9" height="6.6"/>
							</g>
						</g>
						<g id="XMLID_646_">
							<g id="XMLID_647_">
								<rect id="XMLID_648_" x="260.8" y="19.4" fill="#C1C1C1" width="0.9" height="6.4"/>
							</g>
						</g>
						<g id="XMLID_643_">
							<g id="XMLID_644_">
								
									<rect id="XMLID_645_" x="263.9" y="18.2" transform="matrix(0.7071 -0.7071 0.7071 0.7071 61.4177 193.5779)" fill="#C1C1C1" width="0.9" height="9"/>
							</g>
						</g>
						<g id="XMLID_640_">
							<g id="XMLID_641_">
								<rect id="XMLID_642_" x="267.2" y="19.4" fill="#C1C1C1" width="0.9" height="6.4"/>
							</g>
						</g>
						<g id="XMLID_637_">
							<g id="XMLID_638_">
								
									<rect id="XMLID_639_" x="270.3" y="18.2" transform="matrix(0.7071 -0.7071 0.7071 0.7071 63.2749 198.0859)" fill="#C1C1C1" width="0.9" height="9"/>
							</g>
						</g>
						<g id="XMLID_634_">
							<g id="XMLID_635_">
								<rect id="XMLID_636_" x="273.5" y="19.4" fill="#C1C1C1" width="0.9" height="6.4"/>
							</g>
						</g>
						<g id="XMLID_631_">
							<g id="XMLID_632_">
								
									<rect id="XMLID_633_" x="276.7" y="18.1" transform="matrix(0.7071 -0.7071 0.7071 0.7071 65.205 202.6194)" fill="#C1C1C1" width="0.9" height="9"/>
							</g>
						</g>
						<g id="XMLID_628_">
							<g id="XMLID_629_">
								<rect id="XMLID_630_" x="279.9" y="19.4" fill="#C1C1C1" width="0.9" height="6.4"/>
							</g>
						</g>
						<g id="XMLID_625_">
							<g id="XMLID_626_">
								
									<rect id="XMLID_627_" x="283.1" y="18.1" transform="matrix(0.7071 -0.7071 0.7071 0.7071 67.0624 207.1272)" fill="#C1C1C1" width="0.9" height="9"/>
							</g>
						</g>
						<g id="XMLID_622_">
							<g id="XMLID_623_">
								<rect id="XMLID_624_" x="286.3" y="19.4" fill="#C1C1C1" width="0.9" height="6.4"/>
							</g>
						</g>
						<g id="XMLID_619_">
							<g id="XMLID_620_">
								
									<rect id="XMLID_621_" x="289.5" y="18.1" transform="matrix(0.7071 -0.7071 0.7071 0.7071 68.9197 211.6352)" fill="#C1C1C1" width="0.9" height="9"/>
							</g>
						</g>
						<g id="XMLID_616_">
							<g id="XMLID_617_">
								<rect id="XMLID_618_" x="292.7" y="19.4" fill="#C1C1C1" width="0.9" height="6.4"/>
							</g>
						</g>
						<g id="XMLID_613_">
							<g id="XMLID_614_">
								
									<rect id="XMLID_615_" x="295.8" y="18.1" transform="matrix(0.7071 -0.7071 0.7071 0.7071 70.7759 216.1455)" fill="#C1C1C1" width="0.9" height="9"/>
							</g>
						</g>
						<g id="XMLID_610_">
							<g id="XMLID_611_">
								<rect id="XMLID_612_" x="299.1" y="19.4" fill="#C1C1C1" width="0.9" height="6.4"/>
							</g>
						</g>
						<g id="XMLID_607_">
							<g id="XMLID_608_">
								
									<rect id="XMLID_609_" x="302.2" y="18.1" transform="matrix(0.7071 -0.7071 0.7071 0.7071 72.6344 220.6514)" fill="#C1C1C1" width="0.9" height="9"/>
							</g>
						</g>
						<g id="XMLID_604_">
							<g id="XMLID_605_">
								<rect id="XMLID_606_" x="305.5" y="19.4" fill="#C1C1C1" width="0.9" height="6.4"/>
							</g>
						</g>
						<g id="XMLID_601_">
							<g id="XMLID_602_">
								
									<rect id="XMLID_603_" x="308.7" y="18.1" transform="matrix(0.7071 -0.7071 0.7071 0.7071 74.5624 225.1887)" fill="#C1C1C1" width="0.9" height="9"/>
							</g>
						</g>
						<g id="XMLID_598_">
							<g id="XMLID_599_">
								<rect id="XMLID_600_" x="311.8" y="19.4" fill="#C1C1C1" width="0.9" height="6.4"/>
							</g>
						</g>
						<g id="XMLID_592_">
							<g id="XMLID_593_">
								<path id="XMLID_594_" fill="#FFFFFF" d="M257.3,25.5v76.6h11.4V25.5H257.3z M267.4,100.8h-8.8v-74h8.8V100.8z"/>
							</g>
						</g>
						<g id="XMLID_589_">
							<g id="XMLID_590_">
								
									<rect id="XMLID_591_" x="262.7" y="87.9" transform="matrix(0.7071 -0.7071 0.7071 0.7071 10.0362 213.8735)" fill="#FFFFFF" width="0.9" height="13.9"/>
							</g>
						</g>
						<g id="XMLID_586_">
							<g id="XMLID_587_">
								
									<rect id="XMLID_588_" x="262.7" y="78.6" transform="matrix(0.7071 -0.7071 0.7071 0.7071 16.598 211.1223)" fill="#FFFFFF" width="0.9" height="13.9"/>
							</g>
						</g>
						<g id="XMLID_583_">
							<g id="XMLID_584_">
								
									<rect id="XMLID_585_" x="262.7" y="69.3" transform="matrix(0.7071 -0.7071 0.7071 0.7071 23.1306 208.4419)" fill="#FFFFFF" width="0.9" height="13.9"/>
							</g>
						</g>
						<g id="XMLID_580_">
							<g id="XMLID_581_">
								
									<rect id="XMLID_582_" x="262.7" y="60.1" transform="matrix(0.7071 -0.7071 0.7071 0.7071 29.6926 205.6907)" fill="#FFFFFF" width="0.9" height="13.9"/>
							</g>
						</g>
						<g id="XMLID_577_">
							<g id="XMLID_578_">
								
									<rect id="XMLID_579_" x="256.2" y="94.3" transform="matrix(0.7071 -0.7071 0.7071 0.7071 10.0657 213.8025)" fill="#FFFFFF" width="13.9" height="0.9"/>
							</g>
						</g>
						<g id="XMLID_574_">
							<g id="XMLID_575_">
								
									<rect id="XMLID_576_" x="256.2" y="85.1" transform="matrix(0.7071 -0.7071 0.7071 0.7071 16.5977 211.1226)" fill="#FFFFFF" width="13.9" height="0.9"/>
							</g>
						</g>
						<g id="XMLID_571_">
							<g id="XMLID_572_">
								
									<rect id="XMLID_573_" x="256.2" y="75.8" transform="matrix(0.7071 -0.7071 0.7071 0.7071 23.1323 208.4398)" fill="#FFFFFF" width="13.9" height="0.9"/>
							</g>
						</g>
						<g id="XMLID_568_">
							<g id="XMLID_569_">
								
									<rect id="XMLID_570_" x="256.2" y="66.6" transform="matrix(0.7071 -0.7071 0.7071 0.7071 29.6926 205.6907)" fill="#FFFFFF" width="13.9" height="0.9"/>
							</g>
						</g>
						<g id="XMLID_565_">
							<g id="XMLID_566_">
								
									<rect id="XMLID_567_" x="262.7" y="50.8" transform="matrix(0.7071 -0.7071 0.7071 0.7071 36.2279 203.0065)" fill="#FFFFFF" width="0.9" height="13.9"/>
							</g>
						</g>
						<g id="XMLID_562_">
							<g id="XMLID_563_">
								
									<rect id="XMLID_564_" x="256.2" y="57.3" transform="matrix(0.7071 -0.7071 0.7071 0.7071 36.226 203.0091)" fill="#FFFFFF" width="13.9" height="0.9"/>
							</g>
						</g>
						<g id="XMLID_559_">
							<g id="XMLID_560_">
								<rect id="XMLID_561_" x="258.5" y="52.4" fill="#FFFFFF" width="9.6" height="1.3"/>
							</g>
						</g>
						<g id="XMLID_556_">
							<g id="XMLID_557_">
								<rect id="XMLID_558_" x="258.5" y="61.7" fill="#FFFFFF" width="9.6" height="1.3"/>
							</g>
						</g>
						<g id="XMLID_553_">
							<g id="XMLID_554_">
								
									<rect id="XMLID_555_" x="262.7" y="41.5" transform="matrix(0.7071 -0.7071 0.7071 0.7071 42.8313 200.2563)" fill="#FFFFFF" width="0.9" height="13.9"/>
							</g>
						</g>
						<g id="XMLID_550_">
							<g id="XMLID_551_">
								
									<rect id="XMLID_552_" x="256.2" y="48" transform="matrix(0.7071 -0.7071 0.7071 0.7071 42.8317 200.2557)" fill="#FFFFFF" width="13.9" height="0.9"/>
							</g>
						</g>
						<g id="XMLID_547_">
							<g id="XMLID_548_">
								<rect id="XMLID_549_" x="258.5" y="43" fill="#FFFFFF" width="9.6" height="1.3"/>
							</g>
						</g>
						<g id="XMLID_544_">
							<g id="XMLID_545_">
								<rect id="XMLID_546_" x="258.5" y="52.4" fill="#FFFFFF" width="9.6" height="1.3"/>
							</g>
						</g>
						<g id="XMLID_541_">
							<g id="XMLID_542_">
								
									<rect id="XMLID_543_" x="262.7" y="33.2" transform="matrix(0.6993 -0.7148 0.7148 0.6993 50.4872 200.1407)" fill="#FFFFFF" width="0.9" height="13.8"/>
							</g>
						</g>
						<g id="XMLID_538_">
							<g id="XMLID_539_">
								
									<rect id="XMLID_540_" x="256.2" y="39.6" transform="matrix(0.7149 -0.6992 0.6992 0.7149 46.9815 195.3712)" fill="#FFFFFF" width="13.8" height="0.9"/>
							</g>
						</g>
						<g id="XMLID_535_">
							<g id="XMLID_536_">
								<rect id="XMLID_537_" x="258.5" y="34.8" fill="#FFFFFF" width="9.6" height="1.3"/>
							</g>
						</g>
						<g id="XMLID_532_">
							<g id="XMLID_533_">
								<rect id="XMLID_534_" x="258.5" y="43" fill="#FFFFFF" width="9.6" height="1.3"/>
							</g>
						</g>
						<g id="XMLID_529_">
							<g id="XMLID_530_">
								
									<rect id="XMLID_531_" x="262.7" y="23.9" transform="matrix(0.7071 -0.7071 0.7071 0.7071 55.2546 195.1204)" fill="#FFFFFF" width="0.9" height="13.9"/>
							</g>
						</g>
						<g id="XMLID_526_">
							<g id="XMLID_527_">
								
									<rect id="XMLID_528_" x="256.2" y="30.4" transform="matrix(0.7071 -0.7071 0.7071 0.7071 55.2521 195.125)" fill="#FFFFFF" width="13.9" height="0.9"/>
							</g>
						</g>
						<g id="XMLID_523_">
							<g id="XMLID_524_">
								<rect id="XMLID_525_" x="262.2" y="25.5" fill="#FFFFFF" width="9.6" height="1.3"/>
							</g>
						</g>
						<g id="XMLID_520_">
							<g id="XMLID_521_">
								<rect id="XMLID_522_" x="258.5" y="34.8" fill="#FFFFFF" width="9.6" height="1.3"/>
							</g>
						</g>
						<g id="XMLID_517_">
							<g id="XMLID_518_">
								<rect id="XMLID_519_" x="258.5" y="70.9" fill="#FFFFFF" width="9.6" height="1.3"/>
							</g>
						</g>
						<g id="XMLID_514_">
							<g id="XMLID_515_">
								<rect id="XMLID_516_" x="258.5" y="80.1" fill="#FFFFFF" width="9.6" height="1.3"/>
							</g>
						</g>
						<g id="XMLID_511_">
							<g id="XMLID_512_">
								<rect id="XMLID_513_" x="258.5" y="89.3" fill="#FFFFFF" width="9.6" height="1.3"/>
							</g>
						</g>
						<g id="XMLID_501_">
							<g id="XMLID_502_">
								<path id="XMLID_503_" fill="#FFFFFF" d="M266.5,25.4L266.5,25.4l1,0.1v-0.1H266.5z M261.9,25.5h0.2v-0.1L261.9,25.5
									L261.9,25.5z M318,23.5l-5.1-4.5h-58.2v7.3h63.8v-2.4L318,23.5z M317.6,25.4h-62v-5.5h57l0.2,0.1l0.4,0.4l4.1,3.6l0.3,0.3
									V25.4z M261.8,25.4L261.8,25.4l0.3,0.1v-0.1H261.8z M266.5,25.4L266.5,25.4l1,0.1v-0.1H266.5z"/>
							</g>
						</g>
						<g id="XMLID_495_">
							<g id="XMLID_496_">
								<path id="XMLID_497_" fill="#FFFFFF" d="M268.1,26v10.2h4.8c1.1,0,2-1.1,2-2.4v-2.4h-1v-3.3h1V26H268.1z M273,31.4h-3.4
									v-3.3h3.4V31.4z"/>
							</g>
						</g>
						<g id="XMLID_492_">
							<g id="XMLID_493_">
								
									<rect id="XMLID_494_" x="258" y="18.1" transform="matrix(0.7071 -0.7071 0.7071 0.7071 59.7105 189.3885)" fill="#FFFFFF" width="0.9" height="9"/>
							</g>
						</g>
						<g id="XMLID_489_">
							<g id="XMLID_490_">
								<rect id="XMLID_491_" x="254.7" y="19.2" fill="#FFFFFF" width="0.9" height="6.6"/>
							</g>
						</g>
						<g id="XMLID_486_">
							<g id="XMLID_487_">
								<rect id="XMLID_488_" x="261.2" y="19.4" fill="#FFFFFF" width="0.9" height="6.4"/>
							</g>
						</g>
						<g id="XMLID_483_">
							<g id="XMLID_484_">
								
									<rect id="XMLID_485_" x="264.4" y="18.1" transform="matrix(0.7071 -0.7071 0.7071 0.7071 61.5688 193.8945)" fill="#FFFFFF" width="0.9" height="9"/>
							</g>
						</g>
						<g id="XMLID_480_">
							<g id="XMLID_481_">
								<rect id="XMLID_482_" x="267.6" y="19.4" fill="#FFFFFF" width="0.9" height="6.4"/>
							</g>
						</g>
						<g id="XMLID_477_">
							<g id="XMLID_478_">
								
									<rect id="XMLID_479_" x="270.8" y="18.1" transform="matrix(0.7071 -0.7071 0.7071 0.7071 63.4281 198.3986)" fill="#FFFFFF" width="0.9" height="9"/>
							</g>
						</g>
						<g id="XMLID_474_">
							<g id="XMLID_475_">
								<rect id="XMLID_476_" x="274" y="19.4" fill="#FFFFFF" width="0.9" height="6.4"/>
							</g>
						</g>
						<g id="XMLID_471_">
							<g id="XMLID_472_">
								
									<rect id="XMLID_473_" x="277.1" y="18.1" transform="matrix(0.7071 -0.7071 0.7071 0.7071 65.2854 202.9069)" fill="#FFFFFF" width="0.9" height="9"/>
							</g>
						</g>
						<g id="XMLID_468_">
							<g id="XMLID_469_">
								<rect id="XMLID_470_" x="280.4" y="19.4" fill="#FFFFFF" width="0.9" height="6.4"/>
							</g>
						</g>
						<g id="XMLID_465_">
							<g id="XMLID_466_">
								
									<rect id="XMLID_467_" x="283.5" y="18.2" transform="matrix(0.7071 -0.7071 0.7071 0.7071 67.1428 207.4148)" fill="#FFFFFF" width="0.9" height="9"/>
							</g>
						</g>
						<g id="XMLID_462_">
							<g id="XMLID_463_">
								<polygon id="XMLID_464_" fill="#FFFFFF" points="317.5,26.2 316.1,26.2 315.9,25.4 317.3,25.4 								"/>
							</g>
						</g>
						<g id="XMLID_459_">
							<g id="XMLID_460_">
								<rect id="XMLID_461_" x="286.7" y="19.4" fill="#FFFFFF" width="0.9" height="6.4"/>
							</g>
						</g>
						<g id="XMLID_456_">
							<g id="XMLID_457_">
								
									<rect id="XMLID_458_" x="289.9" y="18.1" transform="matrix(0.7071 -0.7071 0.7071 0.7071 69.0675 211.9587)" fill="#FFFFFF" width="0.9" height="9"/>
							</g>
						</g>
						<g id="XMLID_453_">
							<g id="XMLID_454_">
								<rect id="XMLID_455_" x="293.1" y="19.4" fill="#FFFFFF" width="0.9" height="6.4"/>
							</g>
						</g>
						<g id="XMLID_450_">
							<g id="XMLID_451_">
								
									<rect id="XMLID_452_" x="296.3" y="18.1" transform="matrix(0.7071 -0.7071 0.7071 0.7071 70.9248 216.4669)" fill="#FFFFFF" width="0.9" height="9"/>
							</g>
						</g>
						<g id="XMLID_447_">
							<g id="XMLID_448_">
								<rect id="XMLID_449_" x="299.5" y="19.4" fill="#FFFFFF" width="0.9" height="6.4"/>
							</g>
						</g>
						<g id="XMLID_444_">
							<g id="XMLID_445_">
								
									<rect id="XMLID_446_" x="302.7" y="18.1" transform="matrix(0.7071 -0.7071 0.7071 0.7071 72.7855 220.9681)" fill="#FFFFFF" width="0.9" height="9"/>
							</g>
						</g>
						<g id="XMLID_441_">
							<g id="XMLID_442_">
								<rect id="XMLID_443_" x="305.9" y="19.4" fill="#FFFFFF" width="0.9" height="6.4"/>
							</g>
						</g>
						<g id="XMLID_438_">
							<g id="XMLID_439_">
								
									<rect id="XMLID_440_" x="309" y="18.1" transform="matrix(0.7071 -0.7071 0.7071 0.7071 74.6428 225.4763)" fill="#FFFFFF" width="0.9" height="9"/>
							</g>
						</g>
						<g id="XMLID_435_">
							<g id="XMLID_436_">
								<rect id="XMLID_437_" x="312.3" y="19.4" fill="#FFFFFF" width="0.9" height="6.4"/>
							</g>
						</g>
						<g id="XMLID_432_">
							<g id="XMLID_433_">
								<circle id="XMLID_434_" fill="#FFFFFF" cx="318.4" cy="25.2" r="1.7"/>
							</g>
						</g>
						<g id="XMLID_429_">
							<g id="XMLID_430_">
								<circle id="XMLID_431_" fill="#FFFDFF" cx="318.4" cy="25.2" r="0.6"/>
							</g>
						</g>
						<g id="XMLID_426_">
							<g id="XMLID_427_">
								<rect id="XMLID_428_" x="251.6" y="17.3" fill="#C1C1C1" width="2.5" height="11.1"/>
							</g>
						</g>
						<g id="XMLID_423_">
							<g id="XMLID_424_">
								<rect id="XMLID_425_" x="251.7" y="17.3" fill="#FFFFFF" width="2.5" height="11.1"/>
							</g>
						</g>
						<g id="XMLID_420_">
							<g id="XMLID_421_">
								<rect id="XMLID_422_" x="248.7" y="17.3" fill="#C1C1C1" width="2.5" height="11.1"/>
							</g>
						</g>
						<g id="XMLID_417_">
							<g id="XMLID_418_">
								<rect id="XMLID_419_" x="248.9" y="17.3" fill="#FFFFFF" width="2.5" height="11.1"/>
							</g>
						</g>
						<g id="XMLID_414_">
							<g id="XMLID_415_">
								<rect id="XMLID_416_" x="245.9" y="17.3" fill="#C1C1C1" width="2.5" height="11.1"/>
							</g>
						</g>
						<g id="XMLID_411_">
							<g id="XMLID_412_">
								<rect id="XMLID_413_" x="246" y="17.3" fill="#FFFFFF" width="2.5" height="11.1"/>
							</g>
						</g>
						<g id="XMLID_408_">
							<g id="XMLID_409_">
								<rect id="XMLID_410_" x="243.1" y="17.3" fill="#C1C1C1" width="2.5" height="11.1"/>
							</g>
						</g>
						<g id="XMLID_405_">
							<g id="XMLID_406_">
								<rect id="XMLID_407_" x="243.2" y="17.3" fill="#FFFFFF" width="2.5" height="11.1"/>
							</g>
						</g>
						<g id="XMLID_402_">
							<g id="XMLID_403_">
								<rect id="XMLID_404_" x="252.6" y="99.3" fill="#FFFFFF" width="20.8" height="3.4"/>
							</g>
						</g>
						<g id="XMLID_399_">
							<g id="XMLID_400_">
								<rect id="XMLID_401_" x="252.6" y="99.3" fill="#C1C1C1" width="20.8" height="0.6"/>
							</g>
						</g>
					</g>
				</g>
			</g>
			<g id="XMLID_352_">
				<g id="XMLID_353_">
					<path id="XMLID_386_" opacity="0.2" fill="#FFFFFF" enable-background="new    " d="M371,72.1c0-0.2,0.1-0.5,0.1-0.7
						s0.1-0.5,0.1-0.7l-1.5-0.7c0-0.3,0.1-0.6,0.1-0.9l1.5-0.4c0-0.5,0-1,0-1.5l-1.6-0.4c0-0.3-0.1-0.6-0.1-0.9l1.4-0.7
						c-0.1-0.5-0.2-1-0.3-1.4l-1.6-0.1c-0.1-0.3-0.2-0.6-0.3-0.8l1.3-1c-0.2-0.5-0.4-0.9-0.6-1.4l-1.6,0.2c-0.1-0.3-0.3-0.5-0.4-0.8
						l1.1-1.2c-0.3-0.4-0.5-0.8-0.8-1.2l-1.5,0.5c-0.2-0.2-0.4-0.5-0.5-0.7l0.8-1.4c-0.3-0.4-0.7-0.7-1-1.1l-1.4,0.8
						c-0.2-0.2-0.4-0.4-0.7-0.6l0.6-1.5c-0.4-0.3-0.8-0.6-1.2-0.9l-1.2,1c-0.2-0.2-0.5-0.3-0.8-0.4l0.3-1.6
						c-0.4-0.2-0.9-0.4-1.3-0.6l-1,1.2c-0.3-0.1-0.5-0.2-0.8-0.3v-1.6c-0.5-0.1-0.9-0.3-1.4-0.4l-0.8,1.4c-0.1,0-0.3-0.1-0.4-0.1
						s-0.3,0-0.4-0.1l-0.3-1.6c-0.5-0.1-1-0.1-1.5-0.1l-0.5,1.5c-0.3,0-0.6,0-0.9,0l-0.6-1.5c-0.5,0-1,0.1-1.5,0.2l-0.2,1.6
						c-0.3,0.1-0.6,0.1-0.9,0.2l-0.9-1.4c-0.5,0.1-0.9,0.3-1.4,0.4l0.1,1.6c-0.3,0.1-0.5,0.2-0.8,0.3l-1.1-1.2
						c-0.4,0.2-0.9,0.4-1.3,0.7l0.4,1.6c-0.2,0.2-0.5,0.3-0.7,0.5l-1.3-1c-0.4,0.3-0.8,0.6-1.2,0.9l0.6,1.5
						c-0.2,0.2-0.4,0.4-0.6,0.6l-1.4-0.7c-0.3,0.4-0.7,0.7-1,1.1l0.9,1.3c-0.2,0.2-0.3,0.5-0.5,0.7l-1.5-0.4
						c-0.3,0.4-0.5,0.8-0.7,1.3l1.1,1.1c-0.1,0.3-0.3,0.5-0.4,0.8l-1.6-0.1c-0.2,0.5-0.4,0.9-0.5,1.4l1.3,0.9
						c-0.1,0.3-0.2,0.6-0.2,0.9l-1.6,0.2c0,0.2-0.1,0.5-0.1,0.7s-0.1,0.5-0.1,0.7l1.5,0.7c0,0.3-0.1,0.6-0.1,0.9l-1.5,0.4
						c0,0.5,0,1,0,1.5l1.6,0.4c0,0.3,0.1,0.6,0.1,0.9l-1.4,0.7c0.1,0.5,0.2,1,0.3,1.4l1.6,0.1c0.1,0.3,0.2,0.6,0.3,0.8l-1.3,1
						c0.2,0.5,0.4,0.9,0.6,1.4l1.6-0.2c0.1,0.3,0.3,0.5,0.4,0.8l-1.1,1.2c0.2,0.4,0.5,0.8,0.8,1.2l1.5-0.5c0.2,0.2,0.4,0.5,0.5,0.7
						l-0.8,1.4c0.3,0.4,0.7,0.7,1,1.1L341,81c0.2,0.2,0.4,0.4,0.7,0.6l-0.6,1.5c0.4,0.3,0.8,0.6,1.2,0.9l1.2-1
						c0.2,0.2,0.5,0.3,0.8,0.4L344,85c0.4,0.2,0.9,0.4,1.3,0.6l1-1.2c0.3,0.1,0.5,0.2,0.8,0.3v1.6c0.5,0.1,0.9,0.3,1.4,0.4l0.8-1.4
						c0.1,0,0.3,0.1,0.4,0.1s0.3,0,0.4,0.1l0.3,1.6c0.5,0.1,1,0.1,1.5,0.1l0.5-1.5c0.3,0,0.6,0,0.9,0L354,87c0.5,0,1-0.1,1.5-0.2
						l0.2-1.6c0.3-0.1,0.6-0.1,0.9-0.2l0.9,1.4c0.5-0.1,0.9-0.3,1.4-0.4l-0.1-1.6c0.3-0.1,0.5-0.2,0.8-0.3l1.1,1.2
						c0.4-0.2,0.9-0.4,1.3-0.7l-0.4-1.6c0.2-0.2,0.5-0.3,0.7-0.5l1.3,1c0.4-0.3,0.8-0.6,1.2-0.9l-0.6-1.5c0.2-0.2,0.4-0.4,0.6-0.6
						l1.4,0.7c0.3-0.4,0.7-0.7,1-1.1l-0.9-1.3c0.2-0.2,0.3-0.5,0.5-0.7l1.5,0.4c0.3-0.4,0.5-0.8,0.7-1.3l-1-1.2
						c0.1-0.3,0.3-0.5,0.4-0.8l1.6,0.1c0.2-0.5,0.4-0.9,0.5-1.4l-1.3-0.9c0.1-0.3,0.2-0.6,0.2-0.9L371,72.1z M367.2,69.9l-9.5-1.6
						c0-0.5-0.1-0.9-0.2-1.4c-0.1-0.3-0.2-0.7-0.4-1l7.8-5.6C366.7,63.2,367.6,66.5,367.2,69.9z M364.1,59.1l-7.8,5.6
						c-0.6-0.6-1.3-1-2.1-1.3l1.6-9.5C359.2,54.7,362,56.6,364.1,59.1z M354.2,53.7l-1.6,9.5c-0.8,0-1.6,0.2-2.4,0.6l-5.6-7.8
						C347.5,54.2,350.8,53.3,354.2,53.7z M343.4,56.9l5.6,7.8c-0.6,0.6-1,1.3-1.3,2.1l-9.5-1.6C339,61.8,340.9,58.9,343.4,56.9z
						 M338,66.7l9.5,1.6c0,0.8,0.2,1.6,0.6,2.4l-7.8,5.6C338.5,73.5,337.6,70.2,338,66.7z M341.2,77.5l7.8-5.6
						c0.5,0.5,1.1,0.9,1.9,1.2c0.1,0,0.1,0,0.2,0.1l-1.6,9.5C346.1,81.9,343.2,80.1,341.2,77.5z M351,82.9l1.6-9.5
						c0.8,0,1.6-0.2,2.4-0.6l5.6,7.8C357.8,82.4,354.5,83.3,351,82.9z M361.8,79.8l-5.6-7.8c0.5-0.5,0.9-1.1,1.2-1.9
						c0-0.1,0-0.1,0.1-0.2l9.5,1.6C366.2,74.9,364.4,77.7,361.8,79.8z"/>
					<g id="XMLID_379_" opacity="0.2">
						<g id="XMLID_382_">
							<path id="XMLID_383_" fill="#FFFFFF" d="M389.7,80.1c-0.1-0.4-0.1-0.6-0.1-0.6c-0.1-0.3,0.1-0.7,0.3-0.9l0.9-0.8
								c0.2-0.2,0.3-0.6,0.2-0.8l-0.4-0.9c-0.1-0.3-0.5-0.4-0.8-0.4l-1.1,0.2c-0.3,0.1-0.7-0.1-0.9-0.3l-0.9-0.9
								c-0.2-0.2-0.3-0.6-0.3-0.9l0.3-1.1c0.1-0.3-0.1-0.6-0.3-0.8l-0.8-0.4c-0.3-0.1-0.6,0-0.8,0.2l-0.8,0.9
								c-0.2,0.2-0.6,0.3-0.9,0.3l-1.2-0.2c-0.3,0-0.6-0.3-0.7-0.6L381,71c-0.1-0.3-0.4-0.5-0.7-0.5c0,0-0.1,0-0.5,0.1
								c-0.3,0-0.5,0.1-0.5,0.1c-0.3,0.1-0.5,0.4-0.6,0.7l-0.1,1.2c0,0.3-0.3,0.6-0.6,0.7l-1.1,0.5c-0.3,0.1-0.7,0.1-0.9,0l-1-0.6
								c-0.3-0.2-0.6-0.1-0.9,0.1l-0.7,0.7c-0.2,0.2-0.2,0.6-0.1,0.9l0.6,1c0.1,0.3,0.1,0.7,0,0.9l-0.6,1.1
								c-0.1,0.3-0.5,0.5-0.8,0.5l-1.2,0.1c-0.3,0-0.6,0.3-0.7,0.6l-0.2,0.9c0,0.3,0.2,0.6,0.4,0.7l1.1,0.5c0.3,0.1,0.5,0.5,0.5,0.8
								c0,0,0,0.2,0.1,0.6s0.1,0.6,0.1,0.6c0.1,0.3-0.1,0.7-0.3,0.9l-0.9,0.8c-0.2,0.2-0.3,0.6-0.2,0.8l0.4,0.9
								c0.1,0.3,0.5,0.4,0.8,0.4l1.1-0.2c0.3-0.1,0.7,0.1,0.9,0.3l0.9,0.9c0.2,0.2,0.3,0.6,0.3,0.9l-0.3,1.1
								c-0.1,0.3,0.1,0.6,0.3,0.8l0.8,0.4c0.3,0.1,0.6,0,0.8-0.2l0.8-0.9c0.2-0.2,0.6-0.3,0.9-0.3l1.2,0.2c0.3,0,0.6,0.3,0.7,0.6
								l0.4,1.1c0.1,0.3,0.4,0.5,0.7,0.5c0,0,0.1,0,0.5-0.1c0.3,0,0.5-0.1,0.5-0.1c0.3-0.1,0.5-0.4,0.6-0.7l0.1-1.2
								c0-0.3,0.3-0.6,0.6-0.7l1.1-0.5c0.3-0.1,0.7-0.1,0.9,0l1,0.6c0.3,0.2,0.6,0.1,0.9-0.1l0.7-0.7c0.2-0.2,0.2-0.6,0.1-0.9
								l-0.6-1c-0.1-0.3-0.1-0.7,0-0.9l0.6-1.1c0.1-0.3,0.5-0.5,0.8-0.5l1.2-0.1c0.3,0,0.6-0.3,0.7-0.6l0.2-0.9
								c0-0.3-0.2-0.6-0.4-0.7l-1.1-0.5c-0.3-0.1-0.5-0.5-0.5-0.8C389.8,80.7,389.8,80.4,389.7,80.1z M382,87.3
								c-3.3,0.5-6.4-1.8-6.9-5.1s1.8-6.4,5.1-6.9c3.3-0.5,6.4,1.8,6.9,5.1S385.3,86.8,382,87.3z"/>
						</g>
						<g id="XMLID_380_">
							<circle id="XMLID_381_" fill="#FFFFFF" cx="381.2" cy="81.3" r="2.1"/>
						</g>
					</g>
					<g id="XMLID_370_" opacity="0.2">
						<g id="XMLID_375_">
							<path id="XMLID_376_" fill="#FFFFFF" d="M369,30.8c0-0.3,0-0.5,0-0.5c0-0.2,0.2-0.5,0.4-0.6l0.8-0.4c0.2-0.1,0.3-0.4,0.3-0.6
								l-0.1-0.7c-0.1-0.2-0.3-0.4-0.5-0.4H369c-0.2,0-0.5-0.2-0.6-0.4l-0.4-0.8c-0.1-0.2-0.1-0.5,0-0.7l0.4-0.8
								c0.1-0.2,0.1-0.5-0.1-0.6l-0.5-0.5c-0.2-0.1-0.5-0.2-0.6,0l-0.7,0.5c-0.2,0.1-0.5,0.1-0.7,0l-0.8-0.4
								c-0.2-0.1-0.4-0.3-0.4-0.5l-0.1-0.9c0-0.2-0.2-0.4-0.4-0.5c0,0-0.1,0-0.4,0s-0.4,0-0.4,0c-0.2,0-0.5,0.2-0.5,0.4l-0.3,0.8
								c-0.1,0.2-0.3,0.4-0.5,0.4l-0.9,0.2c-0.2,0.1-0.5,0-0.7-0.2l-0.6-0.6c-0.2-0.2-0.4-0.2-0.6-0.1l-0.6,0.4
								c-0.2,0.1-0.3,0.4-0.2,0.6l0.2,0.8c0.1,0.2,0,0.5-0.2,0.7l-0.6,0.7c-0.1,0.2-0.4,0.3-0.6,0.2l-0.9-0.2
								c-0.2,0-0.5,0.1-0.6,0.3l-0.3,0.6c-0.1,0.2,0,0.5,0.2,0.6l0.7,0.5c0.2,0.1,0.3,0.4,0.2,0.6c0,0,0,0.2-0.1,0.5
								c0,0.3,0,0.5,0,0.5c0,0.2-0.2,0.5-0.4,0.6l-0.8,0.4c-0.2,0.1-0.3,0.4-0.3,0.6L355,32c0.1,0.2,0.3,0.4,0.5,0.4h0.9
								c0.2,0,0.5,0.2,0.6,0.4l0.4,0.8c0.1,0.2,0.1,0.5,0,0.7l-0.4,0.8c-0.1,0.2-0.1,0.5,0.1,0.6l0.5,0.5c0.2,0.1,0.5,0.2,0.6,0
								l0.7-0.5c0.2-0.1,0.5-0.1,0.7,0l0.8,0.4c0.2,0.1,0.4,0.3,0.4,0.5l0.1,0.9c0,0.2,0.2,0.4,0.4,0.5c0,0,0.1,0,0.4,0.1
								c0.3,0,0.4,0,0.4,0c0.2,0,0.5-0.2,0.5-0.4l0.3-0.8c0.1-0.2,0.3-0.4,0.5-0.4l0.9-0.2c0.2-0.1,0.5,0,0.7,0.2l0.6,0.6
								c0.2,0.2,0.4,0.2,0.6,0.1l0.6-0.4c0.2-0.1,0.3-0.4,0.2-0.6l-0.2-0.8c-0.1-0.2,0-0.5,0.2-0.7l0.6-0.7c0.1-0.2,0.4-0.3,0.6-0.2
								l0.9,0.2c0.2,0,0.5-0.1,0.6-0.3l0.3-0.6c0.1-0.2,0-0.5-0.2-0.6l-0.7-0.5c-0.2-0.1-0.3-0.4-0.2-0.6
								C368.9,31.3,368.9,31.1,369,30.8z M362,34.5c-2.5-0.3-4.3-2.6-4-5c0.3-2.5,2.6-4.3,5-4c2.5,0.3,4.3,2.6,4,5
								C366.7,33.1,364.5,34.8,362,34.5z"/>
						</g>
						<g id="XMLID_371_">
							<path id="XMLID_372_" fill="#FFFFFF" d="M362.9,26.8c-1.8-0.2-3.4,1.1-3.6,2.8c-0.2,1.8,1.1,3.4,2.8,3.6
								c1.8,0.2,3.4-1.1,3.6-2.8C366,28.6,364.7,27,362.9,26.8z M362.4,31.2c-0.6-0.1-1.1-0.7-1-1.3c0.1-0.6,0.7-1.1,1.3-1
								c0.6,0.1,1.1,0.7,1,1.3C363.6,30.8,363,31.3,362.4,31.2z"/>
						</g>
					</g>
					<g id="XMLID_354_" opacity="0.2">
						<path id="XMLID_369_" fill="#FFFFFF" d="M380.4,35.6c-0.3-0.1-0.6-0.2-0.9-0.3L379,36c0.4,0.1,0.9,0.3,1.3,0.4L380.4,35.6z"/>
						<path id="XMLID_368_" fill="#FFFFFF" d="M372.5,57.2c0.3,0.1,0.6,0.2,0.9,0.3l0.5-0.7c-0.4-0.1-0.9-0.3-1.3-0.4L372.5,57.2z"
							/>
						<path id="XMLID_358_" fill="#FFFFFF" d="M387.8,45.2c0-0.1,0-0.3-0.1-0.5c0-0.2,0-0.3-0.1-0.4l-0.9-0.1c0-0.2-0.1-0.4-0.1-0.6
							l0.7-0.5c-0.1-0.3-0.2-0.6-0.3-0.9l-0.9,0.1c-0.1-0.2-0.2-0.4-0.3-0.6l0.6-0.6c-0.1-0.3-0.3-0.5-0.4-0.8l-0.8,0.2
							c-0.1-0.2-0.2-0.3-0.4-0.5l0.5-0.7c-0.2-0.2-0.4-0.5-0.6-0.7l-0.8,0.4c-0.1-0.1-0.3-0.3-0.4-0.4l0.4-0.8
							c-0.2-0.2-0.5-0.4-0.7-0.6l-0.7,0.5c-0.2-0.1-0.3-0.2-0.5-0.3l0.2-0.9c-0.3-0.2-0.5-0.3-0.8-0.4l-0.6,0.6
							c-0.2-0.1-0.4-0.2-0.6-0.2c-0.4-0.2-0.8-0.3-1.3-0.4c-0.2-0.1-0.4-0.1-0.6-0.1l-0.1-0.9c-0.3-0.1-0.6-0.1-0.9-0.1l-0.3,0.8
							c-0.2,0-0.4,0-0.6,0l-0.3-0.8c-0.3,0-0.6,0-0.9,0l-0.2,0.9c-0.1,0-0.2,0-0.3,0c-0.1,0-0.2,0-0.3,0l-0.4-0.8
							c-0.3,0.1-0.6,0.1-0.9,0.2v0.9c-0.2,0.1-0.4,0.1-0.6,0.2l-0.5-0.7c-0.3,0.1-0.6,0.2-0.8,0.4l0.1,0.9c-0.2,0.1-0.4,0.2-0.5,0.3
							l-0.7-0.6c-0.3,0.2-0.5,0.3-0.7,0.5l0.3,0.8c-0.2,0.1-0.3,0.3-0.5,0.4l-0.8-0.4c-0.2,0.2-0.4,0.4-0.6,0.6l0.4,0.8
							c-0.1,0.1-0.1,0.2-0.2,0.2c-0.1,0.1-0.1,0.2-0.2,0.2l-0.8-0.3c-0.2,0.2-0.3,0.5-0.5,0.7l0.6,0.7c-0.1,0.2-0.2,0.4-0.3,0.5
							l-0.9-0.1c-0.1,0.3-0.2,0.5-0.4,0.8l0.7,0.5c-0.1,0.2-0.1,0.4-0.2,0.6h-0.9c-0.1,0.3-0.1,0.6-0.2,0.9l0.8,0.4
							c0,0.2-0.1,0.4-0.1,0.6l-0.8,0.2c0,0.3,0,0.6,0,0.9l0.8,0.3c0,0.2,0,0.4,0,0.6l-0.8,0.3c0,0.1,0,0.3,0.1,0.5
							c0,0.2,0,0.3,0.1,0.4l0.9,0.1c0,0.2,0.1,0.4,0.1,0.6l-0.7,0.5c0.1,0.3,0.2,0.6,0.3,0.9l0.9-0.1c0.1,0.2,0.2,0.4,0.3,0.6
							l-0.6,0.6c0.1,0.3,0.3,0.5,0.4,0.8l0.8-0.2c0.1,0.2,0.2,0.3,0.4,0.5l-0.5,0.7c0.2,0.2,0.4,0.5,0.6,0.7l0.8-0.4
							c0.1,0.1,0.3,0.3,0.4,0.4l-0.4,0.8c0.2,0.2,0.5,0.4,0.7,0.6l0.7-0.5c0.2,0.1,0.3,0.2,0.5,0.3l-0.2,0.9
							c0.3,0.2,0.5,0.3,0.8,0.4l0.6-0.6c0.2,0.1,0.4,0.2,0.6,0.2c0.4,0.2,0.8,0.3,1.3,0.4c0.2,0.1,0.4,0.1,0.6,0.1l0.1,0.9
							c0.3,0.1,0.6,0.1,0.9,0.1l0.3-0.8c0.2,0,0.4,0,0.6,0l0.3,0.8c0.3,0,0.6,0,0.9,0l0.2-0.9l0,0c0.2,0,0.4-0.1,0.6-0.1l0,0
							l0.4,0.8c0.3-0.1,0.6-0.1,0.9-0.2v-0.9c0.2-0.1,0.4-0.1,0.6-0.2l0.5,0.7c0.3-0.1,0.6-0.2,0.8-0.4l-0.1-0.9
							c0.2-0.1,0.4-0.2,0.5-0.3l0,0l0.7,0.6c0.3-0.2,0.5-0.3,0.7-0.5l-0.3-0.8c0.2-0.1,0.3-0.3,0.5-0.4l0.8,0.4
							c0.2-0.2,0.4-0.4,0.6-0.6l-0.4-0.8c0.1-0.1,0.1-0.2,0.2-0.2c0.1-0.1,0.1-0.2,0.2-0.2l0.8,0.3c0.2-0.2,0.3-0.5,0.5-0.7
							l-0.6-0.7c0.1-0.2,0.2-0.4,0.3-0.5l0.9,0.1c0.1-0.3,0.2-0.5,0.4-0.8l-0.7-0.5c0.1-0.2,0.1-0.4,0.2-0.6h0.9
							c0.1-0.3,0.1-0.6,0.2-0.9l-0.8-0.4c0-0.2,0.1-0.4,0.1-0.6l0.8-0.2c0-0.3,0-0.6,0-0.9L387,46c0-0.2,0-0.4,0-0.6L387.8,45.2z
							 M375.2,37.5l0.3,2.3c-1.6,0.2-3.1,1-4.2,2.4c-0.1,0.1-0.1,0.2-0.2,0.2l-1.8-1.4c0.1-0.1,0.2-0.2,0.2-0.3
							C371,38.9,373.1,37.8,375.2,37.5z M369.4,38.4c-0.2,0.1-0.3,0.3-0.5,0.5C369.1,38.7,369.2,38.6,369.4,38.4z M371.1,53.6
							c-0.1-0.1-0.2-0.2-0.3-0.2c-1.8-1.5-2.9-3.5-3.2-5.7l2.3-0.3c0.2,1.6,1,3.1,2.4,4.2c0.1,0.1,0.2,0.1,0.2,0.2L371.1,53.6z
							 M373.5,50.4L373.5,50.4c-1-0.8-1.8-2-2-3.3c-0.2-1.4,0.2-2.7,0.9-3.8c0.8-1,1.9-1.8,3.3-2s2.7,0.2,3.7,1s1.8,2,2,3.3
							c0.2,1.4-0.2,2.7-0.9,3.8l0,0c-0.8,1-1.9,1.8-3.3,2C375.8,51.6,374.5,51.2,373.5,50.4z M377.8,55.3l-0.3-2.3
							c1.6-0.2,3.1-1,4.2-2.4c0.1-0.1,0.1-0.2,0.2-0.3l1.8,1.4c-0.1,0.1-0.2,0.2-0.3,0.3C381.9,53.9,379.9,55,377.8,55.3z
							 M383.5,54.4c0.2-0.1,0.3-0.3,0.5-0.5C383.9,54.1,383.7,54.2,383.5,54.4z M383,45.4c-0.2-1.6-1-3.1-2.3-4.2
							c-0.1-0.1-0.2-0.1-0.3-0.2l1.4-1.8c0.1,0.1,0.2,0.2,0.3,0.3c1.8,1.5,2.8,3.5,3.2,5.6L383,45.4z M385.7,49.5L385.7,49.5h0.7
							H385.7z"/>
						<path id="XMLID_355_" fill="#FFFFFF" d="M378.7,48.1c0.9-1.3,0.7-3.1-0.6-4c-0.6-0.5-1.4-0.7-2.1-0.5
							c-1.6,0.2-2.6,1.7-2.4,3.3c0.1,0.5,0.2,0.9,0.5,1.3c0.9,1.3,2.7,1.6,4,0.6C378.4,48.5,378.6,48.3,378.7,48.1z M377.3,47.5
							c-0.6,0.4-1.4,0.3-1.9-0.3c-0.1-0.2-0.2-0.4-0.2-0.6c-0.1-0.7,0.4-1.4,1.1-1.5c0.4-0.1,0.7,0,1,0.3c0.6,0.5,0.7,1.3,0.3,1.9
							C377.5,47.3,377.4,47.4,377.3,47.5z"/>
					</g>
				</g>
			</g>
		</g>
		<g id="XMLID_154_">
			<g id="XMLID_164_">
				<polygon id="XMLID_185_" fill="#989898" points="356.3,150.8 264.8,150.8 264.7,150 356.5,149.9 				"/>
				
					<linearGradient id="XMLID_5_" gradientUnits="userSpaceOnUse" x1="310.6375" y1="242.3183" x2="310.6375" y2="159.3658" gradientTransform="matrix(1 0 0 -1 0 160)">
					<stop  offset="0" style="stop-color:#3B3B3B"/>
					<stop  offset="1.507538e-002" style="stop-color:#8E8E8E"/>
					<stop  offset="1" style="stop-color:#FFFFFF"/>
				</linearGradient>
				<path id="XMLID_166_" fill="url(#XMLID_5_)" d="M353.6,141.3h-86c-0.1,0-0.2,0.1-0.2,0.2l-2.6,8.2c0,0.2,0,0.3,0,0.3h91.6
					c0.1,0,0.1-0.1,0-0.3l-2.6-8.2C353.7,141.4,353.7,141.3,353.6,141.3z"/>
			</g>
			<g id="XMLID_157_">
				<polygon id="XMLID_163_" fill="#989898" points="375.3,149.7 365.8,149.8 365.6,149.1 375.1,149 				"/>
				
					<linearGradient id="XMLID_6_" gradientUnits="userSpaceOnUse" x1="367.6482" y1="263.7954" x2="367.6482" y2="173.1466" gradientTransform="matrix(0.8158 -3.837230e-002 -3.560121e-002 -0.7569 69.9886 170.9274)">
					<stop  offset="0" style="stop-color:#3B3B3B"/>
					<stop  offset="1.507538e-002" style="stop-color:#8E8E8E"/>
					<stop  offset="1" style="stop-color:#FFFFFF"/>
				</linearGradient>
				<path id="XMLID_162_" fill="url(#XMLID_6_)" d="M372.6,142.3l-8.9,0.1c0,0,0,0.1,0,0.2l1.8,6.4c0,0.1,0.1,0.2,0.1,0.2l9.5-0.1
					c0,0,0-0.1-0.1-0.2l-2.3-6.4C372.7,142.4,372.7,142.3,372.6,142.3z"/>
			</g>
			<path id="XMLID_156_" fill="#E1E1E1" d="M352.1,142.4V142h-7h-4.3h-3.7h-3.3h-4.7h-3.3h-4.7h-3.3h-4.7h-3.3h-4.7h-3.3h-4.7h-3.3
				h-4.7h-3.3h-5.1h-2.9h-8.4v0.4l-0.3,1.3v0.3h8.4h3.7h4.3h4h4h4h4h4h4h4h4h4h4h4h4h4h3h5h7v-0.3L352.1,142.4z"/>
			<path id="XMLID_155_" fill="#E1E1E1" d="M353.1,146.4V146h-7.2h-4.4h-3.8h-3.4h-4.8h-3.4h-4.8H318h-4.8h-3.4H305h-3.4h-4.8h-3.4
				h-4.8h-3.4H280h-3h-8.6v0.4l-0.4,1.3v0.3h8.6h3.7h4.4h4.1h4.1h4.1h4.1h4.1h4.1h4.1h4.1h4.1h4.1h4.1h4.1h4.1h3h5.1h7.2v-0.3
				L353.1,146.4z"/>
		</g>
		<g id="XMLID_238_">
			<rect id="XMLID_330_" x="287.8" y="40.6" fill="#9F4747" width="64.3" height="5.5"/>
			<g id="XMLID_240_">
				<g id="XMLID_800_" opacity="0.15">
					<path id="XMLID_841_" d="M365.5,88.7h-91l0,0c0.1-10.6,3.6-20.8,10-29.2l13.4-17.9h44.2l13.4,17.9
						C361.9,67.9,365.4,78.1,365.5,88.7L365.5,88.7z"/>
					<polygon id="XMLID_839_" points="322.8,44.8 301.1,44.8 301.7,43.7 322.7,43.7 					"/>
					<polygon id="XMLID_838_" points="308.4,51.1 297.4,51.1 298.3,49.6 308.9,49.6 					"/>
					<polygon id="XMLID_837_" points="326.1,51.1 315.1,51.1 315.3,49.6 325.9,49.6 					"/>
					<polygon id="XMLID_836_" points="342.9,51.1 331.9,51.1 331.5,49.6 342,49.6 					"/>
					<polygon id="XMLID_835_" points="307.6,54 295.8,54 296.8,52.2 308.1,52.2 					"/>
					<polygon id="XMLID_834_" points="326.5,54 314.7,54 315,52.2 326.3,52.2 					"/>
					<polygon id="XMLID_833_" points="344.6,54 332.8,54 332.3,52.2 343.6,52.2 					"/>
					<polygon id="XMLID_832_" points="306.6,57.3 293.8,57.3 295,55.2 307.2,55.2 					"/>
					<polygon id="XMLID_831_" points="327.1,57.3 314.3,57.3 314.6,55.2 326.7,55.2 					"/>
					<polygon id="XMLID_830_" points="346.5,57.3 333.8,57.3 333.2,55.2 345.3,55.2 					"/>
					<polygon id="XMLID_829_" points="305.4,61.2 291.6,61.2 293,58.7 306.1,58.7 					"/>
					<polygon id="XMLID_828_" points="330.4,78.8 284.1,78.8 287.6,68 328.7,68 					"/>
					<polygon id="XMLID_827_" points="327.7,61.2 313.8,61.2 314.1,58.7 327.3,58.7 					"/>
					<polygon id="XMLID_826_" points="348.8,61.2 335,61.2 334.3,58.7 347.4,58.7 					"/>
					<polygon id="XMLID_825_" points="356.8,78.8 340.4,78.8 337.1,68 352.8,68 					"/>
					<polygon id="XMLID_824_" points="339.2,44.8 327.6,44.8 327.4,43.7 338.5,43.7 					"/>
					<polygon id="XMLID_823_" points="340.2,46.5 328,46.5 327.8,45.3 339.5,45.3 					"/>
					<polygon id="XMLID_822_" points="310.3,46.5 300.1,46.5 300.8,45.3 310.7,45.3 					"/>
					<polygon id="XMLID_821_" points="323,46.5 311.5,46.5 311.8,45.3 322.9,45.3 					"/>
				</g>
				<g id="XMLID_288_">
					<g id="XMLID_332_">
						
							<linearGradient id="XMLID_7_" gradientUnits="userSpaceOnUse" x1="320" y1="118.5491" x2="320" y2="72.8821" gradientTransform="matrix(1 0 0 -1 0 160)">
							<stop  offset="0" style="stop-color:#E7E7E7"/>
							<stop  offset="0.3007" style="stop-color:#EEEEEE"/>
							<stop  offset="0.7051" style="stop-color:#FFFFFF"/>
							<stop  offset="0.9899" style="stop-color:#F4F4F4"/>
						</linearGradient>
						<path id="XMLID_748_" fill="url(#XMLID_7_)" d="M365.5,87.7h-91l0,0c0.1-10.6,3.6-20.8,10-29.2l13.4-17.9h44.2l13.4,17.9
							C361.9,66.9,365.4,77.1,365.5,87.7L365.5,87.7z"/>
						<polygon id="XMLID_351_" fill="#B1B1B1" points="322.8,43.8 301.1,43.8 301.7,42.7 322.7,42.7 						"/>
						<polygon id="XMLID_350_" fill="#B1B1B1" points="308.4,50.1 297.4,50.1 298.3,48.6 308.9,48.6 						"/>
						<polygon id="XMLID_349_" fill="#B1B1B1" points="326.1,50.1 315.1,50.1 315.3,48.6 325.9,48.6 						"/>
						<polygon id="XMLID_348_" fill="#B1B1B1" points="342.9,50.1 331.9,50.1 331.5,48.6 342,48.6 						"/>
						<polygon id="XMLID_347_" fill="#B1B1B1" points="307.6,53 295.8,53 296.8,51.2 308.1,51.2 						"/>
						<polygon id="XMLID_346_" fill="#B1B1B1" points="326.5,53 314.7,53 315,51.2 326.3,51.2 						"/>
						<polygon id="XMLID_345_" fill="#FF5252" points="344.6,53 332.8,53 332.3,51.2 343.6,51.2 						"/>
						<polygon id="XMLID_344_" fill="#B1B1B1" points="306.6,56.3 293.8,56.3 295,54.2 307.2,54.2 						"/>
						<polygon id="XMLID_343_" fill="#B1B1B1" points="327.1,56.3 314.3,56.3 314.6,54.2 326.7,54.2 						"/>
						<polygon id="XMLID_342_" fill="#FF5252" points="346.5,56.3 333.8,56.3 333.2,54.2 345.3,54.2 						"/>
						<polygon id="XMLID_341_" fill="#B1B1B1" points="305.4,60.2 291.6,60.2 293,57.7 306.1,57.7 						"/>
						<polygon id="XMLID_340_" fill="#B1B1B1" points="330.4,77.8 284.1,77.8 287.6,67 328.7,67 						"/>
						<polygon id="XMLID_339_" fill="#B1B1B1" points="327.7,60.2 313.8,60.2 314.1,57.7 327.3,57.7 						"/>
						<polygon id="XMLID_338_" fill="#FF5252" points="348.8,60.2 335,60.2 334.3,57.7 347.4,57.7 						"/>
						<polygon id="XMLID_337_" fill="#FF5252" points="356.8,77.8 340.4,77.8 337.1,67 352.8,67 						"/>
						<polygon id="XMLID_336_" fill="#B1B1B1" points="339.2,43.8 327.6,43.8 327.4,42.7 338.5,42.7 						"/>
						<polygon id="XMLID_335_" fill="#B1B1B1" points="340.2,45.5 328,45.5 327.8,44.3 339.5,44.3 						"/>
						<polygon id="XMLID_334_" fill="#B1B1B1" points="310.3,45.5 300.1,45.5 300.8,44.3 310.7,44.3 						"/>
						<polygon id="XMLID_333_" fill="#B1B1B1" points="323,45.5 311.5,45.5 311.8,44.3 322.9,44.3 						"/>
					</g>
				</g>
			</g>
			
				<rect id="XMLID_239_" x="287.8" y="40.6" opacity="0.64" fill="#9F4442" enable-background="new    " width="64.3" height="2.7"/>
		</g>
		<g id="XMLID_125_">
			<path id="XMLID_126_" opacity="0.1" fill="#FFFFFF" enable-background="new    " d="M241.1,11c-4.6,0-6.8,1.9-6.8,7.1V109h20.6
				l87.8-98H241.1z"/>
		</g>
	</g>
</g>
</svg>
