<?xml version="1.0" encoding="utf-8"?>
<!-- Generator: Adobe Illustrator 18.0.0, SVG Export Plug-In . SVG Version: 6.00 Build 0)  -->
<!DOCTYPE svg PUBLIC "-//W3C//DTD SVG 1.1//EN" "http://www.w3.org/Graphics/SVG/1.1/DTD/svg11.dtd">
<svg version="1.1" id="Capa_1" xmlns="http://www.w3.org/2000/svg" xmlns:xlink="http://www.w3.org/1999/xlink" x="0px" y="0px"
	 viewBox="0 0 660 160" enable-background="new 0 0 660 160" xml:space="preserve">
<g>
	<g id="XMLID_617_">
		<path id="XMLID_568_" fill="#D1CFCD" d="M495.8,160H164.2V24.8H480c5.7,0,10.3,4.5,10.6,10.3L495.8,160z"/>
		<rect id="XMLID_410_" x="164.2" y="9.7" fill="#FFFFFF" width="319" height="150.3"/>
		<rect id="XMLID_535_" x="164.2" y="9.7" fill="#B0BEC5" width="319" height="51.8"/>
		<rect id="XMLID_62_" x="252.6" y="17.8" fill="#FFFFFF" stroke="#B0BEC5" stroke-miterlimit="10" width="213.3" height="25.5"/>
		<rect id="XMLID_64_" x="252.6" y="43.3" fill="#E3F2FD" stroke="#B0BEC5" stroke-miterlimit="10" width="213.3" height="25.5"/>
		<rect id="XMLID_65_" x="252.6" y="68.8" fill="#FFFFFF" stroke="#B0BEC5" stroke-miterlimit="10" width="213.3" height="25.5"/>
		<rect id="XMLID_66_" x="252.6" y="94.2" fill="#FFFFFF" stroke="#B0BEC5" stroke-miterlimit="10" width="213.3" height="25.5"/>
		<rect id="XMLID_67_" x="252.6" y="119.7" fill="#FFFFFF" stroke="#B0BEC5" stroke-miterlimit="10" width="213.3" height="25.5"/>
		<g id="XMLID_68_">
			<line fill="#FFFFFF" x1="276.5" y1="30.6" x2="264.6" y2="30.6"/>
			<g>
				<line fill="none" stroke="#B0BEC5" stroke-miterlimit="10" x1="276.5" y1="30.6" x2="265.7" y2="30.6"/>
				<g>
					<polygon fill="#B0BEC5" points="269,26.5 269.7,27.2 266.1,30.6 269.7,33.9 269,34.7 264.6,30.6 					"/>
				</g>
			</g>
		</g>
		<rect id="XMLID_1_" x="285.9" y="25" fill="#B0BEC5" width="71" height="10.8"/>
		<rect id="XMLID_400_" x="285.9" y="50.7" fill="#B0BEC5" width="41" height="10.8"/>
		<rect id="XMLID_401_" x="285.9" y="76.4" fill="#B0BEC5" width="51" height="10.8"/>
		<rect id="XMLID_402_" x="285.9" y="102.1" fill="#B0BEC5" width="71" height="10.8"/>
		<rect id="XMLID_403_" x="285.9" y="127.8" fill="#B0BEC5" width="51" height="10.8"/>
		<rect id="XMLID_408_" x="331.1" y="50.7" fill="#FF6666" width="72.3" height="10.8"/>
		<rect id="XMLID_406_" x="341.1" y="76.4" fill="#FF6666" width="72.3" height="10.8"/>
		<rect id="XMLID_405_" x="361.1" y="102.1" fill="#FF6666" width="36.8" height="10.8"/>
		<rect id="XMLID_404_" x="341.1" y="127.8" fill="#FF6666" width="74.7" height="10.8"/>
		<rect id="XMLID_399_" x="440.5" y="17.8" fill="#1E88E5" width="25.5" height="25.5"/>
		<path id="XMLID_116_" fill="#FFFFFF" d="M459,26.6c-0.2-0.1-0.5-0.1-0.7,0.2l-5.1,6.5l-5.1-6.5c-0.1-0.2-0.5-0.3-0.7-0.2
			c-0.1,0.1-0.2,0.3-0.2,0.4c0,0.1,0,0.2,0.1,0.3l5.5,7.1c0.1,0.1,0.3,0.2,0.4,0.2s0.3-0.1,0.4-0.2l5.5-7.1
			C459.3,27,459.2,26.7,459,26.6z"/>
		<g id="XMLID_593_">
			<g id="XMLID_594_">
				<g id="XMLID_607_">
					<path id="XMLID_608_" fill="#424A60" d="M193.2,47.7l0.2-19.4l20.3-5.6l7.3,24.6L193.2,47.7z M196.8,30.9l-0.2,13.5l20-0.3
						l-5.1-17.2L196.8,30.9z"/>
				</g>
				<g id="XMLID_604_">
					<g id="XMLID_605_">
						<circle id="XMLID_540_" fill="#FFC145" cx="194.9" cy="46" r="4.3"/>
					</g>
				</g>
				<g id="XMLID_601_">
					<g id="XMLID_602_">
						<circle id="XMLID_539_" fill="#5CCC5C" cx="195.1" cy="29.6" r="4.2"/>
					</g>
				</g>
				<g id="XMLID_598_">
					<g id="XMLID_599_">
						<circle id="XMLID_538_" fill="#1FAFFF" cx="218.8" cy="45.7" r="4.7"/>
					</g>
				</g>
				<g id="XMLID_595_">
					<g id="XMLID_596_">
						<circle id="XMLID_536_" fill="#FF6666" cx="212.6" cy="24.8" r="4.1"/>
					</g>
				</g>
			</g>
		</g>
	</g>
	<circle id="XMLID_847_" fill="#E3F2FD" stroke="#B0BEC5" stroke-miterlimit="10" cx="266.1" cy="56" r="5.4"/>
	<circle id="XMLID_889_" fill="#FFFFFF" stroke="#B0BEC5" stroke-miterlimit="10" cx="266.1" cy="81.5" r="5.4"/>
	<circle id="XMLID_890_" fill="#FFFFFF" stroke="#B0BEC5" stroke-miterlimit="10" cx="266.1" cy="107" r="5.4"/>
	<circle id="XMLID_891_" fill="#FFFFFF" stroke="#B0BEC5" stroke-miterlimit="10" cx="266.1" cy="132.4" r="5.4"/>
</g>
</svg>
