<?xml version="1.0" encoding="utf-8"?>
<!-- Generator: Adobe Illustrator 21.1.0, SVG Export Plug-In . SVG Version: 6.00 Build 0)  -->
<svg version="1.1" id="Capa_1" xmlns="http://www.w3.org/2000/svg" xmlns:xlink="http://www.w3.org/1999/xlink" x="0px" y="0px"
	 viewBox="0 0 393.6 382.1" style="enable-background:new 0 0 393.6 382.1;" xml:space="preserve">
<style type="text/css">
	.st0{opacity:0.23;}
	.st1{fill:#888787;}
</style>
<g class="st0">
	<path class="st1" d="M45.1,382.1L0,337l15.6-15.6c3-3,5.8-5.2,8.4-6.7s5.2-2.4,7.5-2.7c2.4-0.3,4.6,0,6.7,0.8
		c2.1,0.9,4.1,2.2,5.9,4.1c1.1,1.1,1.9,2.2,2.6,3.5s1.1,2.7,1.3,4.2s0.1,3.1-0.2,4.8s-0.9,3.5-1.9,5.3c7.6-4.8,14-4.6,19.3,0.7
		c1.9,1.9,3.3,4,4.2,6.4s1.2,4.8,1,7.4c-0.2,2.6-1,5.2-2.4,7.9s-3.4,5.4-6,8L45.1,382.1z M27.9,348.1l6.7-6.7c2.8-2.8,4.5-5.5,4.9-8
		s-0.5-4.9-2.7-7.2c-2.3-2.3-4.7-3.4-7-3c-2.3,0.3-4.9,1.9-7.7,4.7l-7.2,7.2L27.9,348.1z M33.7,353.9l13.2,13.2l8.5-8.5
		c1.6-1.6,2.7-3.1,3.4-4.5s1-2.8,1-4c0-1.3-0.3-2.4-0.8-3.6s-1.3-2.1-2.2-3.1c-1-1-2-1.7-3.1-2.2s-2.2-0.6-3.5-0.5
		c-1.2,0.1-2.5,0.5-3.8,1.3c-1.3,0.7-2.7,1.9-4.2,3.3L33.7,353.9z"/>
	<path class="st1" d="M106.4,275.6c3.3,3.3,5.8,6.9,7.5,10.8s2.6,7.9,2.7,12c0.1,4.1-0.7,8.1-2.4,12c-1.7,4-4.2,7.6-7.6,11.1
		s-7.1,5.9-11.1,7.6c-4,1.7-8,2.5-12.1,2.4s-8.1-0.9-12-2.7c-3.9-1.7-7.5-4.2-10.8-7.5s-5.8-6.9-7.5-10.8c-1.7-3.9-2.6-7.9-2.7-12
		c-0.1-4.1,0.8-8.1,2.4-12.1c1.7-4,4.2-7.7,7.6-11.1s7.1-5.9,11.1-7.6s8-2.4,12-2.4c4,0.1,8,0.9,11.9,2.7
		C99.5,269.8,103.1,272.3,106.4,275.6z M97.8,284.2c-2.5-2.5-5-4.4-7.6-5.7s-5.2-2-7.8-2.2s-5.1,0.3-7.6,1.3s-4.8,2.6-7,4.9
		s-3.8,4.6-4.9,7c-1,2.5-1.5,5-1.4,7.7s0.9,5.2,2.2,7.9c1.3,2.6,3.2,5.2,5.7,7.7s5,4.4,7.7,5.7c2.6,1.3,5.2,2,7.8,2.1
		s5.1-0.3,7.6-1.4c2.5-1,4.8-2.7,7-4.9s3.8-4.5,4.8-7s1.5-5,1.3-7.6s-0.9-5.2-2.2-7.8C102.2,289.3,100.3,286.7,97.8,284.2z"/>
	<path class="st1" d="M126.7,265.3l17.6,17.6l-8.4,8.4l-45.1-45.1l13.8-13.8c3.1-3.1,6-5.4,8.9-7s5.5-2.5,8.1-2.7
		c2.5-0.3,4.9,0.1,7.2,1c2.3,0.9,4.3,2.4,6.2,4.3c1.5,1.5,2.7,3.2,3.6,5s1.5,3.7,1.7,5.6c0.3,1.9,0.2,4-0.2,6
		c-0.4,2.1-1.1,4.1-2.2,6.2c1.7-0.5,3.4-0.5,5.3-0.2l27.9,5.4l-7.5,7.5c-0.7,0.7-1.5,1.2-2.3,1.4c-0.8,0.2-1.6,0.2-2.5,0l-23.9-5
		c-0.9-0.2-1.7-0.2-2.3,0c-0.7,0.2-1.4,0.7-2.2,1.5L126.7,265.3z M120.6,259.3l5.2-5.2c1.6-1.6,2.8-3.2,3.5-4.7
		c0.8-1.6,1.2-3.1,1.3-4.5c0.1-1.5-0.2-2.8-0.8-4.2c-0.6-1.3-1.4-2.6-2.6-3.7c-2.3-2.3-4.8-3.3-7.5-3s-5.7,2-8.7,5.1l-5.4,5.4
		L120.6,259.3z"/>
	<path class="st1" d="M167.5,224.4l17.6,17.6l-8.4,8.4l-45.1-45.1l13.8-13.8c3.1-3.1,6-5.4,8.9-7c2.8-1.6,5.5-2.5,8.1-2.7
		c2.5-0.3,4.9,0.1,7.2,1c2.2,0.9,4.3,2.4,6.2,4.3c1.5,1.5,2.7,3.2,3.6,5s1.5,3.7,1.7,5.6c0.3,1.9,0.2,4-0.2,6
		c-0.4,2.1-1.1,4.1-2.2,6.2c1.7-0.5,3.4-0.5,5.3-0.2l27.9,5.4l-7.5,7.5c-0.7,0.7-1.5,1.2-2.3,1.4c-0.8,0.2-1.6,0.2-2.5,0l-23.9-5
		c-0.9-0.2-1.7-0.2-2.3,0c-0.7,0.2-1.4,0.7-2.2,1.5L167.5,224.4z M161.5,218.4l5.2-5.2c1.6-1.6,2.8-3.2,3.5-4.7
		c0.8-1.6,1.2-3.1,1.3-4.5c0.1-1.5-0.2-2.8-0.8-4.2s-1.4-2.6-2.6-3.7c-2.3-2.3-4.8-3.3-7.5-3s-5.7,2-8.8,5.1l-5.4,5.4L161.5,218.4z"
		/>
	<path class="st1" d="M257,170.2l-6.5,6.5c-0.7,0.7-1.5,1.1-2.3,1.2s-1.6,0-2.4-0.3l-12.6-5.8l-18.7,18.7l5.8,12.6
		c0.3,0.6,0.4,1.4,0.3,2.3s-0.5,1.7-1.2,2.4l-6.5,6.5l-27.3-62.9l8.6-8.6L257,170.2z M210.7,182.4l14.4-14.4l-20.5-9.5
		c-0.9-0.4-2-0.9-3.2-1.5s-2.5-1.3-3.8-2.1c0.8,1.4,1.5,2.6,2.1,3.8c0.6,1.2,1.2,2.3,1.6,3.2L210.7,182.4z"/>
	<path class="st1" d="M279.1,102.9c3.3,3.3,5.8,6.9,7.5,10.8s2.5,7.8,2.5,11.8s-0.9,7.9-2.6,11.9c-1.7,3.9-4.3,7.6-7.7,11
		l-17.2,17.2l-45.1-45.1l17.2-17.2c3.4-3.4,7.1-6,11-7.7s7.9-2.5,11.9-2.6c4,0,7.9,0.8,11.8,2.5C272.2,97.2,275.8,99.6,279.1,102.9z
		 M270.5,111.5c-2.5-2.5-5-4.4-7.7-5.7c-2.6-1.3-5.2-2-7.8-2.2c-2.6-0.1-5.1,0.3-7.6,1.3s-4.8,2.6-7,4.9l-8.8,8.8l31.8,31.8l8.8-8.8
		c2.2-2.2,3.8-4.5,4.8-7s1.5-5,1.3-7.6s-0.9-5.2-2.2-7.8C274.9,116.6,273,114,270.5,111.5z"/>
	<path class="st1" d="M329,53.1c3.3,3.3,5.8,6.9,7.5,10.8s2.6,7.9,2.7,12s-0.7,8.1-2.4,12c-1.7,4-4.2,7.6-7.6,11.1
		s-7.1,5.9-11.1,7.6s-8,2.5-12.1,2.4s-8.1-0.9-12-2.7s-7.5-4.2-10.8-7.5s-5.8-6.9-7.5-10.8s-2.6-7.9-2.7-12s0.8-8.1,2.4-12.1
		c1.7-4,4.2-7.7,7.6-11.1s7.1-5.9,11.1-7.6c4-1.6,8-2.4,12-2.4c4,0.1,8,0.9,11.9,2.7C322,47.3,325.7,49.8,329,53.1z M320.4,61.7
		c-2.5-2.5-5-4.4-7.6-5.7c-2.6-1.3-5.2-2-7.8-2.2c-2.6-0.1-5.1,0.3-7.6,1.3s-4.8,2.6-7,4.9c-2.2,2.2-3.8,4.6-4.9,7
		c-1,2.5-1.5,5-1.4,7.7c0.1,2.6,0.9,5.2,2.2,7.9c1.3,2.6,3.2,5.2,5.7,7.7s5,4.4,7.7,5.7c2.6,1.3,5.2,2,7.8,2.1
		c2.6,0.1,5.1-0.3,7.6-1.4c2.5-1,4.8-2.7,7-4.9c2.2-2.2,3.8-4.5,4.9-7c1-2.5,1.5-5,1.3-7.6c-0.1-2.6-0.9-5.2-2.2-7.8
		C324.7,66.7,322.8,64.2,320.4,61.7z"/>
	<path class="st1" d="M349.2,42.7l17.6,17.6l-8.4,8.4l-45.1-45.1l13.8-13.8c3.1-3.1,6-5.4,8.9-7c2.8-1.6,5.5-2.5,8.1-2.7
		c2.5-0.3,4.9,0.1,7.2,1c2.2,0.9,4.3,2.4,6.2,4.3c1.5,1.5,2.7,3.2,3.6,5s1.5,3.7,1.7,5.6s0.2,4-0.2,6c-0.4,2.1-1.2,4.1-2.2,6.2
		c1.7-0.5,3.4-0.5,5.3-0.2l27.9,5.5l-7.5,7.5c-0.7,0.7-1.5,1.2-2.3,1.4c-0.8,0.2-1.6,0.2-2.5,0l-23.9-5c-0.9-0.2-1.7-0.2-2.3,0
		c-0.7,0.2-1.4,0.7-2.2,1.5L349.2,42.7z M343.2,36.7l5.2-5.2c1.6-1.6,2.8-3.2,3.5-4.7c0.8-1.6,1.2-3.1,1.3-4.5s-0.2-2.8-0.8-4.2
		c-0.6-1.3-1.4-2.6-2.6-3.7c-2.3-2.3-4.8-3.3-7.5-3s-5.7,2-8.7,5.1l-5.4,5.4L343.2,36.7z"/>
</g>
</svg>
