<?xml version="1.0" encoding="utf-8"?>
<!-- Generator: Adobe Illustrator 18.0.0, SVG Export Plug-In . SVG Version: 6.00 Build 0)  -->
<!DOCTYPE svg PUBLIC "-//W3C//DTD SVG 1.1//EN" "http://www.w3.org/Graphics/SVG/1.1/DTD/svg11.dtd">
<svg version="1.1" id="Capa_1" xmlns="http://www.w3.org/2000/svg" xmlns:xlink="http://www.w3.org/1999/xlink" x="0px" y="0px"
	 viewBox="0 0 660 160" enable-background="new 0 0 660 160" xml:space="preserve">
<defs>
	<filter id="Adobe_OpacityMaskFilter" filterUnits="userSpaceOnUse" x="234.8" y="8.3" width="190.4" height="218.5">
		<feColorMatrix  type="matrix" values="1 0 0 0 0  0 1 0 0 0  0 0 1 0 0  0 0 0 1 0"/>
	</filter>
</defs>
<mask maskUnits="userSpaceOnUse" x="234.8" y="8.3" width="190.4" height="218.5" id="SVGID_1_">
	<g filter="url(#Adobe_OpacityMaskFilter)">
		<rect x="-95.9" y="0.1" fill="#FFFFFF" width="660" height="160"/>
	</g>
</mask>
<g mask="url(#SVGID_1_)">
	<g>
		<path fill="#DDB397" d="M320.2,97.5c2.8-1.8,6.3,2.9,6.3,2.9c1.6,3.4-0.5,5.8-0.5,5.8c-1.9,0.2-2.1-0.8-2.1-0.8
			c-0.9-2.6-5.8-3.6-5.8-3.6L320.2,97.5z"/>
		<path fill="#F1D2BC" d="M321.1,96.9c0,0,0.6-0.8,1.5-0.4c0,0,0.1-0.1,0.1,1.3c0,1.5-0.1,1.4-0.1,1.4l0,0c-0.5,0.3-1.2-0.1-1.4-0.9
			l-0.1-0.2V96.9z"/>
		<polygon fill="#5B5B5B" points="272.4,56.6 285.8,84 318.6,101.9 321.6,97.1 295.4,75.6 287.2,47.8 		"/>
		<polygon fill="#F1D2BC" points="321.4,103 322.4,102.7 323.1,103 323.1,105.2 321.1,103.2 		"/>
		<rect x="322.5" y="96" fill="#FFA726" width="3.2" height="42.9"/>
		<rect x="323.3" y="96" fill="#F6F6F6" width="1.8" height="42.9"/>
		<rect x="302.9" y="94.3" fill="#FBCD59" width="0.7" height="1.6"/>
		<g>
			<g>
				<rect x="281.5" y="122.8" fill="#FFA726" width="3.2" height="42.9"/>
				<rect x="282.2" y="122.8" fill="#F6F6F6" width="1.8" height="42.9"/>
				<rect x="283.9" y="121.2" fill="#FFA726" width="0.7" height="1.6"/>
				<rect x="284.7" y="122.8" fill="#FFA726" width="3.2" height="42.9"/>
				<rect x="285.3" y="122.8" fill="#F6F6F6" width="1.8" height="42.9"/>
				<rect x="287.1" y="121.2" fill="#FFA726" width="0.7" height="1.6"/>
				<rect x="287.8" y="122.8" fill="#FFA726" width="3.2" height="42.9"/>
				<rect x="288.5" y="122.8" fill="#F6F6F6" width="1.8" height="42.9"/>
				<rect x="290.2" y="121.2" fill="#FFA726" width="0.7" height="1.6"/>
				<rect x="290.9" y="122.8" fill="#FFA726" width="3.2" height="42.9"/>
				<rect x="291.7" y="122.8" fill="#F6F6F6" width="1.8" height="42.9"/>
				<rect x="293.4" y="121.2" fill="#FFA726" width="0.7" height="1.6"/>
				<rect x="294.1" y="122.8" fill="#FFA726" width="3.2" height="42.9"/>
				<rect x="294.8" y="122.8" fill="#F6F6F6" width="1.8" height="42.9"/>
				<rect x="296.5" y="121.2" fill="#FFA726" width="0.7" height="1.6"/>
				<rect x="297.3" y="122.8" fill="#FFA726" width="3.2" height="42.9"/>
				<rect x="298" y="122.8" fill="#F6F6F6" width="1.8" height="42.9"/>
				<rect x="299.7" y="121.2" fill="#FFA726" width="0.7" height="1.6"/>
				<rect x="300.4" y="122.8" fill="#FFA726" width="3.2" height="42.9"/>
				<rect x="301.2" y="122.8" fill="#F6F6F6" width="1.8" height="42.9"/>
				<rect x="302.9" y="121.2" fill="#FFA726" width="0.7" height="1.6"/>
				<rect x="303.6" y="122.8" fill="#FFA726" width="3.2" height="42.9"/>
				<rect x="304.3" y="122.8" fill="#F6F6F6" width="1.8" height="42.9"/>
				<rect x="306" y="121.2" fill="#FFA726" width="0.7" height="1.6"/>
				<rect x="306.8" y="122.8" fill="#FFA726" width="3.2" height="42.9"/>
				<rect x="307.4" y="122.8" fill="#F6F6F6" width="1.8" height="42.9"/>
				<rect x="309.2" y="121.2" fill="#FFA726" width="0.7" height="1.6"/>
				<rect x="309.9" y="122.8" fill="#FFA726" width="3.2" height="42.9"/>
				<rect x="310.6" y="122.8" fill="#F6F6F6" width="1.8" height="42.9"/>
				<rect x="312.4" y="121.2" fill="#FFA726" width="0.7" height="1.6"/>
				<rect x="313.1" y="122.8" fill="#FFA726" width="3.2" height="42.9"/>
				<rect x="313.8" y="122.8" fill="#F6F6F6" width="1.8" height="42.9"/>
				<rect x="315.5" y="121.2" fill="#FFA726" width="0.7" height="1.6"/>
				<rect x="316.2" y="122.8" fill="#FFA726" width="3.2" height="42.9"/>
				<rect x="316.9" y="122.8" fill="#F6F6F6" width="1.8" height="42.9"/>
				<rect x="318.6" y="121.2" fill="#FFA726" width="0.7" height="1.6"/>
				<rect x="319.4" y="122.8" fill="#FFA726" width="3.2" height="42.9"/>
				<rect x="320.1" y="122.8" fill="#F6F6F6" width="1.8" height="42.9"/>
				<rect x="321.8" y="121.2" fill="#FFA726" width="0.7" height="1.6"/>
				<rect x="322.5" y="122.8" fill="#FFA726" width="3.2" height="42.9"/>
				<rect x="323.3" y="122.8" fill="#F6F6F6" width="1.8" height="42.9"/>
				<rect x="325" y="121.2" fill="#FFA726" width="0.7" height="1.6"/>
				<rect x="325.7" y="122.8" fill="#FFA726" width="3.2" height="42.9"/>
				<rect x="326.4" y="122.8" fill="#F6F6F6" width="1.8" height="42.9"/>
				<rect x="328.1" y="121.2" fill="#FFA726" width="0.7" height="1.6"/>
				<rect x="328.9" y="122.8" fill="#FFA726" width="3.2" height="42.9"/>
				<rect x="329.6" y="122.8" fill="#F6F6F6" width="1.8" height="42.9"/>
				<rect x="331.3" y="121.2" fill="#FFA726" width="0.7" height="1.6"/>
				<rect x="332" y="122.8" fill="#FFA726" width="3.2" height="42.9"/>
				<rect x="332.7" y="122.8" fill="#F6F6F6" width="1.8" height="42.9"/>
				<rect x="334.5" y="121.2" fill="#FFA726" width="0.7" height="1.6"/>
				<rect x="335.2" y="122.8" fill="#FFA726" width="3.2" height="42.9"/>
				<rect x="335.9" y="122.8" fill="#F6F6F6" width="1.8" height="42.9"/>
				<rect x="337.6" y="121.2" fill="#FFA726" width="0.7" height="1.6"/>
				<rect x="338.4" y="122.8" fill="#FFA726" width="3.2" height="42.9"/>
				<rect x="339" y="122.8" fill="#F6F6F6" width="1.8" height="42.9"/>
				<rect x="340.7" y="121.2" fill="#FFA726" width="0.7" height="1.6"/>
			</g>
			<rect x="341.2" y="58" fill="#EEEEEE" width="84" height="166.7"/>
			<rect x="280.8" y="146.3" fill="#C3C3C3" width="60.5" height="19.5"/>
			<rect x="280.8" y="125.1" fill="#C3C3C3" width="60.5" height="8.9"/>
			<rect x="280.8" y="129" fill="#D2D2D2" width="60.5" height="1.2"/>
			<rect x="278.8" y="120.9" fill="#D7D7D7" width="2" height="47.6"/>
			<rect x="339.2" y="69" fill="#D7D7D7" width="2" height="47.6"/>
			<rect x="339.2" y="170.6" fill="#D7D7D7" width="2" height="47.6"/>
			<rect x="276.3" y="146.5" fill="#EEEEEE" width="2.5" height="3"/>
			<rect x="336.7" y="91.3" fill="#EEEEEE" width="2.5" height="3"/>
			<rect x="336.7" y="193" fill="#EEEEEE" width="2.5" height="3"/>
			<rect x="280.8" y="162.7" fill="#1E1E1E" width="60.5" height="2.4"/>
			<rect x="280.8" y="162.9" fill="#353535" width="60.5" height="1.9"/>
			<rect x="280.8" y="162.5" fill="#1E1E1E" width="30.3" height="2.7"/>
			<rect x="280.8" y="162.7" fill="#353535" width="30.3" height="2.4"/>
			<circle fill="#EEEEEE" cx="282.3" cy="163.8" r="0.5"/>
			<circle fill="#EEEEEE" cx="339.8" cy="163.8" r="0.5"/>
			<path fill="#2D2D2D" d="M347.7,226.8h-0.9c-1.2,0-2.1-1-2.1-2.1l0,0h5.2l0,0C349.8,225.9,348.8,226.8,347.7,226.8z"/>
			<path fill="#2D2D2D" d="M421.6,226.8h-0.9c-1.2,0-2.1-1-2.1-2.1l0,0h5.2l0,0C423.7,225.9,422.7,226.8,421.6,226.8z"/>
		</g>
		<path fill="#DBB79E" d="M276.5,36.2c0,0,7-2.9,12.2-7.7l3.7,0.7l1,8.1l1.2,2.1c0,0-1.9,1.3-1.9,6l-5.6-1.9l-9.3-6.3L276.5,36.2z"
			/>
		<path fill="#F1D2BC" d="M314.5,25.9c0.5,8.3-5.7,15.4-13.9,16c-1.5,0.1-3,0-4.5-0.4c-6.2-1.5-11-6.9-11.5-13.5
			c-0.5-8.3,5.7-15.4,13.9-16C306.8,11.4,314,17.6,314.5,25.9z"/>
		<path fill="#5B5B5B" d="M245.1,214.6h9.2l-0.6-33.5c-0.1-3,0-5.9,0.1-9l3.2-62.7l-15-0.1l-2,66.8L245.1,214.6z"/>
		<path fill="#161616" d="M245.3,213.1h26l-0.5-1.3c0,0-7.1-1.7-16.7-5.9h-10.3v7.2L245.3,213.1L245.3,213.1z"/>
		<path fill="#6B6B6B" d="M241,214.5h9.2l-0.6-33.5c-0.1-3,0-5.9,0.1-9l1.7-33.2l1.5-29.5l-15-0.1l-2,66.8L241,214.5z"/>
		<path fill="#7F7F7F" d="M261.6,109.3L261.6,109.3c-8.4,1.3-16.9,1.3-25.3,0.2l-1.5-0.2l1.6-6.9c34.8-73.9,45.4-69.6,47.3-68.3
			l9,11.4c3.3,9.8,0.2,20.9-5.1,26.3c-12.1,12.4-15.6,18.9-24,34.2L261.6,109.3z"/>
		<path fill="#262626" d="M242,218.3h26.1l-0.5-1.3c0,0-7.5-1.7-17.2-5.9h-9.9v7.2L242,218.3L242,218.3z"/>
		<path fill="#D3D3D3" d="M280.9,35.3c0,0,15,22.6,8,34.5c0,0,8.8-9.2,3.6-24.5l-11.1-12L280.9,35.3z"/>
		<polygon fill="#E9E9E9" points="279.6,33.6 284.5,30.5 295.7,45.9 293.1,51.9 		"/>
		<ellipse fill="#6B6B6B" cx="279.1" cy="55.2" rx="9.1" ry="9.1"/>
		<path fill="#F72F2F" d="M293.9,50.3c0,0,2.9,10-4.8,19.6l0.2-1.7c0,0,4.5-3.8,3.9-16.2L293.9,50.3z"/>
		<polygon fill="#F6F6F6" points="318.6,101.9 322.1,96.3 319.5,94.8 316.5,100.3 		"/>
		<polygon fill="#6B6B6B" points="273.3,62.2 286.7,89.6 317.2,105.9 321.4,103 296.3,81.3 288,53.4 		"/>
		<polygon fill="#DD1212" points="293.1,51.9 294.3,53.7 294.5,51.6 293.9,50.3 		"/>
		<path fill="#282332" d="M308.2,27l6.2,4.9l0.2-0.4c1.9-4.2,1.8-9.1-0.5-13.1l-1.6-2.8c-2.4-4.2-6.8-7-11.7-7.2l-0.9-0.1
			c-3.9-0.2-7.7,1.3-10.5,4l-1.4,1.4c-2,1.9-3.3,4.4-4,7.2l-0.7,3.3l-4.5,2.7l4.1,3.3c0.9,0.7,2.2,0.5,2.9-0.3l1.5-1.9
			c0,0,3-14,6.3-2.4l9.8-2.2l2.2,1.4c0,0-6,3.3-10.5,3.1C295.1,27.8,295.1,30.8,308.2,27z"/>
		<circle fill="#282332" cx="305.6" cy="33.6" r="1.2"/>
		<polygon fill="#F1D2BC" points="308.8,38.7 306,42.6 304.5,39.1 		"/>
		<path fill="#F1D2BC" d="M317.2,105.9c-0.7,3.3,5.8,6.9,5.8,6.9c3.8,0.3,3.8-2.6,3.8-2.6c0.2-3.2-0.7-3.6-0.7-3.6
			c-2.7,0.2-4.7-3.5-4.7-3.5L317.2,105.9z"/>
		<polygon fill="#F6F6F6" points="321.4,103 317.2,105.9 315.3,105.1 319.8,101.5 		"/>
	</g>
</g>
</svg>
