<?xml version="1.0" encoding="UTF-8" standalone="no"?>
<!-- Generator: Adobe Illustrator 16.0.0, SVG Export Plug-In . SVG Version: 6.00 Build 0)  -->

<svg
   xmlns:dc="http://purl.org/dc/elements/1.1/"
   xmlns:cc="http://creativecommons.org/ns#"
   xmlns:rdf="http://www.w3.org/1999/02/22-rdf-syntax-ns#"
   xmlns:svg="http://www.w3.org/2000/svg"
   xmlns="http://www.w3.org/2000/svg"
   xmlns:sodipodi="http://sodipodi.sourceforge.net/DTD/sodipodi-0.dtd"
   xmlns:inkscape="http://www.inkscape.org/namespaces/inkscape"
   version="1.1"
   id="cog1"
   x="0px"
   y="0px"
   width="150"
   height="150"
   viewBox="0 0 150 150"
   enable-background="new 0 0 96 96"
   xml:space="preserve"
   inkscape:version="0.48.4 r9939"
   sodipodi:docname="loader-colmena.svg"><metadata
     id="metadata9"><rdf:RDF><cc:Work
         rdf:about=""><dc:format>image/svg+xml</dc:format><dc:type
           rdf:resource="http://purl.org/dc/dcmitype/StillImage" /><dc:title></dc:title></cc:Work></rdf:RDF></metadata><defs
     id="defs7" /><sodipodi:namedview
     pagecolor="#ffffff"
     bordercolor="#666666"
     borderopacity="1"
     objecttolerance="10"
     gridtolerance="10"
     guidetolerance="10"
     inkscape:pageopacity="0"
     inkscape:pageshadow="2"
     inkscape:window-width="1680"
     inkscape:window-height="967"
     id="namedview5"
     showgrid="false"
     inkscape:zoom="1"
     inkscape:cx="106.08346"
     inkscape:cy="80.60636"
     inkscape:window-x="0"
     inkscape:window-y="27"
     inkscape:window-maximized="1"
     inkscape:current-layer="cog1" /><g
     id="g4141"
     transform="translate(-21.999998,69.51472)"
     inkscape:export-filename="/home/rsk/desarrollo/colmena/src/assets/images/loader-colmena.png"
     inkscape:export-xdpi="96"
     inkscape:export-ydpi="96"><g
       style="opacity:0.5;fill:#000000"
       id="g4026"
       transform="translate(889.35937,60.78123)"><g
         style="fill:#000000"
         id="g4012"><path
           inkscape:connector-curvature="0"
           id="path3958"
           d="m -841.28125,-44.09375 c -6.28961,0.05854 -11.64708,3.450297 -14.09375,8.3125 -3.26274,1.528469 -5.57493,4.755807 -5.625,8.46875 0.0501,0.138854 0.0544,0.315073 0,0.46875 -2.08754,0.723166 -3.59431,2.642547 -3.65625,4.96875 0.0619,1.516067 0.77611,2.926488 1.90625,3.9375 -2.10132,0.67537 -3.60948,2.56595 -3.53125,4.84375 -0.0782,1.796193 0.90378,3.382292 2.40625,4.375 -1.64326,0.854305 -2.6812,2.506594 -2.71875,4.40625 0.0376,1.8759077 1.06693,3.49815199 2.5625,4.37499999 -1.4161,0.98787071 -2.52495,2.65028631 -2.5625,4.40625001 0.0376,1.777877 0.93527,3.295827 2.25,4.21875 -1.63512,0.921724 -2.8118,2.654967 -2.875,4.6875 0.0632,2.814833 2.5275,5.167485 5.59375,5.15625 l 40.53125,0 c 3.1001,0.01124 5.56427,-2.341417 5.59375,-5.15625 -0.0295,-2.032533 -1.20608,-3.765776 -2.875,-4.6875 1.34853,-0.922923 2.24679,-2.440873 2.25,-4.21875 -0.003,-1.7559637 -1.11256,-3.4183793 -2.5625,-4.40625001 1.52939,-0.876848 2.55929,-2.49909289 2.5625,-4.37499999 -0.003,-1.899656 -1.04102,-3.551945 -2.71875,-4.40625 1.53692,-0.992708 2.51428,-2.578807 2.5625,-4.375 -0.0482,-2.2778 -1.5524,-4.16838 -3.6875,-4.84375 1.16464,-1.011012 1.87807,-2.421433 1.90625,-3.9375 -0.0282,-2.326203 -1.56619,-4.245584 -3.6875,-4.96875 -0.02,-0.153677 -0.0157,-0.329896 0,-0.46875 -0.0157,-3.712943 -2.29724,-6.940281 -5.59375,-8.46875 -2.41239,-4.862203 -7.77428,-8.253964 -13.9375,-8.3125 z"
           style="fill:#000000;fill-rule:nonzero" /></g></g><path
       id="path12461"
       d="m 48.078125,16.68748 c -6.28961,0.05854 -11.64708,3.450297 -14.09375,8.3125 -3.26274,1.528469 -5.57493,4.755807 -5.625,8.46875 0.0501,0.138854 0.0544,0.315073 0,0.46875 -2.08754,0.723166 -3.59431,2.642547 -3.65625,4.96875 0.0619,1.516067 0.77611,2.926488 1.90625,3.9375 -2.10132,0.67537 -3.60948,2.56595 -3.53125,4.84375 -0.0782,1.796193 0.90378,3.382292 2.40625,4.375 -1.64326,0.854305 -2.6812,2.506594 -2.71875,4.40625 0.0376,1.875908 1.06693,3.498152 2.5625,4.375 -1.4161,0.98787 -2.52495,2.65029 -2.5625,4.40625 0.0376,1.77788 0.93527,3.29583 2.25,4.21875 -1.63512,0.92172 -2.8118,2.65497 -2.875,4.6875 0.0632,2.81483 2.5275,5.16748 5.59375,5.15625 l 40.53125,0 c 3.1001,0.0112 5.56427,-2.34142 5.59375,-5.15625 -0.0295,-2.03253 -1.20608,-3.76578 -2.875,-4.6875 1.34853,-0.92292 2.24679,-2.44087 2.25,-4.21875 -0.003,-1.75596 -1.11256,-3.41838 -2.5625,-4.40625 1.52939,-0.876848 2.55929,-2.499093 2.5625,-4.375 -0.003,-1.899656 -1.04102,-3.551945 -2.71875,-4.40625 1.53692,-0.992708 2.51428,-2.578807 2.5625,-4.375 -0.0482,-2.2778 -1.5524,-4.16838 -3.6875,-4.84375 1.16464,-1.011012 1.87807,-2.421433 1.90625,-3.9375 -0.0282,-2.326203 -1.56619,-4.245584 -3.6875,-4.96875 -0.02,-0.153677 -0.0157,-0.329896 0,-0.46875 -0.0157,-3.712943 -2.29724,-6.940281 -5.59375,-8.46875 -2.41239,-4.862203 -7.77428,-8.253964 -13.9375,-8.3125 z m 0,1.5 c 4.89543,0.05143 9.2185,2.628934 11.53125,6.375 l -23.21875,0 c 2.34655,-3.746066 6.66632,-6.32357 11.6875,-6.375 z m -12.5,8.03125 25,0 c 3.05622,1.088304 5.28825,3.905824 5.28125,7.25 0.007,0.0413 0.006,0.11072 0,0.15625 l -35.71875,0 c 0.0275,-0.04553 0.0269,-0.11495 0,-0.15625 0.0269,-3.344176 2.25489,-6.161696 5.4375,-7.25 z m -5.125,9.0625 35.25,0 c 2.03625,0 3.737,1.597834 3.6875,3.625 0.0495,1.927336 -1.65125,3.55143 -3.6875,3.5 l -35.25,0 c -2.16265,0.05143 -3.85935,-1.572664 -3.84375,-3.5 -0.0157,-2.027166 1.6811,-3.625 3.84375,-3.625 z m -1.75,8.78125 38.75,0 c 2.01622,0.03252 3.71698,1.630201 3.6875,3.625 0.0295,1.959855 -1.67128,3.55769 -3.6875,3.625 l -38.75,0 c -2.14262,-0.06731 -3.83937,-1.665145 -3.84375,-3.625 0.004,-1.994799 1.70113,-3.592477 3.84375,-3.625 z m -0.34375,8.78125 39.25,0 c 2.06124,0.06504 3.762,1.662724 3.6875,3.625 0.0745,1.992375 -1.62626,3.59021 -3.6875,3.625 l -39.25,0 c -2.02684,-0.0348 -3.69635,-1.632625 -3.65625,-3.625 -0.04,-1.962276 1.62941,-3.55996 3.65625,-3.625 z m 0,8.90625 39.25,0 c 2.06124,-0.0537 3.762,1.57025 3.6875,3.5 0.0745,2.02485 -1.62626,3.62264 -3.6875,3.625 l -39.25,0 c -2.02684,-0.002 -3.69635,-1.60015 -3.65625,-3.625 -0.04,-1.92975 1.62941,-3.5537 3.65625,-3.5 z m -0.46875,8.78125 12.65625,0 c -0.27602,0.69011 -0.39057,1.43337 -0.46875,2.28125 l 0,4.8125 -12.1875,0 c -2.16139,0.0301 -3.85813,-1.56265 -3.84375,-3.46875 -0.0144,-2.04849 1.68236,-3.64627 3.84375,-3.625 z m 27.875,0 12.5,0 c 2.03497,-0.0213 3.73571,1.57651 3.6875,3.625 0.0482,1.9061 -1.65253,3.49888 -3.6875,3.46875 l -12.1875,0 0,-4.8125 c 6.4e-4,-0.84788 -0.11786,-1.59114 -0.3125,-2.28125 z"
       style="fill:#ffffff;fill-rule:nonzero"
       inkscape:connector-curvature="0" /></g><g
     id="g2991"
     transform="translate(-2017.2327,-445.48161)"><title
       id="title2993">Layer 1</title><g
       id="g12457" /></g><g
     transform="translate(34.2435,-80.493984)"
     id="g2988"
     inkscape:export-filename="/home/rsk/desarrollo/colmena/src/assets/images/loader-bee.png"
     inkscape:export-xdpi="96"
     inkscape:export-ydpi="96"><path
       inkscape:connector-curvature="0"
       style="opacity:0.5;fill:#000000;fill-rule:nonzero"
       d="m 90.51798,104.91402 c -0.970927,0.006 -2.069415,0.26637 -3.123425,0.71578 -1.907725,0.8797 -3.229934,2.43933 -3.318639,3.77414 -0.393593,0.18834 -0.682864,0.25891 -0.97607,0.32536 -0.285211,0.18834 -0.518905,0.33209 -0.650714,0.58564 -1.413683,-0.88347 -3.60108,-0.92158 -5.726271,0 -2.592859,1.15655 -4.057517,3.58988 -3.318639,5.40092 0.996706,1.70521 3.917691,2.134 6.702341,0.911 0.310219,-0.13889 0.656857,-0.36157 0.976071,-0.65071 0.086,0.2252 0.174287,0.40724 0.325356,0.65071 1.272942,2.64034 4.269598,4.06567 6.70235,3.1885 2.190229,-1.1578 2.931064,-4.2275 1.626784,-6.96264 -0.119731,-0.14899 -0.180742,-0.33389 -0.325357,-0.32536 0.456,-0.25953 0.890822,-0.35445 1.366499,-0.58564 2.619221,-1.13197 4.084857,-3.56532 3.318639,-5.40092 -0.606694,-1.0504 -1.960699,-1.63611 -3.578925,-1.62678 z"
       id="path4084" /><g
       id="g2984"><g
         style="fill:#ffffff"
         transform="matrix(2.0822834,0,0,2.0822834,1544.147,98.927451)"
         id="g3878"><path
           id="path12463"
           d="m -698.09375,2.875 c -0.46628,0.0027 -0.99382,0.127924 -1.5,0.34375 -0.91617,0.422468 -1.55115,1.171466 -1.59375,1.8125 -0.18902,0.09045 -0.32794,0.12434 -0.46875,0.15625 -0.13697,0.09045 -0.2492,0.159487 -0.3125,0.28125 -0.67891,-0.424279 -1.72939,-0.442581 -2.75,0 -1.2452,0.555423 -1.94859,1.724013 -1.59375,2.59375 0.47866,0.818915 1.88144,1.024838 3.21875,0.4375 0.14898,-0.0667 0.31545,-0.173642 0.46875,-0.3125 0.0413,0.108151 0.0837,0.195576 0.15625,0.3125 0.61132,1.268002 2.05044,1.952506 3.21875,1.53125 1.05184,-0.556025 1.40762,-2.030223 0.78125,-3.34375 -0.0575,-0.07155 -0.0868,-0.16035 -0.15625,-0.15625 0.21899,-0.12464 0.42781,-0.170224 0.65625,-0.28125 1.25786,-0.543622 1.96172,-1.712216 1.59375,-2.59375 -0.29136,-0.504448 -0.94161,-0.785727 -1.71875,-0.78125 z m -0.53125,0.65625 c 0.63544,-0.06292 1.21031,0.124432 1.4375,0.59375 0.24349,0.480395 -0.23896,1.229699 -1.125,1.65625 -0.84039,0.333224 -1.74146,0.183176 -2.0625,-0.3125 -0.22523,-0.610327 0.25642,-1.364626 1.125,-1.8125 0.21462,-0.07801 0.41319,-0.104027 0.625,-0.125 z m -5.125,2.25 c 0.63334,-0.07353 1.20609,0.105842 1.4375,0.46875 0.23774,0.622128 -0.24393,1.376422 -1.125,1.8125 -0.84536,0.323843 -1.74708,0.173796 -2.0625,-0.3125 -0.23085,-0.619855 0.25145,-1.374149 1.125,-1.8125 0.21322,-0.08036 0.41389,-0.131741 0.625,-0.15625 z"
           style="fill:#ffffff;fill-rule:nonzero"
           inkscape:connector-curvature="0" /></g></g></g></svg>
