<?xml version="1.0" encoding="utf-8"?>
<!-- Generator: Adobe Illustrator 18.0.0, SVG Export Plug-In . SVG Version: 6.00 Build 0)  -->
<!DOCTYPE svg PUBLIC "-//W3C//DTD SVG 1.1//EN" "http://www.w3.org/Graphics/SVG/1.1/DTD/svg11.dtd">
<svg version="1.1" xmlns="http://www.w3.org/2000/svg" xmlns:xlink="http://www.w3.org/1999/xlink" x="0px" y="0px"
	 viewBox="0 0 1225.4 793.2" enable-background="new 0 0 1225.4 793.2" xml:space="preserve">
<g id="Capa_2">
	<rect x="0.3" y="0" fill="#E0DEDC" width="1225.9" height="793.2"/>
</g>
<g id="Capa_1">
	<polygon fill-rule="evenodd" clip-rule="evenodd" fill="#FFFFFF" points="223.6,282.1 81.7,582.9 441.2,522.3 755.3,596.1 
		1152.6,554.5 1022.1,259.4 719.3,287.7 484.7,221.5 	"/>
	<g opacity="0.34">
		<polygon fill-rule="evenodd" clip-rule="evenodd" fill="#111111" points="81.7,582.9 770.3,595.9 884.8,369.2 364.4,381.4 		"/>
		<path fill-rule="evenodd" clip-rule="evenodd" fill="#111111" d="M81.7,582.9c227.8,4.1,455.7,8.2,683.5,12.3
			c38.4-75.4,76.7-150.7,115.1-226.1c-172,4.1-344,8.2-515.9,12.3C270.2,448.6,175.9,515.7,81.7,582.9z"/>
		<path fill-rule="evenodd" clip-rule="evenodd" fill="#111111" d="M81.7,582.9c226.1,3.9,452.3,7.7,678.4,11.6
			c38.6-75.1,77.1-150.3,115.7-225.4c-170.5,4.1-341,8.3-511.4,12.4C270.2,448.6,175.9,515.7,81.7,582.9z"/>
		<path fill-rule="evenodd" clip-rule="evenodd" fill="#111111" d="M81.7,582.9c224.4,3.6,448.9,7.3,673.3,10.9
			c38.8-74.9,77.5-149.9,116.3-224.8c-169,4.2-338,8.3-507,12.5C270.2,448.6,175.9,515.7,81.7,582.9z"/>
		<path fill-rule="evenodd" clip-rule="evenodd" fill="#111111" d="M81.7,582.9c222.7,3.4,445.5,6.8,668.2,10.2
			c39-74.7,77.9-149.5,116.9-224.2c-167.5,4.2-335,8.4-502.5,12.6C270.2,448.6,175.9,515.7,81.7,582.9z"/>
		<path fill-rule="evenodd" clip-rule="evenodd" fill="#111111" d="M81.7,582.9c221,3.2,442.1,6.3,663.1,9.5
			c39.2-74.5,78.3-149.1,117.5-223.6c-166,4.2-332,8.4-498,12.7C270.2,448.6,175.9,515.7,81.7,582.9z"/>
		<path fill-rule="evenodd" clip-rule="evenodd" fill="#111111" d="M81.7,582.9c219.3,2.9,438.7,5.9,658,8.8
			c39.4-74.3,78.7-148.7,118.1-223c-164.5,4.3-329,8.5-493.5,12.8C270.2,448.6,175.9,515.7,81.7,582.9z"/>
		<path fill-rule="evenodd" clip-rule="evenodd" fill="#111111" d="M81.7,582.9c217.7,2.7,435.3,5.4,652.9,8.1
			c39.6-74.1,79.1-148.3,118.7-222.4c-163,4.3-326,8.6-489,12.9C270.2,448.6,175.9,515.7,81.7,582.9z"/>
		<path fill-rule="evenodd" clip-rule="evenodd" fill="#111111" d="M81.7,582.9c216,2.5,431.9,4.9,647.9,7.4
			c39.8-73.9,79.5-147.9,119.3-221.8c-161.5,4.3-323,8.6-484.5,12.9C270.2,448.6,175.9,515.7,81.7,582.9z"/>
		<path fill-rule="evenodd" clip-rule="evenodd" fill="#111111" d="M81.7,582.9c214.3,2.2,428.5,4.5,642.8,6.7
			c40-73.7,79.9-147.5,119.9-221.2c-160,4.3-320,8.7-480,13C270.2,448.6,175.9,515.7,81.7,582.9z"/>
		<path fill-rule="evenodd" clip-rule="evenodd" fill="#111111" d="M81.7,582.9c212.6,2,425.1,4,637.7,6
			c40.2-73.5,80.3-147,120.5-220.6c-158.5,4.4-317,8.8-475.5,13.1C270.2,448.6,175.9,515.7,81.7,582.9z"/>
		<path fill-rule="evenodd" clip-rule="evenodd" fill="#111111" d="M81.7,582.9c210.9,1.8,421.7,3.5,632.6,5.3
			c40.4-73.3,80.7-146.6,121.1-220c-157,4.4-314,8.8-471,13.2C270.2,448.6,175.9,515.7,81.7,582.9z"/>
		<path fill-rule="evenodd" clip-rule="evenodd" fill="#111111" d="M81.7,582.9c209.2,1.5,418.3,3,627.5,4.6
			c40.6-73.1,81.1-146.2,121.7-219.3c-155.5,4.4-311,8.9-466.5,13.3C270.2,448.6,175.9,515.7,81.7,582.9z"/>
		<path fill-rule="evenodd" clip-rule="evenodd" fill="#111111" d="M81.7,582.9c207.5,1.3,414.9,2.6,622.4,3.9
			c40.8-72.9,81.5-145.8,122.3-218.7c-154,4.5-308,8.9-462.1,13.4C270.2,448.6,175.9,515.7,81.7,582.9z"/>
		<path fill-rule="evenodd" clip-rule="evenodd" fill="#111111" d="M81.7,582.9c205.8,1.1,411.6,2.1,617.3,3.2
			C740,513.3,781,440.6,822,367.9c-152.5,4.5-305,9-457.6,13.5C270.2,448.6,175.9,515.7,81.7,582.9z"/>
		<path fill-rule="evenodd" clip-rule="evenodd" fill="#111111" d="M81.7,582.9c204.1,0.8,408.2,1.6,612.2,2.5
			c41.2-72.5,82.3-145,123.5-217.5c-151,4.5-302.1,9.1-453.1,13.6C270.2,448.6,175.9,515.7,81.7,582.9z"/>
		<path fill-rule="evenodd" clip-rule="evenodd" fill="#111111" d="M81.7,582.9c202.4,0.6,404.8,1.2,607.2,1.8
			C730.2,512.3,771.6,440,813,367.7c-149.5,4.6-299.1,9.1-448.6,13.7C270.2,448.6,175.9,515.7,81.7,582.9z"/>
		<path fill-rule="evenodd" clip-rule="evenodd" fill="#111111" d="M81.7,582.9c200.7,0.4,401.4,0.7,602.1,1.1
			c41.6-72.1,83.1-144.2,124.7-216.3c-148,4.6-296.1,9.2-444.1,13.8C270.2,448.6,175.9,515.7,81.7,582.9z"/>
		<path fill-rule="evenodd" clip-rule="evenodd" fill="#111111" d="M81.7,582.9c199,0.1,398,0.2,597,0.4
			c41.8-71.9,83.5-143.8,125.3-215.7c-146.5,4.6-293.1,9.2-439.6,13.9C270.2,448.6,175.9,515.7,81.7,582.9z"/>
		<path fill-rule="evenodd" clip-rule="evenodd" fill="#111111" d="M81.7,582.9c197.3-0.1,394.6-0.2,591.9-0.3
			c42-71.7,83.9-143.4,125.9-215.1c-145,4.7-290.1,9.3-435.1,14C270.2,448.6,175.9,515.7,81.7,582.9z"/>
		<path fill-rule="evenodd" clip-rule="evenodd" fill="#111111" d="M81.7,582.9c195.6-0.4,391.2-0.7,586.8-1.1
			c42.2-71.5,84.3-143,126.5-214.5c-143.5,4.7-287.1,9.4-430.6,14.1C270.2,448.6,175.9,515.7,81.7,582.9z"/>
		<path fill-rule="evenodd" clip-rule="evenodd" fill="#111111" d="M81.7,582.9c193.9-0.6,387.8-1.2,581.7-1.8
			c42.4-71.3,84.7-142.6,127.1-213.9c-142,4.7-284.1,9.4-426.1,14.1C270.2,448.6,175.9,515.7,81.7,582.9z"/>
		<path fill-rule="evenodd" clip-rule="evenodd" fill="#111111" d="M81.7,582.9c192.2-0.8,384.4-1.6,576.6-2.5
			c42.6-71.1,85.1-142.2,127.7-213.2c-140.6,4.7-281.1,9.5-421.7,14.2C270.2,448.6,175.9,515.7,81.7,582.9z"/>
		<path fill-rule="evenodd" clip-rule="evenodd" fill="#111111" d="M81.7,582.9c190.5-1.1,381-2.1,571.5-3.2
			C696,508.9,738.8,438,781.6,367.1c-139.1,4.8-278.1,9.6-417.2,14.3C270.2,448.6,175.9,515.7,81.7,582.9z"/>
		<path fill-rule="evenodd" clip-rule="evenodd" fill="#111111" d="M81.7,582.9c188.8-1.3,377.6-2.6,566.4-3.9
			c43-70.7,85.9-141.4,128.9-212c-137.6,4.8-275.1,9.6-412.7,14.4C270.2,448.6,175.9,515.7,81.7,582.9z"/>
		<path fill-rule="evenodd" clip-rule="evenodd" fill="#111111" d="M81.7,582.9c187.1-1.5,374.2-3,561.4-4.6
			c43.2-70.5,86.3-140.9,129.5-211.4c-136.1,4.8-272.1,9.7-408.2,14.5C270.2,448.6,175.9,515.7,81.7,582.9z"/>
		<path fill-rule="evenodd" clip-rule="evenodd" fill="#111111" d="M81.7,582.9c185.4-1.8,370.8-3.5,556.3-5.3
			c43.4-70.3,86.7-140.5,130.1-210.8c-134.6,4.9-269.1,9.7-403.7,14.6C270.2,448.6,175.9,515.7,81.7,582.9z"/>
		<path fill-rule="evenodd" clip-rule="evenodd" fill="#111111" d="M81.7,582.9c183.7-2,367.5-4,551.2-6
			c43.6-70.1,87.1-140.1,130.7-210.2c-133.1,4.9-266.1,9.8-399.2,14.7C270.2,448.6,175.9,515.7,81.7,582.9z"/>
		<path fill-rule="evenodd" clip-rule="evenodd" fill="#111111" d="M81.7,582.9c182-2.2,364.1-4.5,546.1-6.7
			c43.8-69.9,87.5-139.7,131.3-209.6c-131.6,4.9-263.1,9.9-394.7,14.8C270.2,448.6,175.9,515.7,81.7,582.9z"/>
		<path fill-rule="evenodd" clip-rule="evenodd" fill="#111111" d="M81.7,582.9c180.3-2.5,360.7-4.9,541-7.4
			c44-69.7,87.9-139.3,131.9-209c-130.1,5-260.1,9.9-390.2,14.9C270.2,448.6,175.9,515.7,81.7,582.9z"/>
		<path fill-rule="evenodd" clip-rule="evenodd" fill="#111111" d="M81.7,582.9c178.6-2.7,357.3-5.4,535.9-8.1
			c44.2-69.5,88.3-138.9,132.5-208.4c-128.6,5-257.2,10-385.7,15C270.2,448.6,175.9,515.7,81.7,582.9z"/>
		<path fill-rule="evenodd" clip-rule="evenodd" fill="#111111" d="M81.7,582.9c176.9-2.9,353.9-5.9,530.8-8.8
			c44.4-69.3,88.7-138.5,133.1-207.8c-127.1,5-254.2,10-381.2,15.1C270.2,448.6,175.9,515.7,81.7,582.9z"/>
		<path fill-rule="evenodd" clip-rule="evenodd" fill="#111111" d="M81.7,582.9c175.2-3.2,350.5-6.3,525.7-9.5
			c44.6-69,89.1-138.1,133.7-207.1c-125.6,5.1-251.2,10.1-376.8,15.2C270.2,448.6,175.9,515.7,81.7,582.9z"/>
		<path fill-rule="evenodd" clip-rule="evenodd" fill="#111111" d="M81.7,582.9c173.5-3.4,347.1-6.8,520.6-10.2
			c44.8-68.8,89.5-137.7,134.3-206.5c-124.1,5.1-248.2,10.2-372.3,15.3C270.2,448.6,175.9,515.7,81.7,582.9z"/>
		<path fill-rule="evenodd" clip-rule="evenodd" fill="#111111" d="M81.7,582.9c171.9-3.6,343.7-7.3,515.6-10.9
			c45-68.6,89.9-137.3,134.9-205.9c-122.6,5.1-245.2,10.2-367.8,15.4C270.2,448.6,175.9,515.7,81.7,582.9z"/>
		<path fill-rule="evenodd" clip-rule="evenodd" fill="#111111" d="M81.7,582.9c170.2-3.9,340.3-7.7,510.5-11.6
			c45.2-68.4,90.3-136.9,135.5-205.3c-121.1,5.1-242.2,10.3-363.3,15.4C270.2,448.6,175.9,515.7,81.7,582.9z"/>
		<path fill-rule="evenodd" clip-rule="evenodd" fill="#111111" d="M81.7,582.9c168.5-4.1,336.9-8.2,505.4-12.3
			c45.4-68.2,90.7-136.5,136.1-204.7c-119.6,5.2-239.2,10.4-358.8,15.5C270.2,448.6,175.9,515.7,81.7,582.9z"/>
		<path fill-rule="evenodd" clip-rule="evenodd" fill="#111111" d="M81.7,582.9c166.8-4.3,333.5-8.7,500.3-13
			c45.6-68,91.1-136.1,136.7-204.1c-118.1,5.2-236.2,10.4-354.3,15.6C270.2,448.6,175.9,515.7,81.7,582.9z"/>
		<path fill-rule="evenodd" clip-rule="evenodd" fill="#111111" d="M81.7,582.9c165.1-4.6,330.1-9.1,495.2-13.7
			c45.8-67.8,91.5-135.7,137.3-203.5c-116.6,5.2-233.2,10.5-349.8,15.7C270.2,448.6,175.9,515.7,81.7,582.9z"/>
		<path fill-rule="evenodd" clip-rule="evenodd" fill="#111111" d="M81.7,582.9c163.4-4.8,326.7-9.6,490.1-14.4
			c46-67.6,91.9-135.2,137.9-202.9c-115.1,5.3-230.2,10.5-345.3,15.8C270.2,448.6,175.9,515.7,81.7,582.9z"/>
		<path fill-rule="evenodd" clip-rule="evenodd" fill="#111111" d="M81.7,582.9c161.7-5,323.4-10.1,485-15.1
			c46.2-67.4,92.3-134.8,138.5-202.3c-113.6,5.3-227.2,10.6-340.8,15.9C270.2,448.6,175.9,515.7,81.7,582.9z"/>
		<path fill-rule="evenodd" clip-rule="evenodd" fill="#111111" d="M81.7,582.9c160-5.3,320-10.5,479.9-15.8
			c46.4-67.2,92.7-134.4,139.1-201.7c-112.1,5.3-224.2,10.7-336.4,16C270.2,448.6,175.9,515.7,81.7,582.9z"/>
		<path fill-rule="evenodd" clip-rule="evenodd" fill="#111111" d="M81.7,582.9c158.3-5.5,316.6-11,474.9-16.5
			c46.6-67,93.1-134,139.7-201c-110.6,5.4-221.2,10.7-331.9,16.1C270.2,448.6,175.9,515.7,81.7,582.9z"/>
		<path fill-rule="evenodd" clip-rule="evenodd" fill="#111111" d="M81.7,582.9c156.6-5.7,313.2-11.5,469.8-17.2
			c46.8-66.8,93.5-133.6,140.3-200.4c-109.1,5.4-218.3,10.8-327.4,16.2C270.2,448.6,175.9,515.7,81.7,582.9z"/>
		<path fill-rule="evenodd" clip-rule="evenodd" fill="#111111" d="M81.7,582.9c154.9-6,309.8-11.9,464.7-17.9
			c47-66.6,93.9-133.2,140.9-199.8C579.7,370.6,472,376,364.4,381.4C270.2,448.6,175.9,515.7,81.7,582.9z"/>
		<path fill-rule="evenodd" clip-rule="evenodd" fill="#111111" d="M81.7,582.9c153.2-6.2,306.4-12.4,459.6-18.6
			c47.2-66.4,94.3-132.8,141.5-199.2c-106.1,5.5-212.3,10.9-318.4,16.4C270.2,448.6,175.9,515.7,81.7,582.9z"/>
		<path fill-rule="evenodd" clip-rule="evenodd" fill="#111111" d="M81.7,582.9c151.5-6.4,303-12.9,454.5-19.3
			c47.4-66.2,94.7-132.4,142.1-198.6c-104.6,5.5-209.3,11-313.9,16.5C270.2,448.6,175.9,515.7,81.7,582.9z"/>
		<path fill-rule="evenodd" clip-rule="evenodd" fill="#111111" d="M81.7,582.9c149.8-6.7,299.6-13.4,449.4-20
			c47.6-66,95.1-132,142.7-198c-103.1,5.5-206.3,11-309.4,16.6C270.2,448.6,175.9,515.7,81.7,582.9z"/>
		<path fill-rule="evenodd" clip-rule="evenodd" fill="#111111" d="M81.7,582.9c148.1-6.9,296.2-13.8,444.3-20.7
			c47.8-65.8,95.5-131.6,143.3-197.4c-101.6,5.5-203.3,11.1-304.9,16.6C270.2,448.6,175.9,515.7,81.7,582.9z"/>
		<path fill-rule="evenodd" clip-rule="evenodd" fill="#111111" d="M81.7,582.9c146.4-7.1,292.8-14.3,439.2-21.4
			c48-65.6,95.9-131.2,143.9-196.8c-100.1,5.6-200.3,11.2-300.4,16.7C270.2,448.6,175.9,515.7,81.7,582.9z"/>
		<path fill-rule="evenodd" clip-rule="evenodd" fill="#111111" d="M81.7,582.9c144.7-7.4,289.4-14.8,434.1-22.1
			C564,495.4,612.2,430,660.3,364.6c-98.7,5.6-197.3,11.2-295.9,16.8C270.2,448.6,175.9,515.7,81.7,582.9z"/>
		<path fill-rule="evenodd" clip-rule="evenodd" fill="#111111" d="M81.7,582.9c143-7.6,286-15.2,429.1-22.8
			c48.4-65.2,96.7-130.4,145.1-195.6c-97.2,5.6-194.3,11.3-291.5,16.9C270.2,448.6,175.9,515.7,81.7,582.9z"/>
		<path fill-rule="evenodd" clip-rule="evenodd" fill="#111111" d="M81.7,582.9c141.3-7.8,282.6-15.7,424-23.5
			c48.6-65,97.1-130,145.7-194.9c-95.7,5.7-191.3,11.3-287,17C270.2,448.6,175.9,515.7,81.7,582.9z"/>
		<path fill-rule="evenodd" clip-rule="evenodd" fill="#111111" d="M81.7,582.9c139.6-8.1,279.3-16.2,418.9-24.2
			c48.8-64.8,97.5-129.6,146.3-194.3c-94.2,5.7-188.3,11.4-282.5,17.1C270.2,448.6,175.9,515.7,81.7,582.9z"/>
		<path fill-rule="evenodd" clip-rule="evenodd" fill="#111111" d="M81.7,582.9c137.9-8.3,275.9-16.6,413.8-24.9
			c49-64.6,97.9-129.1,146.9-193.7c-92.7,5.7-185.3,11.5-278,17.2C270.2,448.6,175.9,515.7,81.7,582.9z"/>
		<path fill-rule="evenodd" clip-rule="evenodd" fill="#111111" d="M81.7,582.9c136.2-8.5,272.5-17.1,408.7-25.6
			c49.2-64.4,98.3-128.7,147.5-193.1c-91.2,5.8-182.3,11.5-273.5,17.3C270.2,448.6,175.9,515.7,81.7,582.9z"/>
		<path fill-rule="evenodd" clip-rule="evenodd" fill="#111111" d="M81.7,582.9c134.5-8.8,269.1-17.6,403.6-26.4
			c49.4-64.2,98.7-128.3,148.1-192.5c-89.7,5.8-179.3,11.6-269,17.4C270.2,448.6,175.9,515.7,81.7,582.9z"/>
		<path fill-rule="evenodd" clip-rule="evenodd" fill="#111111" d="M81.7,582.9c132.8-9,265.7-18,398.5-27.1
			c49.6-64,99.1-127.9,148.7-191.9c-88.2,5.8-176.4,11.7-264.5,17.5C270.2,448.6,175.9,515.7,81.7,582.9z"/>
		<path fill-rule="evenodd" clip-rule="evenodd" fill="#111111" d="M81.7,582.9c131.1-9.3,262.3-18.5,393.4-27.8
			c49.8-63.8,99.5-127.5,149.3-191.3c-86.7,5.9-173.4,11.7-260,17.6C270.2,448.6,175.9,515.7,81.7,582.9z"/>
		<path fill-rule="evenodd" clip-rule="evenodd" fill="#111111" d="M81.7,582.9c129.4-9.5,258.9-19,388.3-28.5
			c50-63.6,99.9-127.1,149.9-190.7c-85.2,5.9-170.4,11.8-255.5,17.7C270.2,448.6,175.9,515.7,81.7,582.9z"/>
		<path fill-rule="evenodd" clip-rule="evenodd" fill="#111111" d="M81.7,582.9c127.8-9.7,255.5-19.4,383.3-29.2
			c50.2-63.4,100.3-126.7,150.5-190.1c-83.7,5.9-167.4,11.8-251.1,17.8C270.2,448.6,175.9,515.7,81.7,582.9z"/>
		<path fill-rule="evenodd" clip-rule="evenodd" fill="#111111" d="M81.7,582.9c126.1-10,252.1-19.9,378.2-29.9
			c50.4-63.2,100.7-126.3,151.1-189.5c-82.2,5.9-164.4,11.9-246.6,17.8C270.2,448.6,175.9,515.7,81.7,582.9z"/>
		<path fill-rule="evenodd" clip-rule="evenodd" fill="#111111" d="M81.7,582.9c124.4-10.2,248.7-20.4,373.1-30.6
			c50.6-62.9,101.1-125.9,151.7-188.8c-80.7,6-161.4,12-242.1,17.9C270.2,448.6,175.9,515.7,81.7,582.9z"/>
		<path fill-rule="evenodd" clip-rule="evenodd" fill="#111111" d="M81.7,582.9c122.7-10.4,245.3-20.8,368-31.3
			c50.8-62.7,101.5-125.5,152.3-188.2c-79.2,6-158.4,12-237.6,18C270.2,448.6,175.9,515.7,81.7,582.9z"/>
		<path fill-rule="evenodd" clip-rule="evenodd" fill="#111111" d="M81.7,582.9c121-10.7,241.9-21.3,362.9-32
			c51-62.5,101.9-125.1,152.9-187.6c-77.7,6-155.4,12.1-233.1,18.1C270.2,448.6,175.9,515.7,81.7,582.9z"/>
		<path fill-rule="evenodd" clip-rule="evenodd" fill="#111111" d="M81.7,582.9C201,572,320.3,561.1,439.5,550.2
			c51.2-62.3,102.3-124.7,153.5-187c-76.2,6.1-152.4,12.1-228.6,18.2C270.2,448.6,175.9,515.7,81.7,582.9z"/>
		<path fill-rule="evenodd" clip-rule="evenodd" fill="#111111" d="M81.7,582.9c117.6-11.1,235.2-22.3,352.7-33.4
			c51.4-62.1,102.7-124.3,154.1-186.4c-74.7,6.1-149.4,12.2-224.1,18.3C270.2,448.6,175.9,515.7,81.7,582.9z"/>
		<path fill-rule="evenodd" clip-rule="evenodd" fill="#111111" d="M81.7,582.9c115.9-11.4,231.8-22.7,347.6-34.1
			C480.9,486.9,532.5,425,584,363c-73.2,6.1-146.4,12.3-219.6,18.4C270.2,448.6,175.9,515.7,81.7,582.9z"/>
		<path fill-rule="evenodd" clip-rule="evenodd" fill="#111111" d="M81.7,582.9c114.2-11.6,228.4-23.2,342.5-34.8
			c51.8-61.7,103.5-123.5,155.3-185.2c-71.7,6.2-143.4,12.3-215.1,18.5C270.2,448.6,175.9,515.7,81.7,582.9z"/>
		<path fill-rule="evenodd" clip-rule="evenodd" fill="#111111" d="M81.7,582.9c112.5-11.8,225-23.7,337.5-35.5
			c52-61.5,103.9-123,155.9-184.6c-70.2,6.2-140.4,12.4-210.7,18.6C270.2,448.6,175.9,515.7,81.7,582.9z"/>
		<path fill-rule="evenodd" clip-rule="evenodd" fill="#111111" d="M81.7,582.9c110.8-12.1,221.6-24.1,332.4-36.2
			c52.2-61.3,104.3-122.6,156.5-184c-68.7,6.2-137.4,12.5-206.2,18.7C270.2,448.6,175.9,515.7,81.7,582.9z"/>
		<path fill-rule="evenodd" clip-rule="evenodd" fill="#111111" d="M81.7,582.9C190.8,570.6,299.9,558.3,409,546
			c52.4-61.1,104.7-122.2,157.1-183.4c-67.2,6.3-134.4,12.5-201.7,18.8C270.2,448.6,175.9,515.7,81.7,582.9z"/>
		<path fill-rule="evenodd" clip-rule="evenodd" fill="#111111" d="M81.7,582.9c107.4-12.5,214.8-25.1,322.2-37.6
			c52.6-60.9,105.1-121.8,157.7-182.7c-65.7,6.3-131.5,12.6-197.2,18.9C270.2,448.6,175.9,515.7,81.7,582.9z"/>
		<path fill-rule="evenodd" clip-rule="evenodd" fill="#111111" d="M81.7,582.9c105.7-12.8,211.4-25.5,317.1-38.3
			c52.8-60.7,105.5-121.4,158.3-182.1c-64.2,6.3-128.5,12.6-192.7,19C270.2,448.6,175.9,515.7,81.7,582.9z"/>
		<path fill-rule="evenodd" clip-rule="evenodd" fill="#111111" d="M81.7,582.9c104-13,208-26,312-39c53-60.5,105.9-121,158.9-181.5
			c-62.7,6.4-125.5,12.7-188.2,19.1C270.2,448.6,175.9,515.7,81.7,582.9z"/>
		<path fill-rule="evenodd" clip-rule="evenodd" fill="#111111" d="M81.7,582.9c102.3-13.2,204.6-26.5,306.9-39.7
			c53.2-60.3,106.3-120.6,159.5-180.9c-61.2,6.4-122.5,12.8-183.7,19.1C270.2,448.6,175.9,515.7,81.7,582.9z"/>
		<path fill-rule="evenodd" clip-rule="evenodd" fill="#111111" d="M81.7,582.9c100.6-13.5,201.2-26.9,301.8-40.4
			c53.4-60.1,106.7-120.2,160.1-180.3c-59.7,6.4-119.5,12.8-179.2,19.2C270.2,448.6,175.9,515.7,81.7,582.9z"/>
		<path fill-rule="evenodd" clip-rule="evenodd" fill="#111111" d="M81.7,582.9c98.9-13.7,197.8-27.4,296.8-41.1
			C432,481.9,485.6,422,539.1,362.1c-58.2,6.4-116.5,12.9-174.7,19.3C270.2,448.6,175.9,515.7,81.7,582.9z"/>
		<path fill-rule="evenodd" clip-rule="evenodd" fill="#111111" d="M81.7,582.9c97.2-13.9,194.4-27.9,291.7-41.8
			c53.8-59.7,107.5-119.4,161.3-179.1c-56.7,6.5-113.5,12.9-170.2,19.4C270.2,448.6,175.9,515.7,81.7,582.9z"/>
		<path fill-rule="evenodd" clip-rule="evenodd" fill="#111111" d="M81.7,582.9c95.5-14.2,191-28.3,286.6-42.5
			c54-59.5,107.9-119,161.9-178.5c-55.3,6.5-110.5,13-165.8,19.5C270.2,448.6,175.9,515.7,81.7,582.9z"/>
		<path fill-rule="evenodd" clip-rule="evenodd" fill="#111111" d="M81.7,582.9c93.8-14.4,187.7-28.8,281.5-43.2
			c54.1-59.3,108.3-118.6,162.5-177.9c-53.8,6.5-107.5,13.1-161.3,19.6C270.2,448.6,175.9,515.7,81.7,582.9z"/>
		<polygon fill-rule="evenodd" clip-rule="evenodd" fill="#111111" points="81.7,582.9 358.1,539 521.2,361.7 364.4,381.4 		"/>
	</g>
	<g opacity="0.34">
		<polygon fill-rule="evenodd" clip-rule="evenodd" fill="#111111" points="755.1,597.9 1132.6,608.7 1055.6,462.3 783.8,468.4 		
			"/>
		<path fill-rule="evenodd" clip-rule="evenodd" fill="#111111" d="M755.1,597.9c124.8,3.4,249.5,6.9,374.3,10.3
			c-25.4-48.7-50.8-97.4-76.3-146c-89.8,2.1-179.6,4.1-269.3,6.2C774.2,511.5,764.7,554.7,755.1,597.9z"/>
		<path fill-rule="evenodd" clip-rule="evenodd" fill="#111111" d="M755.1,597.9c123.7,3.3,247.4,6.6,371.1,9.9
			c-25.2-48.6-50.4-97.1-75.6-145.7c-89,2.1-177.9,4.2-266.9,6.3C774.2,511.5,764.7,554.7,755.1,597.9z"/>
		<path fill-rule="evenodd" clip-rule="evenodd" fill="#111111" d="M755.1,597.9c122.7,3.1,245.3,6.3,368,9.4
			c-25-48.4-49.9-96.8-74.9-145.3c-88.1,2.1-176.3,4.2-264.4,6.3C774.2,511.5,764.7,554.7,755.1,597.9z"/>
		<path fill-rule="evenodd" clip-rule="evenodd" fill="#111111" d="M755.1,597.9c121.6,3,243.2,5.9,364.8,8.9
			c-24.7-48.3-49.5-96.6-74.2-144.9c-87.3,2.1-174.6,4.3-261.9,6.4C774.2,511.5,764.7,554.7,755.1,597.9z"/>
		<path fill-rule="evenodd" clip-rule="evenodd" fill="#111111" d="M755.1,597.9c120.5,2.8,241.1,5.6,361.6,8.4
			c-24.5-48.2-49-96.3-73.5-144.5c-86.5,2.2-173,4.3-259.5,6.5C774.2,511.5,764.7,554.7,755.1,597.9z"/>
		<path fill-rule="evenodd" clip-rule="evenodd" fill="#111111" d="M755.1,597.9c119.5,2.7,239,5.3,358.5,8
			c-24.3-48-48.5-96-72.8-144.1c-85.7,2.2-171.3,4.4-257,6.6C774.2,511.5,764.7,554.7,755.1,597.9z"/>
		<path fill-rule="evenodd" clip-rule="evenodd" fill="#111111" d="M755.1,597.9c118.4,2.5,236.9,5,355.3,7.5
			c-24-47.9-48.1-95.8-72.1-143.7c-84.9,2.2-169.7,4.4-254.6,6.6C774.2,511.5,764.7,554.7,755.1,597.9z"/>
		<path fill-rule="evenodd" clip-rule="evenodd" fill="#111111" d="M755.1,597.9c117.4,2.3,234.8,4.7,352.2,7
			c-23.8-47.8-47.6-95.5-71.4-143.3c-84,2.2-168.1,4.5-252.1,6.7C774.2,511.5,764.7,554.7,755.1,597.9z"/>
		<path fill-rule="evenodd" clip-rule="evenodd" fill="#111111" d="M755.1,597.9c116.3,2.2,232.7,4.4,349,6.6
			c-23.6-47.6-47.1-95.2-70.7-142.9c-83.2,2.3-166.4,4.5-249.6,6.8C774.2,511.5,764.7,554.7,755.1,597.9z"/>
		<path fill-rule="evenodd" clip-rule="evenodd" fill="#111111" d="M755.1,597.9c115.3,2,230.6,4.1,345.8,6.1
			c-23.3-47.5-46.7-95-70-142.5c-82.4,2.3-164.8,4.6-247.2,6.9C774.2,511.5,764.7,554.7,755.1,597.9z"/>
		<path fill-rule="evenodd" clip-rule="evenodd" fill="#111111" d="M755.1,597.9c114.2,1.9,228.5,3.7,342.7,5.6
			c-23.1-47.4-46.2-94.7-69.3-142.1c-81.6,2.3-163.1,4.6-244.7,6.9C774.2,511.5,764.7,554.7,755.1,597.9z"/>
		<path fill-rule="evenodd" clip-rule="evenodd" fill="#111111" d="M755.1,597.9c113.2,1.7,226.3,3.4,339.5,5.1
			c-22.9-47.2-45.8-94.5-68.6-141.7c-80.7,2.3-161.5,4.7-242.2,7C774.2,511.5,764.7,554.7,755.1,597.9z"/>
		<path fill-rule="evenodd" clip-rule="evenodd" fill="#111111" d="M755.1,597.9c112.1,1.6,224.2,3.1,336.4,4.7
			c-22.6-47.1-45.3-94.2-67.9-141.3c-79.9,2.4-159.8,4.7-239.8,7.1C774.2,511.5,764.7,554.7,755.1,597.9z"/>
		<path fill-rule="evenodd" clip-rule="evenodd" fill="#111111" d="M755.1,597.9c111.1,1.4,222.1,2.8,333.2,4.2
			c-22.4-47-44.8-93.9-67.2-140.9c-79.1,2.4-158.2,4.8-237.3,7.2C774.2,511.5,764.7,554.7,755.1,597.9z"/>
		<path fill-rule="evenodd" clip-rule="evenodd" fill="#111111" d="M755.1,597.9c110,1.2,220,2.5,330,3.7
			c-22.2-46.8-44.4-93.7-66.6-140.5c-78.3,2.4-156.6,4.8-234.8,7.2C774.2,511.5,764.7,554.7,755.1,597.9z"/>
		<path fill-rule="evenodd" clip-rule="evenodd" fill="#111111" d="M755.1,597.9c109,1.1,217.9,2.2,326.9,3.2
			c-22-46.7-43.9-93.4-65.9-140.1c-77.5,2.4-154.9,4.9-232.4,7.3C774.2,511.5,764.7,554.7,755.1,597.9z"/>
		<path fill-rule="evenodd" clip-rule="evenodd" fill="#111111" d="M755.1,597.9c107.9,0.9,215.8,1.8,323.7,2.8
			c-21.7-46.6-43.4-93.1-65.2-139.7c-76.6,2.5-153.3,4.9-229.9,7.4C774.2,511.5,764.7,554.7,755.1,597.9z"/>
		<path fill-rule="evenodd" clip-rule="evenodd" fill="#111111" d="M755.1,597.9c106.9,0.8,213.7,1.5,320.6,2.3
			c-21.5-46.4-43-92.9-64.5-139.3c-75.8,2.5-151.6,5-227.4,7.5C774.2,511.5,764.7,554.7,755.1,597.9z"/>
		<path fill-rule="evenodd" clip-rule="evenodd" fill="#111111" d="M755.1,597.9c105.8,0.6,211.6,1.2,317.4,1.8
			c-21.3-46.3-42.5-92.6-63.8-138.9c-75,2.5-150,5-225,7.5C774.2,511.5,764.7,554.7,755.1,597.9z"/>
		<path fill-rule="evenodd" clip-rule="evenodd" fill="#111111" d="M755.1,597.9c104.7,0.4,209.5,0.9,314.2,1.4
			c-21-46.2-42.1-92.3-63.1-138.5c-74.2,2.5-148.3,5.1-222.5,7.6C774.2,511.5,764.7,554.7,755.1,597.9z"/>
		<path fill-rule="evenodd" clip-rule="evenodd" fill="#111111" d="M755.1,597.9c103.7,0.3,207.4,0.6,311.1,0.9
			c-20.8-46-41.6-92.1-62.4-138.1c-73.3,2.6-146.7,5.1-220,7.7C774.2,511.5,764.7,554.7,755.1,597.9z"/>
		<path fill-rule="evenodd" clip-rule="evenodd" fill="#111111" d="M755.1,597.9c102.6,0.1,205.3,0.3,307.9,0.4
			c-20.6-45.9-41.1-91.8-61.7-137.7c-72.5,2.6-145,5.2-217.6,7.8C774.2,511.5,764.7,554.7,755.1,597.9z"/>
		<path fill-rule="evenodd" clip-rule="evenodd" fill="#111111" d="M755.1,597.9c101.6,0,203.2,0,304.8-0.1
			c-20.3-45.8-40.7-91.5-61-137.3c-71.7,2.6-143.4,5.2-215.1,7.8C774.2,511.5,764.7,554.7,755.1,597.9z"/>
		<path fill-rule="evenodd" clip-rule="evenodd" fill="#111111" d="M755.1,597.9c100.5-0.2,201.1-0.4,301.6-0.5
			c-20.1-45.6-40.2-91.3-60.3-136.9c-70.9,2.6-141.8,5.3-212.6,7.9C774.2,511.5,764.7,554.7,755.1,597.9z"/>
		<path fill-rule="evenodd" clip-rule="evenodd" fill="#111111" d="M755.1,597.9c99.5-0.3,199-0.7,298.4-1
			c-19.9-45.5-39.7-91-59.6-136.5c-70.1,2.7-140.1,5.3-210.2,8C774.2,511.5,764.7,554.7,755.1,597.9z"/>
		<path fill-rule="evenodd" clip-rule="evenodd" fill="#111111" d="M755.1,597.9c98.4-0.5,196.9-1,295.3-1.5
			c-19.6-45.4-39.3-90.7-58.9-136.1c-69.2,2.7-138.5,5.4-207.7,8.1C774.2,511.5,764.7,554.7,755.1,597.9z"/>
		<path fill-rule="evenodd" clip-rule="evenodd" fill="#111111" d="M755.1,597.9c97.4-0.7,194.7-1.3,292.1-2
			c-19.4-45.2-38.8-90.5-58.2-135.7c-68.4,2.7-136.8,5.4-205.2,8.1C774.2,511.5,764.7,554.7,755.1,597.9z"/>
		<path fill-rule="evenodd" clip-rule="evenodd" fill="#111111" d="M755.1,597.9c96.3-0.8,192.6-1.6,289-2.4
			c-19.2-45.1-38.3-90.2-57.5-135.3c-67.6,2.7-135.2,5.5-202.8,8.2C774.2,511.5,764.7,554.7,755.1,597.9z"/>
		<path fill-rule="evenodd" clip-rule="evenodd" fill="#111111" d="M755.1,597.9c95.3-1,190.5-1.9,285.8-2.9
			c-18.9-45-37.9-89.9-56.8-134.9c-66.8,2.8-133.5,5.5-200.3,8.3C774.2,511.5,764.7,554.7,755.1,597.9z"/>
		<path fill-rule="evenodd" clip-rule="evenodd" fill="#111111" d="M755.1,597.9c94.2-1.1,188.4-2.3,282.6-3.4
			c-18.7-44.8-37.4-89.7-56.1-134.5c-65.9,2.8-131.9,5.6-197.8,8.4C774.2,511.5,764.7,554.7,755.1,597.9z"/>
		<path fill-rule="evenodd" clip-rule="evenodd" fill="#111111" d="M755.1,597.9c93.2-1.3,186.3-2.6,279.5-3.9
			c-18.5-44.7-37-89.4-55.4-134.1c-65.1,2.8-130.3,5.6-195.4,8.4C774.2,511.5,764.7,554.7,755.1,597.9z"/>
		<path fill-rule="evenodd" clip-rule="evenodd" fill="#111111" d="M755.1,597.9c92.1-1.4,184.2-2.9,276.3-4.3
			c-18.3-44.6-36.5-89.2-54.8-133.7c-64.3,2.8-128.6,5.7-192.9,8.5C774.2,511.5,764.7,554.7,755.1,597.9z"/>
		<path fill-rule="evenodd" clip-rule="evenodd" fill="#111111" d="M755.1,597.9c91.1-1.6,182.1-3.2,273.2-4.8
			c-18-44.4-36-88.9-54.1-133.3c-63.5,2.9-127,5.7-190.4,8.6C774.2,511.5,764.7,554.7,755.1,597.9z"/>
		<path fill-rule="evenodd" clip-rule="evenodd" fill="#111111" d="M755.1,597.9c90-1.8,180-3.5,270-5.3
			c-17.8-44.3-35.6-88.6-53.4-132.9c-62.7,2.9-125.3,5.8-188,8.7C774.2,511.5,764.7,554.7,755.1,597.9z"/>
		<path fill-rule="evenodd" clip-rule="evenodd" fill="#111111" d="M755.1,597.9c88.9-1.9,177.9-3.8,266.8-5.7
			c-17.6-44.2-35.1-88.4-52.7-132.5c-61.8,2.9-123.7,5.8-185.5,8.7C774.2,511.5,764.7,554.7,755.1,597.9z"/>
		<path fill-rule="evenodd" clip-rule="evenodd" fill="#111111" d="M755.1,597.9c87.9-2.1,175.8-4.1,263.7-6.2
			c-17.3-44-34.7-88.1-52-132.1c-61,2.9-122,5.9-183.1,8.8C774.2,511.5,764.7,554.7,755.1,597.9z"/>
		<path fill-rule="evenodd" clip-rule="evenodd" fill="#111111" d="M755.1,597.9c86.8-2.2,173.7-4.5,260.5-6.7
			c-17.1-43.9-34.2-87.8-51.3-131.7c-60.2,3-120.4,5.9-180.6,8.9C774.2,511.5,764.7,554.7,755.1,597.9z"/>
		<path fill-rule="evenodd" clip-rule="evenodd" fill="#111111" d="M755.1,597.9c85.8-2.4,171.6-4.8,257.4-7.2
			c-16.9-43.8-33.7-87.6-50.6-131.3c-59.4,3-118.7,6-178.1,9C774.2,511.5,764.7,554.7,755.1,597.9z"/>
		<path fill-rule="evenodd" clip-rule="evenodd" fill="#111111" d="M755.1,597.9c84.7-2.5,169.5-5.1,254.2-7.6
			c-16.6-43.7-33.3-87.3-49.9-130.9c-58.6,3-117.1,6-175.7,9C774.2,511.5,764.7,554.7,755.1,597.9z"/>
		<path fill-rule="evenodd" clip-rule="evenodd" fill="#111111" d="M755.1,597.9c83.7-2.7,167.4-5.4,251-8.1
			c-16.4-43.5-32.8-87-49.2-130.6c-57.7,3-115.5,6.1-173.2,9.1C774.2,511.5,764.7,554.7,755.1,597.9z"/>
		<path fill-rule="evenodd" clip-rule="evenodd" fill="#111111" d="M755.1,597.9c82.6-2.9,165.3-5.7,247.9-8.6
			c-16.2-43.4-32.3-86.8-48.5-130.2c-56.9,3.1-113.8,6.1-170.7,9.2C774.2,511.5,764.7,554.7,755.1,597.9z"/>
		<path fill-rule="evenodd" clip-rule="evenodd" fill="#111111" d="M755.1,597.9c81.6-3,163.2-6,244.7-9.1
			c-15.9-43.3-31.9-86.5-47.8-129.8c-56.1,3.1-112.2,6.2-168.3,9.3C774.2,511.5,764.7,554.7,755.1,597.9z"/>
		<path fill-rule="evenodd" clip-rule="evenodd" fill="#111111" d="M755.1,597.9c80.5-3.2,161-6.4,241.6-9.5
			c-15.7-43.1-31.4-86.2-47.1-129.4c-55.3,3.1-110.5,6.2-165.8,9.4C774.2,511.5,764.7,554.7,755.1,597.9z"/>
		<path fill-rule="evenodd" clip-rule="evenodd" fill="#111111" d="M755.1,597.9c79.5-3.3,158.9-6.7,238.4-10
			c-15.5-43-30.9-86-46.4-129c-54.4,3.1-108.9,6.3-163.3,9.4C774.2,511.5,764.7,554.7,755.1,597.9z"/>
		<path fill-rule="evenodd" clip-rule="evenodd" fill="#111111" d="M755.1,597.9c78.4-3.5,156.8-7,235.2-10.5
			c-15.2-42.9-30.5-85.7-45.7-128.6c-53.6,3.2-107.2,6.3-160.9,9.5C774.2,511.5,764.7,554.7,755.1,597.9z"/>
		<path fill-rule="evenodd" clip-rule="evenodd" fill="#111111" d="M755.1,597.9c77.4-3.6,154.7-7.3,232.1-10.9
			c-15-42.7-30-85.4-45-128.2c-52.8,3.2-105.6,6.4-158.4,9.6C774.2,511.5,764.7,554.7,755.1,597.9z"/>
		<path fill-rule="evenodd" clip-rule="evenodd" fill="#111111" d="M755.1,597.9c76.3-3.8,152.6-7.6,228.9-11.4
			c-14.8-42.6-29.6-85.2-44.3-127.8c-52,3.2-104,6.4-155.9,9.7C774.2,511.5,764.7,554.7,755.1,597.9z"/>
		<path fill-rule="evenodd" clip-rule="evenodd" fill="#111111" d="M755.1,597.9c75.3-4,150.5-7.9,225.8-11.9
			c-14.5-42.5-29.1-84.9-43.6-127.4c-51.2,3.2-102.3,6.5-153.5,9.7C774.2,511.5,764.7,554.7,755.1,597.9z"/>
		<path fill-rule="evenodd" clip-rule="evenodd" fill="#111111" d="M755.1,597.9c74.2-4.1,148.4-8.2,222.6-12.4
			c-14.3-42.3-28.6-84.7-43-127c-50.3,3.3-100.7,6.5-151,9.8C774.2,511.5,764.7,554.7,755.1,597.9z"/>
		<path fill-rule="evenodd" clip-rule="evenodd" fill="#111111" d="M755.1,597.9c73.1-4.3,146.3-8.6,219.4-12.8
			c-14.1-42.2-28.2-84.4-42.3-126.6c-49.5,3.3-99,6.6-148.5,9.9C774.2,511.5,764.7,554.7,755.1,597.9z"/>
		<path fill-rule="evenodd" clip-rule="evenodd" fill="#111111" d="M755.1,597.9c72.1-4.4,144.2-8.9,216.3-13.3
			c-13.9-42.1-27.7-84.1-41.6-126.2c-48.7,3.3-97.4,6.6-146.1,10C774.2,511.5,764.7,554.7,755.1,597.9z"/>
		<path fill-rule="evenodd" clip-rule="evenodd" fill="#111111" d="M755.1,597.9c71-4.6,142.1-9.2,213.1-13.8
			c-13.6-41.9-27.2-83.9-40.9-125.8c-47.9,3.3-95.7,6.7-143.6,10C774.2,511.5,764.7,554.7,755.1,597.9z"/>
		<path fill-rule="evenodd" clip-rule="evenodd" fill="#111111" d="M755.1,597.9c70-4.8,140-9.5,210-14.3
			c-13.4-41.8-26.8-83.6-40.2-125.4c-47,3.4-94.1,6.7-141.1,10.1C774.2,511.5,764.7,554.7,755.1,597.9z"/>
		<path fill-rule="evenodd" clip-rule="evenodd" fill="#111111" d="M755.1,597.9c68.9-4.9,137.9-9.8,206.8-14.7
			c-13.2-41.7-26.3-83.3-39.5-125c-46.2,3.4-92.4,6.8-138.7,10.2C774.2,511.5,764.7,554.7,755.1,597.9z"/>
		<path fill-rule="evenodd" clip-rule="evenodd" fill="#111111" d="M755.1,597.9c67.9-5.1,135.8-10.1,203.7-15.2
			c-12.9-41.5-25.9-83.1-38.8-124.6c-45.4,3.4-90.8,6.8-136.2,10.3C774.2,511.5,764.7,554.7,755.1,597.9z"/>
		<path fill-rule="evenodd" clip-rule="evenodd" fill="#111111" d="M755.1,597.9c66.8-5.2,133.7-10.4,200.5-15.7
			c-12.7-41.4-25.4-82.8-38.1-124.2c-44.6,3.4-89.2,6.9-133.7,10.3C774.2,511.5,764.7,554.7,755.1,597.9z"/>
		<path fill-rule="evenodd" clip-rule="evenodd" fill="#111111" d="M755.1,597.9c65.8-5.4,131.6-10.8,197.3-16.1
			c-12.5-41.3-24.9-82.5-37.4-123.8c-43.8,3.5-87.5,6.9-131.3,10.4C774.2,511.5,764.7,554.7,755.1,597.9z"/>
		<path fill-rule="evenodd" clip-rule="evenodd" fill="#111111" d="M755.1,597.9c64.7-5.5,129.4-11.1,194.2-16.6
			c-12.2-41.1-24.5-82.3-36.7-123.4c-42.9,3.5-85.9,7-128.8,10.5C774.2,511.5,764.7,554.7,755.1,597.9z"/>
		<path fill-rule="evenodd" clip-rule="evenodd" fill="#111111" d="M755.1,597.9c63.7-5.7,127.3-11.4,191-17.1c-12-41-24-82-36-123
			c-42.1,3.5-84.2,7-126.3,10.6C774.2,511.5,764.7,554.7,755.1,597.9z"/>
		<path fill-rule="evenodd" clip-rule="evenodd" fill="#111111" d="M755.1,597.9c62.6-5.9,125.2-11.7,187.9-17.6
			c-11.8-40.9-23.5-81.7-35.3-122.6c-41.3,3.5-82.6,7.1-123.9,10.6C774.2,511.5,764.7,554.7,755.1,597.9z"/>
		<path fill-rule="evenodd" clip-rule="evenodd" fill="#111111" d="M755.1,597.9c61.6-6,123.1-12,184.7-18
			c-11.5-40.7-23.1-81.5-34.6-122.2c-40.5,3.6-80.9,7.1-121.4,10.7C774.2,511.5,764.7,554.7,755.1,597.9z"/>
		<path fill-rule="evenodd" clip-rule="evenodd" fill="#111111" d="M755.1,597.9c60.5-6.2,121-12.3,181.5-18.5
			c-11.3-40.6-22.6-81.2-33.9-121.8c-39.6,3.6-79.3,7.2-118.9,10.8C774.2,511.5,764.7,554.7,755.1,597.9z"/>
		<path fill-rule="evenodd" clip-rule="evenodd" fill="#111111" d="M755.1,597.9c59.5-6.3,118.9-12.7,178.4-19
			c-11.1-40.5-22.2-80.9-33.2-121.4c-38.8,3.6-77.7,7.2-116.5,10.9C774.2,511.5,764.7,554.7,755.1,597.9z"/>
		<path fill-rule="evenodd" clip-rule="evenodd" fill="#111111" d="M755.1,597.9c58.4-6.5,116.8-13,175.2-19.5
			c-10.8-40.3-21.7-80.7-32.5-121c-38,3.6-76,7.3-114,10.9C774.2,511.5,764.7,554.7,755.1,597.9z"/>
		<path fill-rule="evenodd" clip-rule="evenodd" fill="#111111" d="M755.1,597.9c57.4-6.6,114.7-13.3,172.1-19.9
			c-10.6-40.2-21.2-80.4-31.8-120.6c-37.2,3.7-74.4,7.3-111.5,11C774.2,511.5,764.7,554.7,755.1,597.9z"/>
		<path fill-rule="evenodd" clip-rule="evenodd" fill="#111111" d="M755.1,597.9c56.3-6.8,112.6-13.6,168.9-20.4
			c-10.4-40.1-20.8-80.1-31.2-120.2c-36.4,3.7-72.7,7.4-109.1,11.1C774.2,511.5,764.7,554.7,755.1,597.9z"/>
		<path fill-rule="evenodd" clip-rule="evenodd" fill="#111111" d="M755.1,597.9c55.2-7,110.5-13.9,165.7-20.9
			c-10.2-39.9-20.3-79.9-30.5-119.8c-35.5,3.7-71.1,7.4-106.6,11.2C774.2,511.5,764.7,554.7,755.1,597.9z"/>
		<path fill-rule="evenodd" clip-rule="evenodd" fill="#111111" d="M755.1,597.9c54.2-7.1,108.4-14.2,162.6-21.3
			c-9.9-39.8-19.8-79.6-29.8-119.4c-34.7,3.7-69.4,7.5-104.2,11.2C774.2,511.5,764.7,554.7,755.1,597.9z"/>
		<path fill-rule="evenodd" clip-rule="evenodd" fill="#111111" d="M755.1,597.9c53.1-7.3,106.3-14.5,159.4-21.8
			c-9.7-39.7-19.4-79.4-29.1-119c-33.9,3.8-67.8,7.5-101.7,11.3C774.2,511.5,764.7,554.7,755.1,597.9z"/>
		<path fill-rule="evenodd" clip-rule="evenodd" fill="#111111" d="M755.1,597.9c52.1-7.4,104.2-14.9,156.3-22.3
			c-9.5-39.5-18.9-79.1-28.4-118.6c-33.1,3.8-66.1,7.6-99.2,11.4C774.2,511.5,764.7,554.7,755.1,597.9z"/>
		<path fill-rule="evenodd" clip-rule="evenodd" fill="#111111" d="M755.1,597.9c51-7.6,102.1-15.2,153.1-22.8
			c-9.2-39.4-18.5-78.8-27.7-118.2c-32.3,3.8-64.5,7.6-96.8,11.5C774.2,511.5,764.7,554.7,755.1,597.9z"/>
		<path fill-rule="evenodd" clip-rule="evenodd" fill="#111111" d="M755.1,597.9c50-7.7,100-15.5,149.9-23.2
			c-9-39.3-18-78.6-27-117.8c-31.4,3.8-62.9,7.7-94.3,11.5C774.2,511.5,764.7,554.7,755.1,597.9z"/>
		<path fill-rule="evenodd" clip-rule="evenodd" fill="#111111" d="M755.1,597.9c48.9-7.9,97.9-15.8,146.8-23.7
			c-8.8-39.1-17.5-78.3-26.3-117.4c-30.6,3.9-61.2,7.7-91.8,11.6C774.2,511.5,764.7,554.7,755.1,597.9z"/>
		<path fill-rule="evenodd" clip-rule="evenodd" fill="#111111" d="M755.1,597.9c47.9-8.1,95.7-16.1,143.6-24.2
			c-8.5-39-17.1-78-25.6-117c-29.8,3.9-59.6,7.8-89.4,11.7C774.2,511.5,764.7,554.7,755.1,597.9z"/>
		<path fill-rule="evenodd" clip-rule="evenodd" fill="#111111" d="M755.1,597.9c46.8-8.2,93.6-16.4,140.5-24.7
			c-8.3-38.9-16.6-77.8-24.9-116.6c-29,3.9-57.9,7.8-86.9,11.8C774.2,511.5,764.7,554.7,755.1,597.9z"/>
		<path fill-rule="evenodd" clip-rule="evenodd" fill="#111111" d="M755.1,597.9c45.8-8.4,91.5-16.8,137.3-25.1
			c-8.1-38.8-16.1-77.5-24.2-116.2c-28.1,3.9-56.3,7.9-84.4,11.8C774.2,511.5,764.7,554.7,755.1,597.9z"/>
		<path fill-rule="evenodd" clip-rule="evenodd" fill="#111111" d="M755.1,597.9c44.7-8.5,89.4-17.1,134.1-25.6
			c-7.8-38.6-15.7-77.2-23.5-115.9c-27.3,4-54.6,7.9-82,11.9C774.2,511.5,764.7,554.7,755.1,597.9z"/>
		<path fill-rule="evenodd" clip-rule="evenodd" fill="#111111" d="M755.1,597.9c43.7-8.7,87.3-17.4,131-26.1
			c-7.6-38.5-15.2-77-22.8-115.5c-26.5,4-53,8-79.5,12C774.2,511.5,764.7,554.7,755.1,597.9z"/>
		<path fill-rule="evenodd" clip-rule="evenodd" fill="#111111" d="M755.1,597.9c42.6-8.8,85.2-17.7,127.8-26.5
			c-7.4-38.4-14.8-76.7-22.1-115.1c-25.7,4-51.4,8-77,12.1C774.2,511.5,764.7,554.7,755.1,597.9z"/>
		<path fill-rule="evenodd" clip-rule="evenodd" fill="#111111" d="M755.1,597.9c41.6-9,83.1-18,124.7-27
			c-7.1-38.2-14.3-76.4-21.4-114.7c-24.9,4-49.7,8.1-74.6,12.1C774.2,511.5,764.7,554.7,755.1,597.9z"/>
		<polygon fill-rule="evenodd" clip-rule="evenodd" fill="#111111" points="755.1,597.9 876.6,570.4 855.9,456.1 783.8,468.4 		"/>
	</g>
	<polygon fill-rule="evenodd" clip-rule="evenodd" fill="#C8C8C8" points="719.5,286 1023.1,257.5 1155.2,556 755.2,597.9 
		441.1,524.1 78.7,585.2 222.4,280.5 484.7,219.7 	"/>
	<path fill-rule="evenodd" clip-rule="evenodd" fill="#FFFFFF" d="M441.2,522.4c-59.9,10.1-119.9,20.2-179.8,30.3
		c-59.9,10.1-119.8,20.2-179.7,30.2c23.7-50.1,47.3-100.2,71-150.4c23.6-50.1,47.3-100.3,70.9-150.4c43.5-10.1,87-20.2,130.5-30.3
		c43.5-10.1,87-20.2,130.6-30.3c-7.3,50.2-14.5,100.4-21.8,150.5C455.7,422.1,448.4,472.3,441.2,522.4z"/>
	<path fill-rule="evenodd" clip-rule="evenodd" fill="#E4DDD7" d="M442.4,514.1c-56.2,9.5-112.3,19.1-168.5,28.6
		c-56.1,9.5-112.2,19-168.4,28.6c21.5-47.4,43-94.7,64.5-142.1c21.5-47.4,43-94.8,64.4-142.2c41.5-9.5,83-19.1,124.5-28.6
		c41.5-9.5,83-19.1,124.5-28.6c-6.9,47.4-13.7,94.8-20.6,142.2C456.1,419.4,449.2,466.7,442.4,514.1z"/>
	<path fill-rule="evenodd" clip-rule="evenodd" fill="#FFFFFF" d="M448.3,472.8c-21.8,10.6-44,21.1-66.5,31.7
		c-22.6,10.6-45.7,21.1-68.9,31.6c13.3-2.2,26.6-4.5,40-6.8c15.9-7.3,31.7-14.5,47.4-21.8c15.5-7.2,30.9-14.6,46.3-21.9
		C447.1,481.3,447.7,477,448.3,472.8z"/>
	<path fill-rule="evenodd" clip-rule="evenodd" fill="#FFFFFF" d="M465.7,352.5c-47.8,9.5-95.7,19.1-143.5,28.6
		c-47.8,9.5-95.6,19-143.4,28.6c-1.5,3.3-3,6.7-4.5,10c48.3-9.5,96.6-19.1,145-28.6c48.3-9.5,96.7-19.1,145-28.6
		C464.7,359.2,465.3,355.8,465.7,352.5z"/>
	<path fill-rule="evenodd" clip-rule="evenodd" fill="#FFFFFF" d="M464.3,362.7c-13.6,0-27-0.1-40.4-0.2c-4.6,3.6-9.1,7.1-13.7,10.6
		c17.3,0.1,34.9,0.3,52.5,0.3C463.2,369.9,463.8,366.3,464.3,362.7z"/>
	<path fill-rule="evenodd" clip-rule="evenodd" fill="#FFFFFF" d="M413.6,502.8c5-3.5,10.2-7.1,15.2-10.7
		c-35.1-3.1-69.5-6.2-103.2-9.3c-33-3.1-65.5-6.2-97.2-9.3c-5.4,3.6-10.8,7.2-16.2,10.7c31.9,3.1,64.5,6.2,97.7,9.3
		C343.8,496.6,378.3,499.7,413.6,502.8z"/>
	<path fill-rule="evenodd" clip-rule="evenodd" fill="#FFFFFF" d="M304.7,482.4c2.1,2.6,4.2,5.1,6.4,7.7
		c24.3-8.8,48.3-17.6,72.1-26.4c23.6-8.8,47-17.6,70.2-26.4c0.1-0.9,0.3-1.7,0.4-2.6c-1.9-2-3.8-3.9-5.6-5.9
		c-23.4,9-47,18-70.8,26.9C353.4,464.6,329.2,473.4,304.7,482.4z"/>
	<path fill-rule="evenodd" clip-rule="evenodd" fill="#FFFFFF" d="M157.3,457.2c36.1-9.8,71.9-19.7,107.6-29.6
		c35.4-9.8,70.6-19.7,105.5-29.6c0-3.1,0-6.3,0.1-9.5c-34.2,9.8-68.6,19.6-103.3,29.3c-34.9,9.8-70,19.5-105.3,29.2
		C160.3,450.4,158.8,453.8,157.3,457.2z"/>
	<path fill-rule="evenodd" clip-rule="evenodd" fill="#FFFFFF" d="M326.9,445.7c5-3.5,10-7,15-10.6c-12.9-2.3-25.8-4.7-38.4-7
		c-12.5-2.4-24.8-4.7-37-7.1c-5.2,3.5-10.3,7.1-15.4,10.6c12.2,2.4,24.6,4.8,37.2,7.1C301,441,313.9,443.4,326.9,445.7z"/>
	<path fill-rule="evenodd" clip-rule="evenodd" fill="#FFFFFF" d="M477.5,271c-42.8,5.1-85.1,10.1-126.9,15.3
		c-41.4,5.1-82.3,10.2-122.8,15.3c-1.5,3.3-3,6.7-4.6,10c40.9-5.1,82.4-10.1,124.3-15.2c42.4-5.1,85.2-10.2,128.5-15.3
		C476.6,277.7,477.1,274.4,477.5,271z"/>
	<path fill-rule="evenodd" clip-rule="evenodd" fill="#FFFFFF" d="M329.8,378.5c1.8,2.6,3.6,5.1,5.4,7.6
		c24.4-15.3,48.4-30.6,71.7-46c23-15.2,45.3-30.6,67.2-46c0.6-4.4,1.3-8.9,1.9-13.4c-23,16.3-46.4,32.7-70.6,48.9
		C380.9,346.1,355.6,362.2,329.8,378.5z"/>
	<path fill-rule="evenodd" clip-rule="evenodd" fill="#FFFFFF" d="M415.8,331.6c5.4-3.9,10.9-7.9,16.4-11.9
		c-38.2,4.2-76.1,8.4-113.6,12.6c-37.2,4.2-74,8.4-110.4,12.6c-1.6,3.4-3.1,6.9-4.7,10.3c34.6-3.9,69.5-7.9,104.7-11.8
		C343.8,339.4,379.6,335.5,415.8,331.6z"/>
	<path fill-rule="evenodd" clip-rule="evenodd" fill="#FFFFFF" d="M178.4,410.4c41.3-27.1,81.3-53.8,119.4-81.2
		c37.2-26.8,72.4-54.2,106.4-81.3c-6.6,1.5-13.1,3-19.7,4.5c-30.5,24-61.9,48.2-94.7,71.8c-33.6,24.2-68.8,47.9-104.9,71.8
		C182.8,400.9,180.6,405.7,178.4,410.4z"/>
	<path fill-rule="evenodd" clip-rule="evenodd" fill="#FFFFFF" d="M362.5,365.2c5.8-4,11.5-7.9,17.3-11.9
		c-24.5,2.5-48.8,4.9-72.9,7.4c-24,2.4-47.8,4.9-71.5,7.3c-6.2,4-12.3,7.9-18.5,11.9c23.9-2.4,47.9-4.8,72.1-7.3
		C313.3,370.2,337.8,367.7,362.5,365.2z"/>
	<path fill-rule="evenodd" clip-rule="evenodd" fill="#FFFFFF" d="M472.3,307.6c-17,3.5-33.9,7.1-50.9,10.6c-8,5.2-16,10.4-24,15.6
		c12.2-2.5,24.4-5.1,36.6-7.6c12.2-2.5,24.4-5,36.6-7.6C471.2,314.9,471.7,311.2,472.3,307.6z"/>
	<path fill-rule="evenodd" clip-rule="evenodd" fill="#FFFFFF" d="M482,239.9c-15.1,2.1-30.2,4.2-45.2,6.3
		c-15,2.1-29.9,4.2-44.7,6.3c-5.2,4-10.4,7.9-15.7,11.9c17.2-2.4,34.5-4.8,51.8-7.3c17.4-2.4,34.9-4.8,52.4-7.3
		C481,246.6,481.5,243.3,482,239.9z"/>
	<path fill-rule="evenodd" clip-rule="evenodd" fill="#FFFFFF" d="M453,425.8c0.6,0.6,1.2,1.2,1.8,1.8c0.2-0.9,0.3-1.9,0.4-2.9
		C454.5,425.2,453.8,425.5,453,425.8z"/>
	<path fill-rule="evenodd" clip-rule="evenodd" fill="#8EC63F" d="M425.1,328.1c-23.5,15.6-47.4,31.3-71.9,46.8
		c18.7-3.7,37.5-2,56.2-5.7c18.7-3.7,37.3-11.6,56.1-15.4c1.7-11.3,3.5-24,5.1-35.4C455.4,321.7,440.3,324.8,425.1,328.1z"/>
	<path fill-rule="evenodd" clip-rule="evenodd" fill="#8EC63F" d="M279.8,423.5c20.3,3.9,40.9,7.8,62.1,11.6
		c21.9-8.1,46.7-17.5,68.3-25.5c-12.5-4.3-27.7-7.2-39.8-11.5c-15,4.3-30.1,8.5-45.1,12.7C310.1,415,295,419.2,279.8,423.5z"/>
	<path fill-rule="evenodd" clip-rule="evenodd" fill="#D4CBBA" d="M475.7,281.1c-9.1,6.5-18.4,13.1-27.7,19.6
		c-21,2.3-41.9,4.7-62.7,7c8.2-6.3,16.3-12.6,24.4-18.9C431.5,286.2,453.5,283.7,475.7,281.1z"/>
	<path fill-rule="evenodd" clip-rule="evenodd" fill="#8EC63F" d="M224.6,485.4c13.9,1.3,28,2.7,42.2,4c14.3,1.3,28.8,2.7,43.4,4
		c-16.5,7.7-33.2,15.4-49.9,23c-14.7-2.3-29.2-4.7-43.4-7.1c-14.1-2.4-28.1-4.8-41.9-7.2C191.5,496.7,208.1,491,224.6,485.4z"/>
	<path fill-rule="evenodd" clip-rule="evenodd" fill="#8EC63F" d="M324.3,299.1c-17.4,12.9-35.2,25.8-53.2,38.6
		c-21.1,2.4-42,4.8-62.9,7.2c5-11.1,10.1-22.3,15.2-33.4c16.6-2,33.4-4.1,50.1-6.2C290.4,303.2,307.3,301.2,324.3,299.1z"/>
	<path fill-rule="evenodd" clip-rule="evenodd" fill="#FFFFFF" d="M348.2,331.2c-7.7,0.9-15.3,1.7-22.9,2.5
		c-15.2,11.7-30.7,23.3-46.5,34.9c-15.9,11.7-32.3,23.3-48.8,34.9c8.6-1.3,17.3-2.5,25.9-3.8c16-11.4,31.8-22.8,47.2-34.3
		C318.5,354.2,333.4,342.6,348.2,331.2z"/>
	<path fill-rule="evenodd" clip-rule="evenodd" fill="#D4CBBA" d="M272.2,347.4c-9.4,6.6-18.9,13.2-28.5,19.7
		c14.3-1.4,28.7-2.9,43.2-4.4c8.9-6.6,17.8-13.3,26.6-19.9C299.7,344.3,285.9,345.9,272.2,347.4z"/>
	<g>
		<path fill-rule="evenodd" clip-rule="evenodd" fill="#C8C8C8" d="M755.3,596.1c-52.4-12.3-104.8-24.6-157.1-36.9
			c-52.3-12.3-104.7-24.6-157-36.9c3.7-25.4,7.3-50.8,11-76.2c4.6,10.6,8.1,21.9,9.8,33.8c7.6,1.3,15.1,2.7,22.7,4
			c-4.1-24.8-14.7-46.9-28.4-66.3l-1.6,10.7l8.2-56.3c7.3-50.1,14.5-100.3,21.8-150.5c39.1,11.1,78.2,22.1,117.3,33.1
			c39.1,11,78.2,22.1,117.3,33.1c6,51.4,12,102.9,18,154.2C743.3,493.4,749.3,544.8,755.3,596.1z"/>
		<path fill-rule="evenodd" clip-rule="evenodd" fill="#B3AEA9" d="M754.3,587.7c-52-12.3-104.1-24.5-156-36.8
			c-52-12.3-104-24.5-155.9-36.8c3.3-22.6,6.6-45.3,9.8-68c4.6,10.6,8.1,21.9,9.8,33.8c7.6,1.3,15.1,2.7,22.7,4
			c-4.1-24.8-14.7-46.9-28.4-66.3l6.6-45.6c6.8-47.4,13.7-94.8,20.5-142.2c39.4,11.1,78.9,22.2,118.4,33.2
			c39.5,11.1,79,22.2,118.5,33.2c5.7,48.6,11.3,97.2,17,145.7C743,490.6,748.7,539.1,754.3,587.7z"/>
		<path fill-rule="evenodd" clip-rule="evenodd" fill="#C8C8C8" d="M735.7,428.4c-43.8,7.8-89.1,15.7-136.2,22.9
			c-38.4,5.9-77.8,11.5-118.3,17c1.1,4,2.1,8.1,2.9,12.2c39.4-5.3,77.8-10.6,115.2-16.3c47.6-7.2,93.6-15,137.9-22.8
			C736.8,437.2,736.2,432.8,735.7,428.4L735.7,428.4z M460.4,471.2c-4,0.5-8,1.1-12,1.6c-0.6,4.3-1.2,8.5-1.9,12.8
			c9-1.2,18-2.4,27-3.6c-3.8-0.7-7.6-1.3-11.4-2C461.6,477,461.1,474.1,460.4,471.2z"/>
		<path fill-rule="evenodd" clip-rule="evenodd" fill="#C8C8C8" d="M735,422c-44.9-11.6-89.8-23.2-134.6-34.7
			c-44.9-11.6-89.7-23.2-134.6-34.8c-0.5,3.3-1,6.7-1.4,10c45.3,11.7,90.6,23.3,135.9,34.9c45.3,11.6,90.6,23.2,136,34.8
			C735.8,428.8,735.4,425.4,735,422z"/>
		<path fill-rule="evenodd" clip-rule="evenodd" fill="#CB952F" d="M738.9,455.6c-23-9.7-40.1-25-41.2-38.2
			c-1.1-13.1,13.5-20.3,34.5-18.8C734.5,417.6,736.7,436.6,738.9,455.6z"/>
		<path fill-rule="evenodd" clip-rule="evenodd" fill="#729C36" d="M737.7,444.9c-12.3-6.5-20.9-15.2-21.6-22.8
			c-0.7-7.6,6.3-12.3,17.5-12.7C734.9,421.2,736.3,433,737.7,444.9z"/>
		<path fill-rule="evenodd" clip-rule="evenodd" fill="#C8C8C8" d="M638.2,458.2c3.6-1.8,7.3-3.7,11-5.6
			c-31.8-15.1-63.4-30-94.4-45.1c-30.6-14.9-60.8-29.9-90.5-44.8c-0.5,3.6-1,7.2-1.6,10.7c28.3,14.1,57,28.3,86.1,42.3
			C578.1,429.9,608,444.1,638.2,458.2z"/>
		<path fill-rule="evenodd" clip-rule="evenodd" fill="#C8C8C8" d="M728.6,367.4c-42.9-16.1-85.4-32.3-127.4-48.4
			c-41.7-16-82.9-32.1-123.7-48.1c-0.5,3.3-1,6.7-1.4,10c41.2,16,82.9,32.2,125,48.2c42.4,16.2,85.4,32.3,128.7,48.5
			C729.4,374.3,729,370.8,728.6,367.4z"/>
		<path fill-rule="evenodd" clip-rule="evenodd" fill="#C8C8C8" d="M542.7,301.1c4.8,2.9,9.6,5.8,14.4,8.7
			c15.8-5.6,31.4-11.1,46.6-16.8c14.9-5.6,29.5-11.4,43.8-17.2c-7-1.9-14-3.9-20.9-5.8c-13.3,5.2-26.9,10.6-40.8,15.7
			C571.7,290.8,557.3,296,542.7,301.1z"/>
		<path fill-rule="evenodd" clip-rule="evenodd" fill="#C8C8C8" d="M528.1,371.9c5.4,3.1,10.7,6.1,16.1,9.2
			c5.5-24.2,10.9-48.4,16-72.6c-5-3-10-6.1-15-9.1C539.8,323.5,534,347.7,528.1,371.9z"/>
		<path fill-rule="evenodd" clip-rule="evenodd" fill="#C8C8C8" d="M556,341.2c-0.3-3.9-0.6-7.8-0.9-11.6
			c-13.8-3.7-27.7-7.3-41.5-11c-13.8-3.7-27.6-7.3-41.4-11c-0.6,3.7-1.1,7.4-1.6,11.1c14.2,3.8,28.4,7.5,42.7,11.3
			C527.5,333.7,541.8,337.4,556,341.2z"/>
		<path fill-rule="evenodd" clip-rule="evenodd" fill="#C8C8C8" d="M729.9,378.5c-30.9-8.6-61.8-17.2-92.6-25.8
			c-30.8-8.6-61.6-17.3-92.3-25.9c-1,3.6-2,7.2-3,10.8c31.5,8.8,63,17.6,94.5,26.3c31.5,8.7,63.1,17.5,94.8,26.3
			C730.8,386.2,730.4,382.4,729.9,378.5z"/>
		<path fill-rule="evenodd" clip-rule="evenodd" fill="#C8C8C8" d="M588.1,391.3c7,1.1,14,2.2,20.9,3.4c-0.2-14.2-0.3-28.3-0.5-42.5
			c-6.7-0.7-13.5-1.4-20.2-2.1C588.3,363.8,588.2,377.5,588.1,391.3z"/>
		<path fill-rule="evenodd" clip-rule="evenodd" fill="#C8C8C8" d="M655.6,407.4c6.9,1.1,13.9,2.2,20.8,3.4
			c-1.1-14.2-2.2-28.5-3.3-42.8c-6.7-0.7-13.3-1.3-19.9-2.1C654,379.8,654.8,393.6,655.6,407.4z"/>
		<path fill-rule="evenodd" clip-rule="evenodd" fill="#C8C8C8" d="M592.8,292.3c4.1-1.8,8.3-3.7,12.4-5.5
			c-20.7-7.8-41.4-15.6-62-23.4c-20.5-7.8-40.9-15.6-61.2-23.4c-0.5,3.3-1,6.7-1.4,10c18.5,7,37.1,14.1,55.8,21.1
			C555.1,278.1,573.9,285.2,592.8,292.3z"/>
		<path fill-rule="evenodd" clip-rule="evenodd" fill="#C8C8C8" d="M746.4,519.7c-31.1-9.7-62.1-19.4-92.9-29.1
			c-30.7-9.6-61.3-19.3-91.8-29c0.1,3.4,0.3,6.9,0.4,10.3c30.6,9.7,61.3,19.3,92.2,28.9c30.9,9.6,62,19.3,93.3,29
			C747.2,526.5,746.8,523.1,746.4,519.7z"/>
		<path fill-rule="evenodd" clip-rule="evenodd" fill="#C8C8C8" d="M531.6,497.4c8.9,3.4,17.7,6.8,26.7,10.2
			c14.2-2.5,28.3-5.2,42.2-7.8c13.8-2.6,27.4-5.4,41-8c-8.7-3.4-17.4-6.7-26.1-10.1c-13.6,2.7-27.4,5.3-41.3,7.9
			C560,492.2,545.9,494.8,531.6,497.4z"/>
		<path fill="#CB952F" d="M456.3,417.6c13.7,19.4,24.3,41.6,28.4,66.3c-7.6-1.3-15.1-2.6-22.7-4c-1.8-12-5.2-23.2-9.9-33.9
			C453.6,436.7,455,427.1,456.3,417.6z"/>
		<path fill-rule="evenodd" clip-rule="evenodd" fill="#C8C8C8" d="M454.9,427.7L454.9,427.7l0.3-2C455.1,426.4,455,427,454.9,427.7
			L454.9,427.7z M467.5,435.4c17.3-1.5,34.5-3.1,51.5-4.7c19.3-1.8,38.4-3.7,57.3-5.6c-2.4-3.7-4.7-7.5-7.1-11.2
			c-18.5,1.9-37.1,3.8-56,5.6c-17.3,1.7-34.7,3.3-52.3,4.8C463.2,427.9,465.4,431.7,467.5,435.4z"/>
		<path fill-rule="evenodd" clip-rule="evenodd" fill="#C8C8C8" d="M538.5,536.8c7.9-9.8,15.7-19.6,23.4-29.4
			c-7-3.1-14-6.3-20.9-9.4c-8.9,11.1-17.9,22.1-27.1,33C522.1,533,530.3,534.9,538.5,536.8z"/>
		<path fill-rule="evenodd" clip-rule="evenodd" fill="#C8C8C8" d="M741,473.6c-18.7-4.7-37.4-9.4-56-14c-18.7-4.7-37.3-9.4-56-14.1
			c-0.9,3.5-1.8,7-2.7,10.5c19.3,4.8,38.7,9.7,58,14.5c19.3,4.8,38.7,9.6,58.1,14.5C741.9,481.1,741.4,477.3,741,473.6z"/>
		<path fill-rule="evenodd" clip-rule="evenodd" fill="#729C36" d="M548.6,467.6c13,4.1,39.7,12.5,52.8,16.6
			c-18.4,3.5-37,7-55.9,10.5c-17-5.2-33.9-10.4-50.8-15.6C517.5,476.9,526.4,470.1,548.6,467.6z"/>
		<path fill-rule="evenodd" clip-rule="evenodd" fill="#729C36" d="M465.8,352.5c21,5.5,42.1,10.9,63.1,16.3
			c2.7-11.1,5.4-22.1,8-33.2c-11.1-2.9-22.1-5.7-33.2-8.6c-11-2.8-22-5.7-33.1-8.6C469,329.8,467.4,341.1,465.8,352.5z"/>
		<path fill-rule="evenodd" clip-rule="evenodd" fill="#A7A093" d="M608.6,356c0.2,11.2,0.3,22.3,0.4,33.5
			c15.4,4,30.8,7.9,46.2,11.9c-0.7-11-1.3-22-1.9-33C638.4,364.3,623.5,360.2,608.6,356z"/>
		<path fill-rule="evenodd" clip-rule="evenodd" fill="#A7A093" d="M567.6,306.1c13.5-4.8,26.8-9.7,39.8-14.5
			c11.6,4.5,23.3,9,35,13.5c11.7,4.5,23.5,9.1,35.3,13.6c-8.3,6.7-16.7,13.3-25.3,19.9c-14.3-5.4-28.5-10.9-42.6-16.3
			C595.7,317,581.6,311.5,567.6,306.1z"/>
		<path fill-rule="evenodd" clip-rule="evenodd" fill="#A7A093" d="M729.9,378.5c-29.1-8.1-58.2-16.3-87.2-24.4
			c-29-8.1-58-16.2-86.9-24.4c1.2-5.5,2.4-11,3.5-16.6c28,10.7,56.1,21.5,84.4,32.2c28.5,10.8,57.2,21.5,86.1,32.3
			C729.8,378,729.9,378.3,729.9,378.5z"/>
		<path fill-rule="evenodd" clip-rule="evenodd" fill="#CB952F" d="M750.7,557.1c-46.4-14-92.5-27.9-138.4-41.8
			c-43.3-13.1-86.4-26.4-129.2-39.6c0.6,2.7,1.2,5.5,1.7,8.3c-3-0.5-6-1-9-1.6l0,1.3c45.4,13.9,91.1,27.8,137,41.7
			c46.1,13.9,92.5,27.8,139.1,41.8C751.5,563.8,751.1,560.4,750.7,557.1z"/>
	</g>
	<path fill-rule="evenodd" clip-rule="evenodd" fill="#FFFFFF" d="M1022,259.4c21.8,49.2,43.5,98.5,65.3,147.6
		c21.7,49.2,43.5,98.4,65.3,147.5c-66.2,6.9-132.5,13.9-198.7,20.8c-66.2,6.9-132.5,13.9-198.6,20.8c-6-51.4-12-102.8-18-154.1
		c-6-51.4-12-102.8-17.9-154.2c50.4-4.7,100.9-9.4,151.3-14.2C921.1,268.8,971.5,264.1,1022,259.4z"/>
	<path fill-rule="evenodd" clip-rule="evenodd" fill="#E4DDD7" d="M1008.5,269.1c19.8,46.6,39.4,93.2,59.2,139.9
		c19.7,46.6,39.5,93.2,59.2,139.8c-62.1,6.5-124.3,13-186.4,19.5c-62.1,6.5-124.2,13-186.3,19.5c-5.7-48.6-11.3-97.2-17-145.7
		c-5.7-48.6-11.3-97.2-17-145.8c48-4.5,96-9,144.1-13.5C912.4,278.2,960.5,273.7,1008.5,269.1z"/>
	<path fill-rule="evenodd" clip-rule="evenodd" fill="#FFFFFF" d="M844,284.6c-14,24-28.5,48.4-44.4,72.5
		c-16.3,24.6-34,48.9-52.2,73.6c7.7,0.6,15.4,1.1,23.1,1.7c18.4-25.3,36.2-50.3,52.4-75.5c15.9-24.8,30.4-49.7,44.3-74.4
		C859.5,283.2,851.7,283.9,844,284.6z"/>
	<path fill="#FFFFFF" d="M790.9,419.7c9.4,14.2,28.3,39.6,79.4,63.6c23.8,10.8,54.8,21.3,95.2,30.1c41.1,8.9,92.2,16.1,155,20.6
		c1.7,3.9,3.3,7.8,5,11.7c-70.5-4.4-127.4-11.9-172.9-21.5c-44.7-9.4-78.6-20.9-104.5-32.7c-53.6-25.5-72.9-52.2-82.5-67.2
		C774.1,422.7,782.5,421.2,790.9,419.7z"/>
	<path fill-rule="evenodd" clip-rule="evenodd" fill="#FFFFFF" d="M1017.3,290.1c-42.5,22.5-86.7,45.4-132.9,68.1
		c-47.7,23.4-97.4,46.6-148.7,70.3c0.5,4.4,1,8.8,1.5,13.1c51.9-23.7,102.3-47,150.7-70.5c46.8-22.8,91.6-45.8,134.7-68.4
		C1020.9,298.5,1019.2,294.3,1017.3,290.1z"/>
	<path fill-rule="evenodd" clip-rule="evenodd" fill="#FFFFFF" d="M794.7,583.5c-7.2-48.4-14.3-96.7-21.5-145.1
		c-7.2-48.4-14.4-96.7-21.6-145.1c-7.1,0.7-14.3,1.4-21.4,2c6.2,48.5,12.3,97.1,18.4,145.6c6.2,48.5,12.3,97,18.5,145.5
		C776.2,585.4,785.5,584.5,794.7,583.5z"/>
	<path fill-rule="evenodd" clip-rule="evenodd" fill="#FFFFFF" d="M1059.5,389.8c-54.1,5.4-108.3,10.8-162.3,16.1
		c-54.1,5.4-108.2,10.7-162.3,16.1c0.4,3.4,0.8,6.8,1.2,10.2c54.6-5.4,109.1-10.9,163.7-16.3c54.6-5.4,109.2-10.9,163.8-16.3
		C1062.3,396.4,1061,393.1,1059.5,389.8z"/>
	<path fill-rule="evenodd" clip-rule="evenodd" fill="#FDB836" d="M754.7,394.7c23.2-2.3,72.3,6.5,75.6,23
		c3.3,16.4-42.9,34.7-67.4,37.1c-24.5,2.5-16.5,1.1-24,0.8c-2.2-19-4.4-38-6.6-57C739.2,396.9,731.5,397,754.7,394.7z"/>
	<path fill-rule="evenodd" clip-rule="evenodd" fill="#8EC63F" d="M756,404.6c17.2-1.7,49,4.3,51,15.4c2,11.1-27.6,23.2-45.4,25
		c-17.9,1.8-16.9,0.8-24-0.2c-1.4-11.9-2.8-23.7-4.2-35.5C740,407.1,738.8,406.3,756,404.6z"/>
	<path fill-rule="evenodd" clip-rule="evenodd" fill="#FFFFFF" d="M752.2,377.5c-0.3-3.4-0.5-6.8-0.7-10.2
		c-7.7,0.1-15.3,0.2-22.8,0.2c0.4,3.4,0.8,6.8,1.2,10.3C737.2,377.6,744.7,377.6,752.2,377.5z"/>
	<path fill-rule="evenodd" clip-rule="evenodd" fill="#FFFFFF" d="M758.7,387.7c0.4-3.9,0.8-7.8,1.2-11.8c-10,0.9-20,1.7-30.1,2.6
		c0.5,3.9,0.9,7.7,1.4,11.6C740.4,389.3,749.5,388.5,758.7,387.7z"/>
	<path fill-rule="evenodd" clip-rule="evenodd" fill="#FFFFFF" d="M779.2,528.3c-0.9-3.3-1.7-6.7-2.6-10
		c-10.1,0.4-20.2,0.9-30.3,1.4c0.4,3.4,0.8,6.8,1.2,10.2C758,529.4,768.6,528.9,779.2,528.3z"/>
	<path fill-rule="evenodd" clip-rule="evenodd" fill="#FFFFFF" d="M860.3,492.1c9.3,0.7,18.6,1.4,27.9,2
		c16.5-14.9,32.6-29.6,48.1-44.4c15.3-14.6,29.9-29.4,44.2-44c-8.9-0.7-17.8-1.4-26.6-2.2c-14.6,14.6-29.5,29.4-44.9,44.1
		C893.3,462.4,877,477.2,860.3,492.1z"/>
	<path fill-rule="evenodd" clip-rule="evenodd" fill="#FFFFFF" d="M915.8,570.8c-6.4-13.9-12.7-27.8-18.8-41.7
		c-6.2-13.9-12.3-27.9-18.3-41.9c-9.4,1.3-18.8,2.7-28.3,4c5.6,13.8,11.3,27.7,17.1,41.5c5.8,13.8,11.7,27.5,17.8,41.3
		C895.4,573,905.6,571.9,915.8,570.8z"/>
	<path fill-rule="evenodd" clip-rule="evenodd" fill="#FFFFFF" d="M874.7,497.8c-1.4-4.6-2.9-9.3-4.3-13.9
		c-17.1,5.2-34.3,10.4-51.7,15.6c-17.4,5.2-35,10.5-52.6,15.7c1,4.7,2,9.4,3,14.1c17.9-5.3,35.6-10.5,53.3-15.8
		C839.9,508.3,857.3,503,874.7,497.8z"/>
	<path fill-rule="evenodd" clip-rule="evenodd" fill="#FFFFFF" d="M771.4,481.9c1.7-3.9,3.3-7.9,5-11.9c-11.8,1.2-23.7,2.4-35.4,3.6
		c0.4,3.7,0.9,7.5,1.3,11.2C751.9,483.9,761.6,482.9,771.4,481.9z"/>
	<path fill-rule="evenodd" clip-rule="evenodd" fill="#FFFFFF" d="M835.9,315.5c1.3,3.7,2.5,7.4,3.8,11c24.3-1.4,48.5-2.9,72.8-4.4
		c24.3-1.5,48.7-3,73.2-4.5c5.2-3.6,10.4-7.2,15.6-10.8c-27.7,1.5-55.4,2.9-83,4.4C890.7,312.7,863.3,314,835.9,315.5z"/>
	<path fill-rule="evenodd" clip-rule="evenodd" fill="#FFFFFF" d="M887.1,315.8c9.7,0.4,19.5,0.7,29.2,1
		c9.7-13.9,19.2-27.9,28.2-41.7c-10.4,1-20.7,2-31,2.9C904.9,290.6,896.2,303.2,887.1,315.8z"/>
	<path fill-rule="evenodd" clip-rule="evenodd" fill="#FFFFFF" d="M803.1,359.8c1.1,3.7,2.3,7.5,3.4,11.2c16-1.9,32.1-3.8,48.1-5.7
		c16-1.9,32-3.8,48.1-5.7c5.7-3.6,11.4-7.3,17-10.9c-19.4,1.9-38.9,3.7-58.3,5.6C842,356.1,822.5,358,803.1,359.8z"/>
	<path fill-rule="evenodd" clip-rule="evenodd" fill="#D4CBBA" d="M867.2,282.4c-5.9,10.8-12,21.6-18.3,32.4
		c13.5-0.7,26.9-1.3,40.5-2.1c8.3-11.6,16.3-23.1,24.1-34.7C898,279.5,882.6,281,867.2,282.4z"/>
	<path fill-rule="evenodd" clip-rule="evenodd" fill="#FFFFFF" d="M1088,456.8c-27.3-3-54.4-6.1-81.2-9.2c-26.5-3.1-52.9-6.4-79-9.6
		c-3.2,3.3-6.5,6.6-9.7,9.9c28.4,3.5,57.1,7,86,10.3c29.2,3.4,58.8,6.7,88.6,9.9C1091.2,464.4,1089.6,460.7,1088,456.8z"/>
	<path fill-rule="evenodd" clip-rule="evenodd" fill="#FFFFFF" d="M958.5,522.2c8,1.1,16,2.2,24,3.2c21.9-22.9,42.9-45.7,63-68.4
		c-7.8-1.1-15.6-2.2-23.4-3.3C1001.8,476.5,980.6,499.3,958.5,522.2z"/>
	<path fill-rule="evenodd" clip-rule="evenodd" fill="#FFFFFF" d="M1103.3,493c-30.2-4.1-60.2-8.4-89.8-12.6
		c-4.2,3.6-8.4,7.2-12.7,10.8c17.7,2.6,35.5,5.1,53.4,7.5c18.1,2.5,36.3,4.9,54.6,7.4C1107,501.8,1105.2,497.4,1103.3,493z"/>
	<path fill-rule="evenodd" clip-rule="evenodd" fill="#FFFFFF" d="M1025,533.5c8.5,0.8,17,1.6,25.6,2.3c14.2-14.2,28-28.4,41.4-42.5
		c-8.4-0.8-16.8-1.5-25.1-2.4C1053.3,505.1,1039.3,519.3,1025,533.5z"/>
	<path fill-rule="evenodd" clip-rule="evenodd" fill="#8EC63F" d="M1013.4,493c-7.8,8.4-15.7,16.8-23.7,25.2c0,0,11.5,2.1,21.4,3.7
		c9.9,1.5,22.4,3.3,22.4,3.3c8.6-8.6,17.1-17.2,25.4-25.8C1043.6,497.3,1028.5,495.1,1013.4,493z"/>
	<path fill-rule="evenodd" clip-rule="evenodd" fill="#D4CBBA" d="M740.2,377.6c-3.5,0.3-6.9,0.6-10.4,0.8c0-0.2,0-0.5-0.1-0.8
		C733.2,377.7,736.7,377.7,740.2,377.6z"/>
	<polygon fill-rule="evenodd" clip-rule="evenodd" fill="#8EC63F" points="1022.7,302.7 936,347.2 953.2,400.3 1059.5,389.8 	"/>
	<polygon fill-rule="evenodd" clip-rule="evenodd" fill="#FFFFFF" points="922.4,350 941.9,403.4 955.9,401.7 935.5,343.6 	"/>
	<path fill-rule="evenodd" clip-rule="evenodd" fill="#FDB836" d="M1017.3,290.1l5.3,12.6c-72.5,38.5-146.6,75-222.1,110
		c-4.6-2.7-11.1-4.8-18-6.2C862.6,368.3,940.9,329.5,1017.3,290.1z"/>
	<path fill-rule="evenodd" clip-rule="evenodd" fill="#FDB836" d="M1022.7,302.7c-7.5,4-15.1,8-22.7,11.9v-0.1
		C1007.6,310.5,1015.2,306.6,1022.7,302.7L1022.7,302.7z M1000,299.2V299c5.8-3,11.6-5.9,17.3-8.9
		C1011.6,293.1,1005.8,296.2,1000,299.2z M1000,314.6c-23.4,12.2-46.9,24.2-70.5,36.1v-0.2c24-12,47.5-24.1,70.5-36V314.6
		L1000,314.6z M1000,299v0.2c-5.4,2.9-10.9,5.7-16.4,8.6l-1,0.1C988.4,304.9,994.2,301.9,1000,299L1000,299z M929.5,335.7
		c10.9-5.5,21.7-11.1,32.4-16.6l-1.6,0.1c-10.3,5.2-20.5,10.4-30.9,15.5V335.7z M929.5,350.7c-27.7,13.9-55.7,27.5-83.8,40.8v-0.2
		c14.3-6.7,28.3-13.5,42.3-20.3c14-6.8,27.9-13.7,41.5-20.5V350.7L929.5,350.7z M929.5,334.7c-10.8,5.4-21.6,10.8-32.4,16.1l2.8-0.3
		c10-5,19.8-9.9,29.6-14.9V334.7L929.5,334.7z M845.7,377c9.8-4.7,19.4-9.3,29-14l-3,0.4c-8.7,4.3-17.4,8.5-26.1,12.7V377z
		 M845.7,391.5c-9.6,4.5-19.2,9.1-28.8,13.6l-0.2-0.1c9.7-4.5,19.4-9.1,29-13.6V391.5L845.7,391.5z M845.7,376
		c-15.7,7.6-31.4,15.2-47.2,22.8l0.7,0.2c15.7-7.4,31.2-14.7,46.5-22V376z"/>
	<path fill-rule="evenodd" clip-rule="evenodd" fill="#CB952F" d="M735.7,428.4L735.7,428.4l0.1,1.1L735.7,428.4L735.7,428.4z
		 M720.3,431.3c-90.5,15.7-181.1,29.5-271.9,41.5l-1.9,12.8c94.6-12.2,190.1-26.4,286.6-43.3C727.7,438.9,723.3,435.1,720.3,431.3z"
		/>
	<polygon fill-rule="evenodd" clip-rule="evenodd" fill="#FDB836" points="448.4,472.8 446.5,485.6 352.9,529.3 312.9,536.1 	"/>
	<polygon fill-rule="evenodd" clip-rule="evenodd" fill="#FDB836" points="180,409.4 174.3,419.6 464.3,362.7 466.9,352.8 	"/>
	<polygon fill-rule="evenodd" clip-rule="evenodd" fill="#CB952F" points="466.9,352.8 464.3,362.5 699.8,422.9 701.3,413.3 	"/>
	<path fill-rule="evenodd" clip-rule="evenodd" fill="#FDB836" d="M827.8,412.8l231.7-23l4.2,9.8c0,0-230.9,25.4-234.6,23.4
		C825.4,421,819.9,413.6,827.8,412.8z"/>
	<path fill-rule="evenodd" clip-rule="evenodd" fill="#FDB836" d="M730.1,295.3l21.4-2l15,101.2c-4.4-0.1-8.4-0.1-11.9,0.3
		c-5.4,0.5-9.2,0.9-11.8,1.3L730.1,295.3z"/>
	<path fill="#FDB836" d="M799.5,431.5c11.6,14.4,31.8,33.5,70.8,51.8c23.8,10.8,54.8,21.3,95.2,30.1c41.1,8.9,92.2,16.1,155,20.6
		c1.7,3.9,3.3,7.8,5,11.7c-70.5-4.4-127.4-11.9-172.9-21.5c-44.7-9.4-78.6-20.9-104.5-32.7c-36.8-17.5-57.4-35.6-69.9-50
		C786.2,438.9,794,435.4,799.5,431.5z"/>
	<polygon fill-rule="evenodd" clip-rule="evenodd" fill="#FDB836" points="325.3,380.7 475.7,281.1 474.2,294.2 356.8,374.5 	"/>
	<polygon fill-rule="evenodd" clip-rule="evenodd" fill="#CB952F" points="538.9,245.4 475.7,281.1 474.2,294.2 552.9,249.3 	"/>
	<polygon fill-rule="evenodd" clip-rule="evenodd" fill="#FDB836" points="477.5,271 227.9,301.5 223.3,311.5 476.1,281 	"/>
	<path fill-rule="evenodd" clip-rule="evenodd" fill="#CB952F" d="M477.5,271c-0.7,3.4-1.4,6.8-2.1,10.2
		c83.7,32.6,168.4,64.6,253.8,96.3c-0.5-3.8-1.1-7.7-1.6-11.5C644.3,334.3,560.9,302.7,477.5,271z"/>
	<polygon fill-rule="evenodd" clip-rule="evenodd" fill="#FDB836" points="728.6,366.8 741.2,366.3 741,377.6 729.8,377.7 	"/>
	<path fill-rule="evenodd" clip-rule="evenodd" fill="#FDB836" d="M130,517.3c52.3-17.5,103.8-34.9,154.4-52.6
		c45.5-15.9,90.4-32,134.5-48.1c-3.8-2.1-7.7-4-11.7-5.8c-40.7,14.9-82.1,29.9-124,44.7c-48.6,17.1-98.1,34-148.3,51
		C133.3,510,131.7,513.7,130,517.3z"/>
	<path fill-rule="evenodd" clip-rule="evenodd" fill="#FDB836" d="M1125.6,545.7c-0.9-3.3-1.7-6.7-2.6-10.1
		c-11.5,0.6-360.9,20.9-372.3,21.5c0.4,3.4,0.8,6.8,1.2,10.2C763.7,566.6,1113.7,546.3,1125.6,545.7z"/>
	<path fill-rule="evenodd" clip-rule="evenodd" fill="#8BC90C" d="M759.4,50C700.3,50,652.3,98,652.3,157.1
		c0,51,35.7,93.7,83.5,104.5c6.1,1.4,5.7,5.9,6.4,12.3l17.2,153.8l17-151.6c0.7-6.2,0.5-13.1,6.3-14.4c48-10.6,83.9-53.4,83.9-104.6
		C866.5,98,818.6,50,759.4,50z"/>
	<g>
		<polygon fill-rule="evenodd" clip-rule="evenodd" fill="#466606" points="762,404.6 756.8,404.6 759.4,427.7 		"/>
		<polygon fill-rule="evenodd" clip-rule="evenodd" fill="#476706" points="762.3,401.7 756.5,401.7 759.1,424.8 759.7,424.8 		"/>
		<polygon fill-rule="evenodd" clip-rule="evenodd" fill="#476806" points="762.7,398.8 756.2,398.8 758.8,421.9 760.1,421.9 		"/>
		<polygon fill-rule="evenodd" clip-rule="evenodd" fill="#486906" points="763,395.9 755.9,395.9 758.4,419 760.4,419 		"/>
		<polygon fill-rule="evenodd" clip-rule="evenodd" fill="#496A06" points="763.3,393 755.5,393 758.1,416.2 760.7,416.2 		"/>
		<polygon fill-rule="evenodd" clip-rule="evenodd" fill="#496B06" points="763.6,390.1 755.2,390.1 757.8,413.3 761,413.3 		"/>
		<polygon fill-rule="evenodd" clip-rule="evenodd" fill="#4A6C06" points="763.9,387.2 754.9,387.2 757.5,410.4 761.4,410.4 		"/>
		<polygon fill-rule="evenodd" clip-rule="evenodd" fill="#4B6D06" points="764.3,384.3 754.6,384.3 757.2,407.5 761.7,407.5 		"/>
		<polygon fill-rule="evenodd" clip-rule="evenodd" fill="#4B6E06" points="764.6,381.5 754.2,381.5 756.8,404.6 762,404.6 		"/>
		<polygon fill-rule="evenodd" clip-rule="evenodd" fill="#4C6F07" points="764.9,378.6 753.9,378.6 756.5,401.7 762.3,401.7 		"/>
		<polygon fill-rule="evenodd" clip-rule="evenodd" fill="#4D7007" points="765.2,375.7 753.6,375.7 756.2,398.8 762.6,398.8 		"/>
		<polygon fill-rule="evenodd" clip-rule="evenodd" fill="#4E7107" points="765.6,372.8 753.3,372.8 755.9,395.9 763,395.9 		"/>
		<polygon fill-rule="evenodd" clip-rule="evenodd" fill="#4E7207" points="765.9,369.9 752.9,369.9 755.5,393 763.3,393 		"/>
		<polygon fill-rule="evenodd" clip-rule="evenodd" fill="#4F7307" points="766.2,367 752.6,367 755.2,390.2 763.6,390.2 		"/>
		<polygon fill-rule="evenodd" clip-rule="evenodd" fill="#507407" points="766.5,364.1 752.3,364.1 754.9,387.3 763.9,387.3 		"/>
		<polygon fill-rule="evenodd" clip-rule="evenodd" fill="#507507" points="766.9,361.2 752,361.2 754.6,384.4 764.3,384.4 		"/>
		<polygon fill-rule="evenodd" clip-rule="evenodd" fill="#517607" points="767.2,358.3 751.6,358.3 754.2,381.5 764.6,381.5 		"/>
		<polygon fill-rule="evenodd" clip-rule="evenodd" fill="#527707" points="767.5,355.5 751.3,355.5 753.9,378.6 764.9,378.6 		"/>
		<polygon fill-rule="evenodd" clip-rule="evenodd" fill="#527807" points="767.8,352.6 751,352.6 753.6,375.7 765.2,375.7 		"/>
		<polygon fill-rule="evenodd" clip-rule="evenodd" fill="#537907" points="768.2,349.7 750.7,349.7 753.3,372.8 765.6,372.8 		"/>
		<polygon fill-rule="evenodd" clip-rule="evenodd" fill="#547A07" points="768.5,346.8 750.4,346.8 752.9,369.9 765.9,369.9 		"/>
		<polygon fill-rule="evenodd" clip-rule="evenodd" fill="#547B07" points="768.8,343.9 750,343.9 752.6,367.1 766.2,367.1 		"/>
		<polygon fill-rule="evenodd" clip-rule="evenodd" fill="#557C07" points="769.1,341 749.7,341 752.3,364.2 766.5,364.2 		"/>
		<polygon fill-rule="evenodd" clip-rule="evenodd" fill="#567D07" points="769.4,338.1 749.4,338.1 752,361.3 766.9,361.3 		"/>
		<polygon fill-rule="evenodd" clip-rule="evenodd" fill="#567E07" points="769.8,335.2 749.1,335.2 751.7,358.4 767.2,358.4 		"/>
		<polygon fill-rule="evenodd" clip-rule="evenodd" fill="#577F07" points="770.1,332.3 748.7,332.3 751.3,355.5 767.5,355.5 		"/>
		<polygon fill-rule="evenodd" clip-rule="evenodd" fill="#587F08" points="770.4,329.5 748.4,329.5 751,352.6 767.8,352.6 		"/>
		<polygon fill-rule="evenodd" clip-rule="evenodd" fill="#588008" points="770.7,326.6 748.1,326.6 750.7,349.7 768.1,349.7 		"/>
		<polygon fill-rule="evenodd" clip-rule="evenodd" fill="#598108" points="771.1,323.7 747.8,323.7 750.4,346.8 768.5,346.8 		"/>
		<polygon fill-rule="evenodd" clip-rule="evenodd" fill="#5A8208" points="771.4,320.8 747.4,320.8 750,343.9 768.8,343.9 		"/>
		<polygon fill-rule="evenodd" clip-rule="evenodd" fill="#5A8308" points="771.7,317.9 747.1,317.9 749.7,341.1 769.1,341.1 		"/>
		<polygon fill-rule="evenodd" clip-rule="evenodd" fill="#5B8408" points="772,315 746.8,315 749.4,338.2 769.4,338.2 		"/>
		<polygon fill-rule="evenodd" clip-rule="evenodd" fill="#5C8508" points="772.4,312.1 746.5,312.1 749.1,335.3 769.8,335.3 		"/>
		<polygon fill-rule="evenodd" clip-rule="evenodd" fill="#5D8608" points="772.7,309.2 746.2,309.2 748.7,332.4 770.1,332.4 		"/>
		<polygon fill-rule="evenodd" clip-rule="evenodd" fill="#5D8708" points="773,306.3 745.8,306.3 748.4,329.5 770.4,329.5 		"/>
		<polygon fill-rule="evenodd" clip-rule="evenodd" fill="#5E8808" points="773.3,303.5 745.5,303.5 748.1,326.6 770.7,326.6 		"/>
		<polygon fill-rule="evenodd" clip-rule="evenodd" fill="#5F8908" points="773.6,300.6 745.2,300.6 747.8,323.7 771.1,323.7 		"/>
		<polygon fill-rule="evenodd" clip-rule="evenodd" fill="#5F8A08" points="774,297.7 744.9,297.7 747.4,320.8 771.4,320.8 		"/>
		<polygon fill-rule="evenodd" clip-rule="evenodd" fill="#608B08" points="774.3,294.8 744.5,294.8 747.1,317.9 771.7,317.9 		"/>
		<polygon fill-rule="evenodd" clip-rule="evenodd" fill="#618C08" points="774.6,291.9 744.2,291.9 746.8,315.1 772,315.1 		"/>
		<polygon fill-rule="evenodd" clip-rule="evenodd" fill="#618D08" points="774.9,289 743.9,289 746.5,312.2 772.4,312.2 		"/>
		<polygon fill-rule="evenodd" clip-rule="evenodd" fill="#628E08" points="775.3,286.1 743.6,286.1 746.2,309.3 772.7,309.3 		"/>
		<polygon fill-rule="evenodd" clip-rule="evenodd" fill="#638F08" points="775.6,283.2 743.2,283.2 745.8,306.4 773,306.4 		"/>
		<polygon fill-rule="evenodd" clip-rule="evenodd" fill="#639009" points="775.9,280.3 742.9,280.3 745.5,303.5 773.3,303.5 		"/>
		<polygon fill-rule="evenodd" clip-rule="evenodd" fill="#649109" points="776.2,277.5 742.6,277.5 745.2,300.6 773.6,300.6 		"/>
		<path fill-rule="evenodd" clip-rule="evenodd" fill="#659209" d="M776.5,274.6h-34.3l2.6,23.2H774l2.4-21.6
			C776.4,275.6,776.5,275.1,776.5,274.6z"/>
		<path fill-rule="evenodd" clip-rule="evenodd" fill="#659309" d="M776.8,271.7H742c0.1,0.7,0.1,1.4,0.2,2.2l2.3,20.9h29.8
			l2.1-18.7C776.6,274.6,776.7,273.1,776.8,271.7z"/>
		<path fill-rule="evenodd" clip-rule="evenodd" fill="#669409" d="M777.2,268.8h-35.6c0.2,1.5,0.3,3.2,0.5,5.1l2,18.1h30.4
			l1.8-15.9C776.7,273.6,776.8,271.1,777.2,268.8z"/>
		<path fill-rule="evenodd" clip-rule="evenodd" fill="#679509" d="M778,265.9h-37c0.7,2.1,0.8,4.8,1.2,8l1.7,15.2h31l1.5-13
			C776.8,272.5,776.9,268.7,778,265.9z"/>
		<path fill-rule="evenodd" clip-rule="evenodd" fill="#679609" d="M780,263h-41c2.8,2.1,2.6,5.9,3.2,10.9l1.4,12.3h31.7l1.1-10.1
			C776.9,271.1,776.9,265.6,780,263z"/>
		<path fill-rule="evenodd" clip-rule="evenodd" fill="#689709" d="M788.9,260.1h-59c1.9,0.6,3.9,1.1,5.9,1.5
			c6.1,1.4,5.7,5.9,6.4,12.3l1.1,9.4h32.3l0.8-7.2c0.7-6.2,0.5-13.1,6.3-14.4C784.8,261.2,786.8,260.7,788.9,260.1z"/>
		<path fill-rule="evenodd" clip-rule="evenodd" fill="#699809" d="M797.6,257.2h-76.3c4.7,1.8,9.5,3.3,14.5,4.4
			c6.1,1.4,5.7,5.9,6.4,12.3l0.7,6.5h33l0.5-4.3c0.7-6.2,0.5-13.1,6.3-14.4C787.8,260.6,792.8,259.1,797.6,257.2z"/>
		<path fill-rule="evenodd" clip-rule="evenodd" fill="#6A9909" d="M804.4,254.3h-90c6.8,3.1,13.9,5.6,21.4,7.3
			c6.1,1.4,5.7,5.9,6.4,12.3l0.4,3.6h33.6l0.2-1.4c0.7-6.2,0.5-13.1,6.3-14.4C790.2,260,797.5,257.5,804.4,254.3z"/>
		<path fill-rule="evenodd" clip-rule="evenodd" fill="#6A9A09" d="M810.2,251.5H708.6c8.4,4.6,17.5,8,27.1,10.2
			c6.1,1.4,5.7,5.9,6.4,12.3l0.1,0.7h34.3c0.5-5.7,0.8-11.7,6.1-12.9C792.4,259.5,801.6,256.1,810.2,251.5z"/>
		<path fill-rule="evenodd" clip-rule="evenodd" fill="#6B9B09" d="M815.2,248.6H703.6c9.8,6,20.6,10.5,32.2,13.1
			c5.4,1.2,5.7,4.9,6.2,10.1h34.8c0.5-4.7,1.4-9,5.8-10C794.3,259.1,805.3,254.6,815.2,248.6z"/>
		<path fill-rule="evenodd" clip-rule="evenodd" fill="#6C9C09" d="M819.7,245.7H699.1c10.9,7.5,23.3,12.9,36.6,15.9
			c4.3,1,5.4,3.5,5.9,7.2h35.5c0.6-3.5,1.9-6.3,5.5-7.1C796.1,258.7,808.7,253.2,819.7,245.7z"/>
		<path fill-rule="evenodd" clip-rule="evenodd" fill="#6C9D09" d="M823.7,242.8H695.1c11.9,8.9,25.7,15.5,40.7,18.8
			c3.1,0.7,4.5,2.2,5.2,4.3H778c0.8-2.1,2.2-3.7,4.7-4.2C797.8,258.4,811.7,251.8,823.7,242.8z"/>
		<path fill-rule="evenodd" clip-rule="evenodd" fill="#6D9E09" d="M827.4,239.9l-135.9,0c12.7,10.4,27.8,18,44.3,21.7
			c1.4,0.3,2.5,0.8,3.3,1.4h40.8c0.7-0.6,1.6-1.1,2.8-1.3C799.4,258,814.6,250.4,827.4,239.9z"/>
		<path fill-rule="evenodd" clip-rule="evenodd" fill="#6E9F09" d="M830.8,237H688.1c11.9,10.6,26.2,18.7,42,23.2h58.7
			C804.5,255.7,818.8,247.7,830.8,237z"/>
		<path fill-rule="evenodd" clip-rule="evenodd" fill="#6EA00A" d="M833.9,234.1l-148.9,0c10.3,10,22.7,17.9,36.4,23.2h76.1
			C811.2,252.1,823.5,244.1,833.9,234.1z"/>
		<path fill-rule="evenodd" clip-rule="evenodd" fill="#6FA10A" d="M836.7,231.2H682.1c9.2,9.6,20.2,17.5,32.4,23.2h89.8
			C816.6,248.7,827.5,240.8,836.7,231.2z"/>
		<path fill-rule="evenodd" clip-rule="evenodd" fill="#70A20A" d="M839.4,228.3h-160c8.3,9.3,18.2,17.2,29.3,23.2h101.4
			C821.2,245.5,831.1,237.7,839.4,228.3z"/>
		<path fill-rule="evenodd" clip-rule="evenodd" fill="#70A30A" d="M841.9,225.5H676.9c7.6,9.1,16.6,17,26.7,23.2l111.4,0
			C825.3,242.4,834.3,234.6,841.9,225.5z"/>
		<path fill-rule="evenodd" clip-rule="evenodd" fill="#71A40A" d="M844.2,222.6H674.6c6.9,9,15.2,16.8,24.6,23.2l120.4,0
			C829,239.3,837.3,231.5,844.2,222.6z"/>
		<path fill-rule="evenodd" clip-rule="evenodd" fill="#72A50A" d="M846.4,219.7H672.5c6.4,8.8,14,16.6,22.7,23.2l128.5,0
			C832.3,236.3,840,228.5,846.4,219.7z"/>
		<path fill-rule="evenodd" clip-rule="evenodd" fill="#72A60A" d="M848.4,216.8l-177.9,0c5.9,8.7,12.9,16.5,21,23.2h135.8
			C835.4,233.3,842.5,225.5,848.4,216.8z"/>
		<path fill-rule="evenodd" clip-rule="evenodd" fill="#73A70A" d="M850.2,213.9H668.6c5.4,8.6,12,16.4,19.5,23.2h142.6
			C838.3,230.3,844.8,222.5,850.2,213.9z"/>
		<path fill-rule="evenodd" clip-rule="evenodd" fill="#74A80A" d="M852,211H666.8c5,8.5,11.1,16.3,18.2,23.2h148.8
			C840.9,227.3,847,219.6,852,211z"/>
		<path fill-rule="evenodd" clip-rule="evenodd" fill="#74A90A" d="M853.6,208.1H665.2c4.6,8.5,10.3,16.3,16.9,23.2l154.6,0
			C843.3,224.4,849,216.6,853.6,208.1z"/>
		<path fill-rule="evenodd" clip-rule="evenodd" fill="#75AA0A" d="M855.1,205.2H663.7c4.2,8.4,9.5,16.2,15.8,23.2l159.9,0
			C845.6,221.4,850.9,213.6,855.1,205.2z"/>
		<path fill-rule="evenodd" clip-rule="evenodd" fill="#76AB0A" d="M856.5,202.3l-194.2,0c3.9,8.4,8.8,16.1,14.7,23.2h164.9
			C847.7,218.5,852.6,210.7,856.5,202.3z"/>
		<path fill-rule="evenodd" clip-rule="evenodd" fill="#77AC0A" d="M857.8,199.5H661c3.6,8.3,8.2,16.1,13.7,23.2l169.5,0
			C849.6,215.5,854.2,207.8,857.8,199.5z"/>
		<path fill-rule="evenodd" clip-rule="evenodd" fill="#77AD0A" d="M859,196.6H659.8c3.3,8.3,7.6,16,12.7,23.2h173.8
			C851.5,212.6,855.7,204.8,859,196.6z"/>
		<path fill-rule="evenodd" clip-rule="evenodd" fill="#78AE0A" d="M860.1,193.7H658.7c3,8.2,7,16,11.8,23.2h177.9
			C853.2,209.7,857.1,201.9,860.1,193.7z"/>
		<path fill-rule="evenodd" clip-rule="evenodd" fill="#79AF0A" d="M861.1,190.8l-203.4,0c2.7,8.2,6.4,16,10.9,23.2h181.6
			C854.7,206.8,858.4,199,861.1,190.8z"/>
		<path fill-rule="evenodd" clip-rule="evenodd" fill="#79B00A" d="M862,187.9H656.8c2.4,8.2,5.8,15.9,10.1,23.2l185.1,0
			C856.2,203.8,859.6,196.1,862,187.9z"/>
		<path fill-rule="evenodd" clip-rule="evenodd" fill="#7AB00B" d="M862.8,185H656c2.2,8.1,5.3,15.9,9.3,23.2h188.4
			C857.5,200.9,860.7,193.2,862.8,185z"/>
		<path fill-rule="evenodd" clip-rule="evenodd" fill="#7BB10B" d="M863.6,182.1H655.3c1.9,8.1,4.8,15.9,8.5,23.2h191.4
			C858.8,198,861.6,190.2,863.6,182.1z"/>
		<path fill-rule="evenodd" clip-rule="evenodd" fill="#7BB20B" d="M864.2,179.2H654.6c1.7,8.1,4.3,15.8,7.7,23.2h194.2
			C859.9,195.1,862.5,187.3,864.2,179.2z"/>
		<path fill-rule="evenodd" clip-rule="evenodd" fill="#7CB30B" d="M864.8,176.3H654c1.5,8.1,3.8,15.8,7,23.2h196.8
			C861,192.2,863.3,184.4,864.8,176.3z"/>
		<path fill-rule="evenodd" clip-rule="evenodd" fill="#7DB40B" d="M865.3,173.5H653.6c1.2,8,3.4,15.8,6.3,23.2l199.2,0
			C861.9,189.3,864,181.5,865.3,173.5z"/>
		<path fill-rule="evenodd" clip-rule="evenodd" fill="#7DB50B" d="M865.7,170.6H653.2c1,8,2.9,15.8,5.6,23.2h201.4
			C862.8,186.3,864.7,178.6,865.7,170.6z"/>
		<path fill-rule="evenodd" clip-rule="evenodd" fill="#7EB60B" d="M866,167.7H652.8c0.8,8,2.4,15.8,4.9,23.2h203.4
			C863.5,183.4,865.2,175.7,866,167.7z"/>
		<path fill-rule="evenodd" clip-rule="evenodd" fill="#7FB70B" d="M866.2,164.8H652.6c0.6,8,2,15.7,4.2,23.2H862
			C864.2,180.5,865.7,172.8,866.2,164.8z"/>
		<path fill-rule="evenodd" clip-rule="evenodd" fill="#7FB80B" d="M866.4,161.9h-214c0.3,8,1.6,15.7,3.6,23.2l206.8,0
			C864.8,177.6,866.1,169.9,866.4,161.9z"/>
		<path fill-rule="evenodd" clip-rule="evenodd" fill="#80B90B" d="M866.5,159H652.3c0.1,8,1.1,15.7,2.9,23.2h208.3
			C865.3,174.7,866.4,167,866.5,159z"/>
		<path fill-rule="evenodd" clip-rule="evenodd" fill="#81BA0B" d="M866.5,156.1H652.3c0,0.3,0,0.7,0,1c0,7.6,0.8,15,2.3,22.1h209.6
			c1.5-7.1,2.3-14.5,2.3-22.1C866.5,156.8,866.5,156.5,866.5,156.1z"/>
		<path fill-rule="evenodd" clip-rule="evenodd" fill="#81BB0B" d="M866.4,153.2l-214,0c0,1.3-0.1,2.6-0.1,3.9
			c0,6.6,0.6,13,1.7,19.2h210.7c1.1-6.2,1.7-12.7,1.7-19.2C866.5,155.8,866.5,154.5,866.4,153.2z"/>
		<path fill-rule="evenodd" clip-rule="evenodd" fill="#82BC0B" d="M866.3,150.3H652.5c-0.1,2.2-0.2,4.5-0.2,6.8
			c0,5.6,0.4,11,1.2,16.4h211.7c0.8-5.3,1.2-10.8,1.2-16.4C866.5,154.9,866.4,152.6,866.3,150.3z"/>
		<path fill-rule="evenodd" clip-rule="evenodd" fill="#83BD0B" d="M866.1,147.5H652.8c-0.3,3.2-0.4,6.4-0.4,9.7
			c0,4.6,0.3,9.1,0.8,13.5h212.5c0.6-4.4,0.8-8.9,0.8-13.5C866.5,153.9,866.4,150.6,866.1,147.5z"/>
		<path fill-rule="evenodd" clip-rule="evenodd" fill="#83BE0B" d="M865.8,144.6H653.1c-0.5,4.1-0.7,8.3-0.7,12.6
			c0,3.6,0.2,7.1,0.5,10.6H866c0.3-3.5,0.5-7,0.5-10.6C866.5,152.9,866.3,148.7,865.8,144.6z"/>
		<path fill-rule="evenodd" clip-rule="evenodd" fill="#84BF0B" d="M865.4,141.7h-212c-0.7,5-1.1,10.2-1.1,15.5
			c0,2.6,0.1,5.2,0.3,7.7l213.6,0c0.2-2.5,0.3-5.1,0.3-7.7C866.5,151.9,866.1,146.7,865.4,141.7z"/>
		<path fill-rule="evenodd" clip-rule="evenodd" fill="#85C00B" d="M864.9,138.8h-211c-1,6-1.6,12.1-1.6,18.4c0,1.6,0,3.2,0.1,4.8
			h214c0.1-1.6,0.1-3.2,0.1-4.8C866.5,150.9,866,144.8,864.9,138.8z"/>
		<path fill-rule="evenodd" clip-rule="evenodd" fill="#86C10C" d="M864.4,135.9h-210c-1.4,6.9-2.1,14-2.1,21.2c0,0.6,0,1.3,0,1.9
			h214.2c0-0.6,0-1.3,0-1.9C866.5,149.9,865.8,142.8,864.4,135.9z"/>
		<path fill-rule="evenodd" clip-rule="evenodd" fill="#86C20C" d="M863.8,133L655,133c-1.7,7.4-2.6,15.2-2.7,23.2h214.2
			C866.4,148.2,865.5,140.5,863.8,133z"/>
		<path fill-rule="evenodd" clip-rule="evenodd" fill="#87C30C" d="M863.1,130.1H655.8c-1.9,7.4-3.1,15.2-3.4,23.2l214,0
			C866.2,145.3,865,137.6,863.1,130.1z"/>
		<path fill-rule="evenodd" clip-rule="evenodd" fill="#88C40C" d="M862.3,127.2H656.6c-2.2,7.4-3.5,15.2-4,23.2h213.8
			C865.8,142.4,864.4,134.7,862.3,127.2z"/>
		<path fill-rule="evenodd" clip-rule="evenodd" fill="#88C50C" d="M861.4,124.3H657.4c-2.4,7.4-4,15.1-4.7,23.2h213.3
			C865.4,139.5,863.8,131.7,861.4,124.3z"/>
		<path fill-rule="evenodd" clip-rule="evenodd" fill="#89C60C" d="M860.4,121.5h-202c-2.6,7.4-4.4,15.1-5.4,23.2h212.7
			C864.8,136.6,863,128.8,860.4,121.5z"/>
		<path fill-rule="evenodd" clip-rule="evenodd" fill="#8AC70C" d="M859.3,118.6H659.5c-2.8,7.4-4.9,15.1-6.1,23.2h212
			C864.2,133.7,862.2,125.9,859.3,118.6z"/>
		<path fill-rule="evenodd" clip-rule="evenodd" fill="#8AC80C" d="M858.2,115.7H660.6c-3.1,7.3-5.4,15.1-6.8,23.2h211.1
			C863.6,130.8,861.3,123,858.2,115.7z"/>
		<path fill-rule="evenodd" clip-rule="evenodd" fill="#8BC90C" d="M856.9,112.8h-195c-3.3,7.3-5.9,15.1-7.5,23.2h210
			C862.8,127.9,860.3,120.1,856.9,112.8z"/>
	</g>
	<path fill-rule="evenodd" clip-rule="evenodd" fill="#FFFFFF" d="M759.4,250.3c51.3,0,93.1-41.8,93.1-93.1
		c0-51.3-41.8-93.1-93.1-93.1c-51.3,0-93.1,41.8-93.1,93.1C666.3,208.4,708.1,250.3,759.4,250.3z"/>
	<g>
		<path fill-rule="evenodd" clip-rule="evenodd" fill="#466606" d="M805.3,82.2h-91.8c13.4-8.2,29.1-12.9,45.9-12.9
			C776.2,69.2,792,74,805.3,82.2z"/>
		<path fill-rule="evenodd" clip-rule="evenodd" fill="#476706" d="M807.8,83.8H711c9.4-6.2,20.1-10.7,31.6-12.9h33.6
			C787.7,73.1,798.4,77.5,807.8,83.8z"/>
		<path fill-rule="evenodd" clip-rule="evenodd" fill="#476806" d="M810.2,85.4H708.6c8.1-5.8,17.3-10.2,27.1-12.9h47.3
			C792.9,75.2,802.1,79.6,810.2,85.4z"/>
		<path fill-rule="evenodd" clip-rule="evenodd" fill="#486906" d="M812.4,87h-106c7.3-5.5,15.4-9.9,24.2-12.9h57.6
			C797,77.1,805.1,81.5,812.4,87z"/>
		<path fill-rule="evenodd" clip-rule="evenodd" fill="#496A06" d="M814.5,88.6H704.4c6.6-5.3,14-9.7,22-12.9h66.2
			C800.5,78.9,807.9,83.3,814.5,88.6z"/>
		<path fill-rule="evenodd" clip-rule="evenodd" fill="#496B06" d="M816.4,90.2h-114c6.1-5.2,12.9-9.5,20.2-12.9h73.6
			C803.6,80.7,810.3,85,816.4,90.2z"/>
		<path fill-rule="evenodd" clip-rule="evenodd" fill="#4A6C06" d="M818.3,91.8H700.6c5.6-5.1,11.9-9.4,18.7-12.9h80.3
			C806.3,82.4,812.6,86.8,818.3,91.8z"/>
		<path fill-rule="evenodd" clip-rule="evenodd" fill="#4B6D06" d="M820,93.4H698.8c5.2-5,11.1-9.3,17.5-12.9h86.2
			C808.9,84.1,814.8,88.5,820,93.4z"/>
		<path fill-rule="evenodd" clip-rule="evenodd" fill="#4B6E06" d="M821.7,95.1H697.2c4.9-4.9,10.4-9.3,16.4-12.9h91.7
			C811.2,85.8,816.7,90.1,821.7,95.1z"/>
		<path fill-rule="evenodd" clip-rule="evenodd" fill="#4C6F07" d="M823.2,96.7H695.6c4.6-4.9,9.8-9.2,15.4-12.9h96.8
			C813.4,87.5,818.6,91.8,823.2,96.7z"/>
		<path fill-rule="evenodd" clip-rule="evenodd" fill="#4D7007" d="M824.7,98.3H694.1c4.3-4.8,9.2-9.2,14.5-12.9h101.5
			C815.5,89.1,820.4,93.5,824.7,98.3z"/>
		<path fill-rule="evenodd" clip-rule="evenodd" fill="#4E7107" d="M826.1,99.9H692.7c4.1-4.8,8.7-9.1,13.8-12.9h105.9
			C817.4,90.8,822,95.1,826.1,99.9z"/>
		<path fill-rule="evenodd" clip-rule="evenodd" fill="#4E7207" d="M827.5,101.5H691.3c3.9-4.7,8.3-9.1,13-12.9h110
			C819.2,92.4,823.6,96.8,827.5,101.5z"/>
		<path fill-rule="evenodd" clip-rule="evenodd" fill="#4F7307" d="M828.8,103.1H690.1c3.7-4.7,7.8-9,12.4-12.9h113.9
			C820.9,94.1,825.1,98.4,828.8,103.1z"/>
		<path fill-rule="evenodd" clip-rule="evenodd" fill="#507407" d="M830,104.7H688.8c3.5-4.7,7.4-9,11.8-12.9h117.6
			C822.6,95.7,826.5,100,830,104.7z"/>
		<path fill-rule="evenodd" clip-rule="evenodd" fill="#507507" d="M831.2,106.4H687.7c3.3-4.7,7.1-9,11.2-12.9H820
			C824.1,97.4,827.9,101.7,831.2,106.4z"/>
		<path fill-rule="evenodd" clip-rule="evenodd" fill="#517607" d="M832.3,108H686.5c3.1-4.6,6.7-9,10.7-12.9h124.4
			C825.6,99,829.2,103.3,832.3,108z"/>
		<path fill-rule="evenodd" clip-rule="evenodd" fill="#527707" d="M833.4,109.6H685.5c3-4.6,6.4-9,10.2-12.9h127.6
			C827,100.6,830.4,105,833.4,109.6z"/>
		<path fill-rule="evenodd" clip-rule="evenodd" fill="#527807" d="M834.4,111.2H684.5c2.8-4.6,6.1-8.9,9.7-12.9h130.6
			C828.3,102.3,831.5,106.6,834.4,111.2z"/>
		<path fill-rule="evenodd" clip-rule="evenodd" fill="#537907" d="M835.3,112.8H683.5c2.7-4.6,5.8-8.9,9.2-12.9h133.4
			C829.6,103.9,832.6,108.2,835.3,112.8z"/>
		<path fill-rule="evenodd" clip-rule="evenodd" fill="#547A07" d="M836.3,114.4H682.6c2.5-4.6,5.5-8.9,8.8-12.9h136.1
			C830.8,105.5,833.7,109.8,836.3,114.4z"/>
		<path fill-rule="evenodd" clip-rule="evenodd" fill="#547B07" d="M837.1,116H681.7c2.4-4.6,5.2-8.9,8.4-12.9h138.7
			C831.9,107.1,834.7,111.5,837.1,116z"/>
		<path fill-rule="evenodd" clip-rule="evenodd" fill="#557C07" d="M838,117.6H680.9c2.3-4.6,5-8.9,8-12.9H830
			C833,108.8,835.7,113.1,838,117.6z"/>
		<path fill-rule="evenodd" clip-rule="evenodd" fill="#567D07" d="M838.8,119.3H680.1c2.2-4.5,4.7-8.9,7.6-12.9h143.5
			C834,110.4,836.6,114.7,838.8,119.3z"/>
		<path fill-rule="evenodd" clip-rule="evenodd" fill="#567E07" d="M839.5,120.9H679.3c2.1-4.5,4.5-8.8,7.2-12.9h145.7
			C835,112,837.5,116.3,839.5,120.9z"/>
		<path fill-rule="evenodd" clip-rule="evenodd" fill="#577F07" d="M840.2,122.5H678.6c1.9-4.5,4.2-8.8,6.9-12.9h147.8
			C836,113.6,838.3,118,840.2,122.5z"/>
		<path fill-rule="evenodd" clip-rule="evenodd" fill="#587F08" d="M840.9,124.1h-163c1.8-4.5,4-8.8,6.5-12.9h149.9
			C836.9,115.3,839.1,119.6,840.9,124.1z"/>
		<path fill-rule="evenodd" clip-rule="evenodd" fill="#588008" d="M841.5,125.7H677.3c1.7-4.5,3.8-8.8,6.2-12.9h151.8
			C837.7,116.9,839.8,121.2,841.5,125.7z"/>
		<path fill-rule="evenodd" clip-rule="evenodd" fill="#598108" d="M842.1,127.3H676.7c1.6-4.5,3.6-8.8,5.9-12.9h153.7
			C838.5,118.5,840.5,122.8,842.1,127.3z"/>
		<path fill-rule="evenodd" clip-rule="evenodd" fill="#5A8208" d="M842.7,128.9H676.1c1.5-4.5,3.4-8.8,5.6-12.9h155.4
			C839.3,120.1,841.2,124.4,842.7,128.9z"/>
		<path fill-rule="evenodd" clip-rule="evenodd" fill="#5A8308" d="M843.2,130.5H675.6c1.4-4.5,3.2-8.8,5.3-12.9H838
			C840,121.8,841.8,126.1,843.2,130.5z"/>
		<path fill-rule="evenodd" clip-rule="evenodd" fill="#5B8408" d="M843.7,132.2H675.1c1.3-4.5,3-8.8,5-12.9h158.7
			C840.7,123.4,842.4,127.7,843.7,132.2z"/>
		<path fill-rule="evenodd" clip-rule="evenodd" fill="#5C8508" d="M844.2,133.8H674.7c1.2-4.5,2.8-8.8,4.7-12.9h160.2
			C841.4,125,843,129.3,844.2,133.8z"/>
		<path fill-rule="evenodd" clip-rule="evenodd" fill="#5D8608" d="M844.6,135.4H674.2c1.1-4.5,2.6-8.8,4.4-12.9h161.6
			C842,126.6,843.5,130.9,844.6,135.4z"/>
		<path fill-rule="evenodd" clip-rule="evenodd" fill="#5D8708" d="M845,137l-171.2,0c1-4.4,2.4-8.8,4.1-12.9h162.9
			C842.6,128.2,844,132.5,845,137z"/>
		<path fill-rule="evenodd" clip-rule="evenodd" fill="#5E8808" d="M845.4,138.6H673.5c1-4.4,2.2-8.8,3.8-12.9h164.2
			C843.1,129.8,844.4,134.2,845.4,138.6z"/>
		<path fill-rule="evenodd" clip-rule="evenodd" fill="#5F8908" d="M845.7,140.2H673.1c0.9-4.4,2.1-8.8,3.6-12.9h165.4
			C843.6,131.5,844.8,135.8,845.7,140.2z"/>
		<path fill-rule="evenodd" clip-rule="evenodd" fill="#5F8A08" d="M846,141.8H672.8c0.8-4.4,1.9-8.7,3.3-12.9h166.6
			C844.1,133.1,845.2,137.4,846,141.8z"/>
		<path fill-rule="evenodd" clip-rule="evenodd" fill="#608B08" d="M846.3,143.4H672.6c0.7-4.4,1.7-8.7,3-12.9h167.6
			C844.5,134.7,845.6,139,846.3,143.4z"/>
		<path fill-rule="evenodd" clip-rule="evenodd" fill="#618C08" d="M846.5,145.1H672.3c0.6-4.4,1.5-8.7,2.8-12.9h168.6
			C844.9,136.3,845.9,140.6,846.5,145.1z"/>
		<path fill-rule="evenodd" clip-rule="evenodd" fill="#618D08" d="M846.7,146.7H672.1c0.5-4.4,1.4-8.7,2.5-12.9h169.5
			C845.3,137.9,846.2,142.3,846.7,146.7z"/>
		<path fill-rule="evenodd" clip-rule="evenodd" fill="#628E08" d="M846.9,148.3H671.9c0.4-4.4,1.2-8.7,2.3-12.9h170.4
			C845.7,139.6,846.4,143.9,846.9,148.3z"/>
		<path fill-rule="evenodd" clip-rule="evenodd" fill="#638F08" d="M847,149.9H671.8c0.4-4.4,1-8.7,2-12.9H845
			C846,141.2,846.7,145.5,847,149.9z"/>
		<path fill-rule="evenodd" clip-rule="evenodd" fill="#639009" d="M847.1,151.5H671.7c0.3-4.4,0.9-8.7,1.8-12.9h171.9
			C846.3,142.8,846.9,147.1,847.1,151.5z"/>
		<path fill-rule="evenodd" clip-rule="evenodd" fill="#649109" d="M847.2,153.1l-175.6,0c0.2-4.4,0.7-8.7,1.5-12.9h172.5
			C846.5,144.4,847,148.7,847.2,153.1z"/>
		<path fill-rule="evenodd" clip-rule="evenodd" fill="#659209" d="M847.3,154.7H671.5c0.1-4.4,0.6-8.7,1.3-12.9H846
			C846.7,146,847.2,150.3,847.3,154.7z"/>
		<path fill-rule="evenodd" clip-rule="evenodd" fill="#659309" d="M847.3,156.3H671.5c0-4.4,0.4-8.7,1.1-12.9h173.7
			C846.9,147.6,847.3,152,847.3,156.3z"/>
		<path fill-rule="evenodd" clip-rule="evenodd" fill="#669409" d="M847.3,158H671.5c0-0.3,0-0.5,0-0.8c0-4.1,0.3-8.1,0.8-12.1
			h174.2c0.5,4,0.8,8,0.8,12.1C847.3,157.4,847.3,157.7,847.3,158z"/>
		<path fill-rule="evenodd" clip-rule="evenodd" fill="#679509" d="M847.3,159.6H671.5c0-0.8,0-1.6,0-2.4c0-3.6,0.2-7.1,0.6-10.5
			h174.6c0.4,3.4,0.6,6.9,0.6,10.5C847.3,158,847.3,158.8,847.3,159.6z"/>
		<path fill-rule="evenodd" clip-rule="evenodd" fill="#679609" d="M847.2,161.2H671.6c-0.1-1.3-0.1-2.7-0.1-4c0-3,0.2-6,0.4-8.9
			h174.9c0.3,2.9,0.4,5.9,0.4,8.9C847.3,158.5,847.3,159.8,847.2,161.2z"/>
		<path fill-rule="evenodd" clip-rule="evenodd" fill="#689709" d="M847.1,162.8H671.7c-0.1-1.9-0.2-3.8-0.2-5.7
			c0-2.4,0.1-4.9,0.3-7.3H847c0.2,2.4,0.3,4.8,0.3,7.3C847.3,159,847.3,160.9,847.1,162.8z"/>
		<path fill-rule="evenodd" clip-rule="evenodd" fill="#699809" d="M847,164.4H671.8c-0.2-2.4-0.3-4.8-0.3-7.3
			c0-1.9,0.1-3.8,0.2-5.7h175.4c0.1,1.9,0.2,3.8,0.2,5.7C847.3,159.6,847.2,162,847,164.4z"/>
		<path fill-rule="evenodd" clip-rule="evenodd" fill="#6A9909" d="M846.9,166H671.9c-0.3-2.9-0.4-5.9-0.4-8.9c0-1.4,0-2.7,0.1-4
			h175.6c0.1,1.3,0.1,2.7,0.1,4C847.3,160.1,847.2,163.1,846.9,166z"/>
		<path fill-rule="evenodd" clip-rule="evenodd" fill="#6A9A09" d="M846.7,167.6H672.1c-0.4-3.4-0.6-6.9-0.6-10.5c0-0.8,0-1.6,0-2.4
			h175.7c0,0.8,0,1.6,0,2.4C847.3,160.7,847.1,164.2,846.7,167.6z"/>
		<path fill-rule="evenodd" clip-rule="evenodd" fill="#6B9B09" d="M846.5,169.3H672.3c-0.5-4-0.8-8-0.8-12.1c0-0.3,0-0.5,0-0.8
			h175.8c0,0.3,0,0.5,0,0.8C847.3,161.3,847,165.3,846.5,169.3z"/>
		<path fill-rule="evenodd" clip-rule="evenodd" fill="#6C9C09" d="M846.3,170.9H672.6c-0.7-4.2-1-8.5-1.1-12.9h175.8
			C847.3,162.3,846.9,166.6,846.3,170.9z"/>
		<path fill-rule="evenodd" clip-rule="evenodd" fill="#6C9D09" d="M846,172.5H672.8c-0.7-4.2-1.2-8.5-1.3-12.9h175.8
			C847.2,163.9,846.7,168.3,846,172.5z"/>
		<path fill-rule="evenodd" clip-rule="evenodd" fill="#6D9E09" d="M845.7,174.1H673.1c-0.8-4.2-1.3-8.5-1.5-12.9h175.6
			C847,165.6,846.5,169.9,845.7,174.1z"/>
		<path fill-rule="evenodd" clip-rule="evenodd" fill="#6E9F09" d="M845.4,175.7H673.5c-0.9-4.2-1.5-8.5-1.8-12.9h175.5
			C846.9,167.2,846.3,171.5,845.4,175.7z"/>
		<path fill-rule="evenodd" clip-rule="evenodd" fill="#6EA00A" d="M845,177.3H673.8c-1-4.2-1.7-8.5-2-12.9H847
			C846.7,168.8,846,173.1,845,177.3z"/>
		<path fill-rule="evenodd" clip-rule="evenodd" fill="#6FA10A" d="M844.6,178.9H674.2c-1.1-4.2-1.8-8.5-2.3-12.9h174.9
			C846.4,170.4,845.7,174.7,844.6,178.9z"/>
		<path fill-rule="evenodd" clip-rule="evenodd" fill="#70A20A" d="M844.2,180.5H674.7c-1.2-4.2-2-8.5-2.5-12.9h174.6
			C846.2,172,845.3,176.3,844.2,180.5z"/>
		<path fill-rule="evenodd" clip-rule="evenodd" fill="#70A30A" d="M843.7,182.2H675.1c-1.2-4.2-2.2-8.5-2.8-12.9h174.2
			C845.9,173.6,844.9,178,843.7,182.2z"/>
		<path fill-rule="evenodd" clip-rule="evenodd" fill="#71A40A" d="M843.2,183.8H675.6c-1.3-4.2-2.4-8.5-3-12.9h173.7
			C845.6,175.3,844.5,179.6,843.2,183.8z"/>
		<path fill-rule="evenodd" clip-rule="evenodd" fill="#72A50A" d="M842.7,185.4H676.1c-1.4-4.2-2.5-8.5-3.3-12.9H846
			C845.2,176.9,844.1,181.2,842.7,185.4z"/>
		<path fill-rule="evenodd" clip-rule="evenodd" fill="#72A60A" d="M842.1,187H676.7c-1.5-4.2-2.7-8.5-3.6-12.9h172.6
			C844.8,178.5,843.6,182.8,842.1,187z"/>
		<path fill-rule="evenodd" clip-rule="evenodd" fill="#73A70A" d="M841.5,188.6H677.3c-1.6-4.2-2.9-8.5-3.8-12.9h171.9
			C844.4,180.1,843.1,184.4,841.5,188.6z"/>
		<path fill-rule="evenodd" clip-rule="evenodd" fill="#74A80A" d="M840.9,190.2H677.9c-1.7-4.2-3.1-8.5-4.1-12.9H845
			C844,181.7,842.6,186.1,840.9,190.2z"/>
		<path fill-rule="evenodd" clip-rule="evenodd" fill="#74A90A" d="M840.2,191.8H678.6c-1.8-4.2-3.3-8.5-4.4-12.9h170.4
			C843.5,183.4,842,187.7,840.2,191.8z"/>
		<path fill-rule="evenodd" clip-rule="evenodd" fill="#75AA0A" d="M839.5,193.4H679.3c-1.9-4.1-3.4-8.5-4.7-12.9h169.5
			C843,185,841.4,189.3,839.5,193.4z"/>
		<path fill-rule="evenodd" clip-rule="evenodd" fill="#76AB0A" d="M838.7,195.1H680.1c-2-4.1-3.6-8.5-5-12.9h168.6
			C842.4,186.6,840.7,190.9,838.7,195.1z"/>
		<path fill-rule="evenodd" clip-rule="evenodd" fill="#77AC0A" d="M838,196.7H680.9c-2.1-4.1-3.8-8.5-5.3-12.9h167.6
			C841.8,188.2,840,192.5,838,196.7z"/>
		<path fill-rule="evenodd" clip-rule="evenodd" fill="#77AD0A" d="M837.1,198.3H681.7c-2.2-4.1-4.1-8.4-5.6-12.9h166.6
			C841.2,189.8,839.3,194.2,837.1,198.3z"/>
		<path fill-rule="evenodd" clip-rule="evenodd" fill="#78AE0A" d="M836.2,199.9H682.6c-2.3-4.1-4.3-8.4-5.9-12.9h165.4
			C840.5,191.5,838.5,195.8,836.2,199.9z"/>
		<path fill-rule="evenodd" clip-rule="evenodd" fill="#79AF0A" d="M835.3,201.5H683.5c-2.4-4.1-4.5-8.4-6.2-12.9h164.2
			C839.8,193.1,837.7,197.4,835.3,201.5z"/>
		<path fill-rule="evenodd" clip-rule="evenodd" fill="#79B00A" d="M834.4,203.1H684.5c-2.5-4.1-4.7-8.4-6.5-12.9h163
			C839.1,194.7,836.9,199,834.4,203.1z"/>
		<path fill-rule="evenodd" clip-rule="evenodd" fill="#7AB00B" d="M833.3,204.7H685.5c-2.6-4.1-4.9-8.4-6.9-12.9h161.6
			C838.3,196.3,836,200.6,833.3,204.7z"/>
		<path fill-rule="evenodd" clip-rule="evenodd" fill="#7BB10B" d="M832.3,206.3H686.6c-2.8-4.1-5.2-8.4-7.2-12.9h160.2
			C837.5,197.9,835,202.3,832.3,206.3z"/>
		<path fill-rule="evenodd" clip-rule="evenodd" fill="#7BB20B" d="M831.2,208H687.7c-2.9-4.1-5.4-8.4-7.6-12.9h158.7
			C836.6,199.6,834,203.9,831.2,208z"/>
		<path fill-rule="evenodd" clip-rule="evenodd" fill="#7CB30B" d="M830,209.6H688.8c-3-4.1-5.7-8.4-8-12.9H838
			C835.7,201.2,833,205.5,830,209.6z"/>
		<path fill-rule="evenodd" clip-rule="evenodd" fill="#7DB40B" d="M828.8,211.2H690.1c-3.2-4-6-8.4-8.4-12.9h155.4
			C834.7,202.8,831.9,207.1,828.8,211.2z"/>
		<path fill-rule="evenodd" clip-rule="evenodd" fill="#7DB50B" d="M827.5,212.8H691.4c-3.3-4-6.2-8.4-8.8-12.9h153.7
			C833.7,204.4,830.8,208.8,827.5,212.8z"/>
		<path fill-rule="evenodd" clip-rule="evenodd" fill="#7EB60B" d="M826.1,214.4H692.7c-3.4-4-6.5-8.3-9.2-12.9h151.8
			C832.6,206.1,829.6,210.4,826.1,214.4z"/>
		<path fill-rule="evenodd" clip-rule="evenodd" fill="#7FB70B" d="M824.7,216H694.1c-3.6-4-6.8-8.3-9.7-12.9h149.9
			C831.5,207.7,828.3,212,824.7,216z"/>
		<path fill-rule="evenodd" clip-rule="evenodd" fill="#7FB80B" d="M823.2,217.6H695.6c-3.8-4-7.2-8.3-10.2-12.9h147.9
			C830.4,209.3,827,213.7,823.2,217.6z"/>
		<path fill-rule="evenodd" clip-rule="evenodd" fill="#80B90B" d="M821.6,219.2H697.2c-3.9-4-7.5-8.3-10.7-12.9h145.8
			C829.2,211,825.6,215.3,821.6,219.2z"/>
		<path fill-rule="evenodd" clip-rule="evenodd" fill="#81BA0B" d="M820,220.9H698.9c-4.1-3.9-7.9-8.3-11.2-12.9h143.5
			C827.9,212.6,824.1,216.9,820,220.9z"/>
		<path fill-rule="evenodd" clip-rule="evenodd" fill="#81BB0B" d="M818.2,222.5H700.6c-4.3-3.9-8.3-8.2-11.8-12.9H830
			C826.5,214.2,822.6,218.6,818.2,222.5z"/>
		<path fill-rule="evenodd" clip-rule="evenodd" fill="#82BC0B" d="M816.4,224.1H702.4c-4.6-3.9-8.7-8.2-12.4-12.9h138.7
			C825.1,215.9,820.9,220.2,816.4,224.1z"/>
		<path fill-rule="evenodd" clip-rule="evenodd" fill="#83BD0B" d="M814.4,225.7H704.4c-4.8-3.8-9.2-8.2-13-12.9h136.1
			C823.6,217.5,819.2,221.9,814.4,225.7z"/>
		<path fill-rule="evenodd" clip-rule="evenodd" fill="#83BE0B" d="M812.4,227.3H706.5c-5-3.8-9.7-8.1-13.8-12.9h133.4
			C822,219.2,817.4,223.5,812.4,227.3z"/>
		<path fill-rule="evenodd" clip-rule="evenodd" fill="#84BF0B" d="M810.2,228.9H708.7c-5.3-3.8-10.2-8.1-14.5-12.9h130.6
			C820.4,220.8,815.5,225.2,810.2,228.9z"/>
		<path fill-rule="evenodd" clip-rule="evenodd" fill="#85C00B" d="M807.8,230.5H711c-5.6-3.7-10.8-8.1-15.4-12.9h127.6
			C818.6,222.5,813.4,226.8,807.8,230.5z"/>
		<path fill-rule="evenodd" clip-rule="evenodd" fill="#86C10C" d="M805.3,232.2h-91.7c-6-3.7-11.5-8-16.4-12.9h124.5
			C816.7,224.2,811.2,228.5,805.3,232.2z"/>
		<path fill-rule="evenodd" clip-rule="evenodd" fill="#86C20C" d="M802.5,233.8h-86.2c-6.4-3.6-12.2-7.9-17.5-12.9H820
			C814.8,225.8,808.9,230.2,802.5,233.8z"/>
		<path fill-rule="evenodd" clip-rule="evenodd" fill="#87C30C" d="M799.6,235.4h-80.3c-6.8-3.5-13.1-7.9-18.7-12.9h117.7
			C812.6,227.5,806.4,231.9,799.6,235.4z"/>
		<path fill-rule="evenodd" clip-rule="evenodd" fill="#88C40C" d="M796.2,237h-73.6c-7.3-3.4-14.1-7.7-20.2-12.9h114
			C810.3,229.2,803.6,233.6,796.2,237z"/>
		<path fill-rule="evenodd" clip-rule="evenodd" fill="#88C50C" d="M792.5,238.6h-66.2c-8-3.2-15.4-7.6-22-12.9h110.1
			C807.9,231,800.5,235.4,792.5,238.6z"/>
		<path fill-rule="evenodd" clip-rule="evenodd" fill="#89C60C" d="M788.2,240.2h-57.6c-8.8-3-16.9-7.4-24.2-12.9h106
			C805.1,232.8,797,237.2,788.2,240.2z"/>
		<path fill-rule="evenodd" clip-rule="evenodd" fill="#8AC70C" d="M783.1,241.8h-47.3c-9.8-2.7-19-7.2-27.1-12.9h101.6
			C802.1,234.7,792.9,239.1,783.1,241.8z"/>
		<path fill-rule="evenodd" clip-rule="evenodd" fill="#8AC80C" d="M776.2,243.4h-33.6c-11.5-2.2-22.2-6.7-31.6-12.9h96.9
			C798.4,236.7,787.7,241.2,776.2,243.4z"/>
		<path fill-rule="evenodd" clip-rule="evenodd" fill="#8BC90C" d="M759.5,245.1h-0.2c-16.8,0-32.5-4.7-45.8-12.9h91.8
			C792,240.3,776.3,245,759.5,245.1z"/>
	</g>
	<path fill="#FDB836" d="M320.1,380.5c10.2,0.4,24.5,1,40.5,3c16.1,2,34,5.3,51.2,11.2c16,5.3,31.5,12.7,44.5,23
		c-1.3,9.5-2.7,19-4.1,28.5c-13.6-20.5-36-33.1-59.5-40.9c-15.9-5.4-32.6-8.5-47.8-10.4c-14.9-1.8-28.4-2.4-38-2.8
		C311.4,388.2,315.7,384.4,320.1,380.5z"/>
	<g>
		<polygon fill="#FFFFFF" points="743.3,186.4 742.7,197.8 776.1,197.8 775.6,186.4 		"/>
		<path fill="#FFFFFF" d="M775.4,183.6h31V125h-47.1v7.2h38.5v44.1h-22.9h-15.7v7.2H775.4z M759.4,125h-47.1v58.5h31h16v-7.2h-15.7
			h-22.9l0,0v-44.1h38.5V125z"/>
		<polygon fill="#FFFFFF" points="736.2,200.7 736.2,205.3 782.6,205.3 782.6,200.7 776.3,200.7 742.6,200.7 		"/>
	</g>
</g>
</svg>
