<?xml version="1.0" encoding="utf-8"?>
<!-- Generator: Adobe Illustrator 18.0.0, SVG Export Plug-In . SVG Version: 6.00 Build 0)  -->
<!DOCTYPE svg PUBLIC "-//W3C//DTD SVG 1.1//EN" "http://www.w3.org/Graphics/SVG/1.1/DTD/svg11.dtd">
<svg version="1.1" xmlns="http://www.w3.org/2000/svg" xmlns:xlink="http://www.w3.org/1999/xlink" x="0px" y="0px"
	 viewBox="0 0 1106.6 1106.6" enable-background="new 0 0 1106.6 1106.6" xml:space="preserve">
<g id="Capa_1" display="none">
	<g display="inline">
		<path opacity="0.18" fill-rule="evenodd" clip-rule="evenodd" fill="#111111" d="M741,215.5c-4,0-7.9,0.3-11.7,0.8
			c-15.7,2.2-30,8.8-41.6,18.6c-0.2-7.7-0.9-15.2-2.2-22.5c-1-5.4-2.2-10.6-3.8-15.8C669,154,637,119.7,595.9,103.8
			c-4.7-1.8-9.6-3.4-14.5-4.7c-11.8-3.2-24.3-4.9-37.1-4.9c-2,0-4,0.1-5.9,0.2c-76.5,3.1-137.6,66.1-137.6,143.4
			c0,14.7,2.2,28.8,6.3,42.1c-27.5,0.6-49.6,23-49.6,50.7c0,28,22.7,50.7,50.7,50.7h136.1h6.2H741c45.8,0,82.9-37.1,82.9-82.9
			C823.9,252.6,786.7,215.5,741,215.5z"/>
		<path fill="#FFFFFF" d="M730.2,201.9c-4,0-7.9,0.3-11.7,0.9c-15.7,2.3-30,8.9-41.6,18.7c-0.2-7.7-1-15.2-2.3-22.5
			c-1-5.4-2.3-10.6-3.8-15.8c-12.8-42.6-44.9-76.8-86-92.6c-4.7-1.8-9.6-3.4-14.6-4.7c-11.9-3.1-24.3-4.8-37.1-4.8
			c-2,0-4,0.1-5.9,0.2c-76.5,3.3-137.4,66.5-137.2,143.7c0,14.7,2.3,28.8,6.4,42.1c-27.5,0.7-49.5,23.2-49.5,50.8
			c0.1,28,22.8,50.7,50.9,50.6l136.1-0.4l6.2,0l190.6-0.5c45.8-0.1,82.8-37.3,82.7-83.1C813.1,238.8,775.9,201.8,730.2,201.9z"/>
	</g>
	<ellipse display="inline" opacity="0.18" fill="#111111" cx="553.4" cy="1084.5" rx="137.6" ry="8"/>
	<g display="inline">
		<path fill-rule="evenodd" clip-rule="evenodd" fill="#F9F1F3" d="M457,1083.6c0-4.3,3.2-7.9,7.5-8.4l16.4-2l16.5-62.9h122.1
			l16.5,62.9l16.4,2c4.3,0.5,7.5,4.1,7.5,8.4H457z"/>
		<polygon fill-rule="evenodd" clip-rule="evenodd" fill="#B9BBBC" points="494.6,1020.8 497.4,1010.3 619.5,1010.3 622.2,1020.8 		
			"/>
		<path fill-rule="evenodd" clip-rule="evenodd" fill="#303130" d="M250.8,957.7V605c0-7.5,6.1-13.6,13.6-13.6h577.7
			c7.5,0,13.6,6.1,13.6,13.6v352.8H250.8z"/>
		<path fill-rule="evenodd" clip-rule="evenodd" fill="#F9F1F3" d="M842.1,1012.3H264.4c-7.5,0-13.6-6.1-13.6-13.6v-40.9h605v40.9
			C855.8,1006.2,849.7,1012.3,842.1,1012.3z"/>
		<rect x="269.5" y="615.2" fill-rule="evenodd" clip-rule="evenodd" fill="#FFFFFF" width="567.5" height="318.7"/>
		<rect x="269.5" y="905.5" fill-rule="evenodd" clip-rule="evenodd" fill="#80C2CC" width="567.5" height="28.3"/>
		<g>
			<rect x="435.8" y="624.9" fill-rule="evenodd" clip-rule="evenodd" fill="#7589C2" width="235" height="15.4"/>
			<rect x="483.8" y="645.1" fill-rule="evenodd" clip-rule="evenodd" fill="#7589C2" width="139" height="15.4"/>
		</g>
		<g>
			<rect x="348.2" y="773.9" fill-rule="evenodd" clip-rule="evenodd" fill="#80C2CC" width="71.4" height="118"/>
			<g>
				<rect x="349.8" y="674.6" fill-rule="evenodd" clip-rule="evenodd" fill="#49535A" width="244.7" height="90.5"/>
				<g>
					<path fill-rule="evenodd" clip-rule="evenodd" fill="#FFFFFF" d="M578.2,713.4c-0.4-0.5-0.3-1.1,0.2-1.5
						c0.5-0.4,1.1-0.3,1.5,0.2l5.3,7c0,0,0.1,0.1,0.1,0.1l0,0l0,0l0,0c0,0,0,0.1,0,0.1l0,0.1l0,0l0,0.1l0,0.1c0,0,0,0.1,0,0.1v0l0,0
						l0,0v0v0v0l0,0l0,0v0c0,0,0,0.1,0,0.1l0,0.1l0,0.1l0,0l0,0.1c0,0,0,0.1,0,0.1l0,0l0,0l0,0c0,0-0.1,0.1-0.1,0.1l-5.3,7
						c-0.4,0.5-1,0.6-1.5,0.2c-0.5-0.4-0.5-1-0.2-1.5l4.8-6.4L578.2,713.4z"/>
					<path fill-rule="evenodd" clip-rule="evenodd" fill="#FFFFFF" d="M364.5,712.1c0.4-0.5,1-0.5,1.5-0.2c0.5,0.4,0.5,1,0.2,1.5
						l-4.8,6.4l4.8,6.4c0.4,0.5,0.3,1.1-0.2,1.5c-0.5,0.4-1.1,0.3-1.5-0.2l-5.3-7c0,0-0.1-0.1-0.1-0.1l0,0l0,0l0,0c0,0,0-0.1,0-0.1
						l0-0.1l0,0l0-0.1l0-0.1c0,0,0-0.1,0-0.1v0l0,0l0,0v0v0v0l0,0l0,0v0c0,0,0-0.1,0-0.1l0-0.1l0-0.1l0,0l0-0.1l0-0.1l0,0l0,0l0,0
						c0,0,0.1-0.1,0.1-0.1L364.5,712.1z"/>
				</g>
			</g>
			<rect x="438.1" y="773.9" fill-rule="evenodd" clip-rule="evenodd" fill="#D9804A" width="71.4" height="58.3"/>
			<rect x="601.9" y="773.9" fill-rule="evenodd" clip-rule="evenodd" fill="#D0C975" width="156.4" height="58.3"/>
			<rect x="601.9" y="674.6" fill-rule="evenodd" clip-rule="evenodd" fill="#F0C830" width="156.4" height="90.5"/>
			<g>
				<rect x="438.1" y="838.1" fill-rule="evenodd" clip-rule="evenodd" fill="#909294" width="153" height="4.7"/>
				<rect x="438.1" y="846.7" fill-rule="evenodd" clip-rule="evenodd" fill="#909294" width="153" height="4.7"/>
				<rect x="438.1" y="855.3" fill-rule="evenodd" clip-rule="evenodd" fill="#909294" width="153" height="4.7"/>
				<rect x="438.1" y="863.8" fill-rule="evenodd" clip-rule="evenodd" fill="#909294" width="153" height="4.7"/>
				<rect x="438.1" y="872.4" fill-rule="evenodd" clip-rule="evenodd" fill="#909294" width="153" height="4.7"/>
				<rect x="438.1" y="881" fill-rule="evenodd" clip-rule="evenodd" fill="#909294" width="153" height="4.7"/>
				<rect x="438.1" y="889.6" fill-rule="evenodd" clip-rule="evenodd" fill="#909294" width="153" height="4.7"/>
			</g>
			<g>
				<rect x="516" y="776" fill-rule="evenodd" clip-rule="evenodd" fill="#909294" width="75.1" height="4.7"/>
				<rect x="516" y="784.6" fill-rule="evenodd" clip-rule="evenodd" fill="#909294" width="75.1" height="4.7"/>
				<rect x="516" y="793.2" fill-rule="evenodd" clip-rule="evenodd" fill="#909294" width="75.1" height="4.7"/>
				<rect x="516" y="801.8" fill-rule="evenodd" clip-rule="evenodd" fill="#909294" width="75.1" height="4.7"/>
				<rect x="516" y="810.3" fill-rule="evenodd" clip-rule="evenodd" fill="#909294" width="75.1" height="4.7"/>
				<rect x="516" y="818.9" fill-rule="evenodd" clip-rule="evenodd" fill="#909294" width="75.1" height="4.7"/>
				<rect x="516" y="827.5" fill-rule="evenodd" clip-rule="evenodd" fill="#909294" width="75.1" height="4.7"/>
			</g>
			<rect x="601.9" y="837.9" fill-rule="evenodd" clip-rule="evenodd" fill="#AFCB49" width="75.7" height="58.8"/>
			<rect x="682.7" y="837.9" fill-rule="evenodd" clip-rule="evenodd" fill="#6CA1AA" width="75.7" height="58.8"/>
		</g>
	</g>
	<path display="inline" fill-rule="evenodd" clip-rule="evenodd" fill="#FFFFFF" d="M639.5,578.2h2.2v4.3h-2.2V578.2L639.5,578.2z
		 M556.5,396L556.5,396l0,0.1l0,0.1l0,0.1l0,0.1l0,0.1l0,0.1l0,0.1l0,0.1l0,0.1l0,0.1l0,0.1l0,0.1l0,0.1l0,0.1l0,0.1l0,0.1l0,0.1
		l0,0.1l0,0.1l0,0.1l0,0.1l0,0.1l0,0.1l0,0.1l0,0.1l0,0.1l0,0.1l0,0l0,0.1l0,0l0,0.1l0,0l0,0.1l0,0l0,0l0,0l0,0l0,0l0,0l0,0l0,0l0,0
		l0,0l0,0l0,0l0,0l0,0l0,0l0,0l0,0l0,0l0,0l0,0l0,0l0,0l0,0l0,0l0,0l0,0l0,0l0,0l0,0l0,0l0,0l0,0l0,0l0,0l0,0l0,0l0,0l0,0l0,0l0,0
		l0,0l0,0l0,0l0,0l0,0l0,0l0,0l0,0l0,0l0,0l0,0l0,0l0,0l0,0l0,0l0,0l0,0l0,0l0,0l0,0l0,0l0,0l0,0l0,0l0,0l0,0l0,0l0,0l0,0l0,0l0,0
		l0,0l0,0l0,0l0,0l0,0l0,0l0,0l0,0l0,0l0,0l0,0l0,0l0,0l0,0l0,0l0,0l0,0l0,0l0,0l0,0l0,0l0,0l0,0l0,0l0,0l0,0l0,0l0,0l0,0l0,0l0,0
		l0,0l0,0l0,0l0,0l0,0l0,0l0,0l0,0l0,0l0,0l0,0l0,0l0,0l0,0l0,0l0,0l0,0l0,0l0,0l0,0l0,0l0,0l0,0l0,0l0,0l0,0l0,0l0,0l0,0l0,0l0,0
		l0,0l0,0l0,0l0,0l0,0l0,0l0,0l0,0l0,0l0,0l0,0l0,0l0,0l0,0l0,0l0,0l0,0l0,0l0,0l0,0l0,0l0,0l0,0l0,0l0,0l0,0l0,0l0,0l0,0l0,0l0,0
		l0,0l0,0l0,0l0,0l0,0l0,0l0,0l0,0l0,0l0,0l0,0l0,0l0,0l0,0l0,0l0,0l0,0l0,0l0,0l0,0l0,0l0,0l0,0l0,0l0,0l0,0l0.1,0l0,0l0.1,0l0.1,0
		l0.1,0l0.1,0l0.1,0l0.1,0l0.1,0l0.1,0l0.1,0l0.1,0l0.1,0l0.1,0l0.1,0l0.1,0l0.1,0l0.1,0l0.1,0l0.1,0l0.1,0l0.1,0l0.1,0l0.1,0l0.1,0
		l0.1,0l0.1,0l0.1,0l0.1,0l0.1,0l0.1,0h0.1h0.1l0.1,0l0.1,0l0.1,0l0.1,0l0.1,0l0.1,0l0.1,0l0.1,0l0.1,0l0.1,0l0.1,0l0.1,0l0.1,0
		l0.1,0l0.1,0l0.1,0l0.1,0l0.1,0l0.1,0l0.1,0l0.1,0l0.1,0l0.1,0l0.1,0l0.1,0l0.1,0l0.1,0l0.1,0l0.1,0l0,0l0,0l0,0l0,0l0,0l0,0l0,0
		l0,0l0,0l0,0l0,0l0,0l0,0l0,0l0,0l0,0l0,0l0,0l0,0l0,0l0,0l0,0l0,0l0,0l0,0l0,0l0,0l0,0l0,0l0,0l0,0l0,0l0,0l0,0l0,0l0,0l0,0l0,0
		l0,0l0,0l0,0l0,0l0,0l0,0l0,0l0,0l0,0l0,0l0,0l0,0l0,0l0,0l0,0l0,0l0,0l0,0l0,0l0,0l0,0l0,0l0,0l0,0l0,0l0,0l0,0l0,0l0,0l0,0l0,0
		l0,0l0,0l0,0l0,0l0,0l0,0l0,0l0,0l0,0l0,0l0,0l0,0l0,0l0,0l0,0l0,0l0,0l0,0l0,0l0,0l0,0l0,0l0,0l0,0l0,0l0,0l0,0l0,0l0,0l0,0l0,0
		l0,0l0,0l0,0l0,0l0,0l0,0l0,0l0,0l0,0l0,0l0,0l0,0l0,0l0,0l0,0l0,0l0,0l0,0l0,0l0,0l0,0l0,0l0,0l0,0l0,0l0,0l0,0l0,0l0,0l0,0l0,0
		l0,0l0,0l0,0l0,0l0,0l0,0l0,0l0,0l0,0l0,0l0,0l0,0l0,0l0,0l0,0l0,0l0,0l0,0l0,0l0,0l0,0l0,0l0,0l0,0l0,0l0,0l0,0l0,0l0,0l0,0l0,0
		l0,0l0,0l0,0l0,0l0,0l0,0l0,0l0,0l0,0l0,0l0,0l0,0l0,0l0,0l0,0l0,0l0,0l0,0l0,0l0,0l0,0l0,0l0,0l0,0l0,0l0,0l0,0l0,0l0,0l0,0l0,0
		l0,0l0-0.1l0,0l0,0l0-0.1l0-0.1l0-0.1l0-0.1l0-0.1l0-0.1l0-0.1l0-0.1l0-0.1l0-0.1l0-0.1l0-0.1l0-0.1l0-0.1l0-0.1l0-0.1l0-0.1l0-0.1
		l0-0.1l0-0.1l0-0.1l0-0.1l0-0.1l0-0.1l0-0.1l0-0.1l0-0.1l0-0.1V396v-0.1l0-0.1l0-0.1l0-0.1l0-0.1l0-0.1l0-0.1l0-0.1l0-0.1l0-0.1
		l0-0.1l0-0.1l0-0.1l0-0.1l0-0.1l0-0.1l0-0.1l0-0.1l0-0.1l0-0.1l0-0.1l0-0.1l0-0.1l0-0.1l0-0.1l0-0.1l0-0.1l0-0.1l0-0.1l0,0l0-0.1
		l0,0l0,0l0,0l0,0l0,0l0,0l0,0l0,0l0,0l0,0l0,0l0,0l0,0l0,0l0,0l0,0l0,0l0,0l0,0l0,0l0,0l0,0l0,0l0,0l0,0l0,0l0,0l0,0l0,0l0,0l0,0
		l0,0l0,0l0,0l0,0l0,0l0,0l0,0l0,0l0,0l0,0l0,0l0,0l0,0l0,0l0,0l0,0l0,0l0,0l0,0l0,0l0,0l0,0l0,0l0,0l0,0l0,0l0,0l0,0l0,0l0,0l0,0
		l0,0l0,0l0,0l0,0l0,0l0,0l0,0l0,0l0,0l0,0l0,0l0,0l0,0l0,0l0,0l0,0l0,0l0,0l0,0l0,0l0,0l0,0l0,0l0,0l0,0l0,0l0,0l0,0l0,0l0,0l0,0
		l0,0l0,0l0,0l0,0l0,0l0,0l0,0l0,0l0,0l0,0l0,0l0,0l0,0l0,0l0,0l0,0l0,0l0,0l0,0l0,0l0,0l0,0l0,0l0,0l0,0l0,0l0,0l0,0l0,0l0,0l0,0
		l0,0l0,0l0,0l0,0l0,0l0,0l0,0l0,0l0,0l0,0l0,0l0,0l0,0l0,0l0,0l0,0l0,0l0,0l0,0l0,0l0,0l0,0l0,0l0,0l0,0l0,0l0,0l0,0l0,0l0,0l0,0
		l0,0l0,0l0,0l0,0l0,0l0,0l0,0l0,0l0,0l0,0l0,0l0,0l0,0l0,0l0,0l0,0l0,0l0,0l0,0l0,0l0,0l0,0l0,0l0,0l0,0l0,0l0,0l0,0l0,0l0,0l0,0
		l0,0l0,0l0,0l0,0l0,0l0,0l0,0l0,0l0,0l-0.1,0l-0.1,0l-0.1,0l-0.1,0l-0.1,0l-0.1,0l-0.1,0l-0.1,0l-0.1,0l-0.1,0l-0.1,0l-0.1,0
		l-0.1,0l-0.1,0l-0.1,0l-0.1,0l-0.1,0l-0.1,0l-0.1,0l-0.1,0l-0.1,0l-0.1,0l-0.1,0l-0.1,0l-0.1,0l-0.1,0l-0.1,0l-0.1,0l-0.1,0h-0.1
		h-0.1l-0.1,0l-0.1,0l-0.1,0l-0.1,0l-0.1,0l-0.1,0l-0.1,0l-0.1,0l-0.1,0l-0.1,0l-0.1,0l-0.1,0l-0.1,0l-0.1,0l-0.1,0l-0.1,0l-0.1,0
		l-0.1,0l-0.1,0l-0.1,0l-0.1,0l-0.1,0l-0.1,0l-0.1,0l-0.1,0l-0.1,0l-0.1,0l-0.1,0l-0.1,0l0,0l0,0l-0.1,0l0,0l0,0l0,0l0,0l0,0l0,0
		l0,0l0,0l0,0l0,0l0,0l0,0l0,0l0,0l0,0l0,0l0,0l0,0l0,0l0,0l0,0l0,0l0,0l0,0l0,0l0,0l0,0l0,0l0,0l0,0l0,0l0,0l0,0l0,0l0,0l0,0l0,0
		l0,0l0,0l0,0l0,0l0,0l0,0l0,0l0,0l0,0l0,0l0,0l0,0l0,0l0,0l0,0l0,0l0,0l0,0l0,0l0,0l0,0l0,0l0,0l0,0l0,0l0,0l0,0l0,0l0,0l0,0l0,0
		l0,0l0,0l0,0l0,0l0,0l0,0l0,0l0,0l0,0l0,0l0,0l0,0l0,0l0,0l0,0l0,0l0,0l0,0l0,0l0,0l0,0l0,0l0,0l0,0l0,0l0,0l0,0l0,0l0,0l0,0l0,0
		l0,0l0,0l0,0l0,0l0,0l0,0l0,0l0,0l0,0l0,0l0,0l0,0l0,0l0,0l0,0l0,0l0,0l0,0l0,0l0,0l0,0l0,0l0,0l0,0l0,0l0,0l0,0l0,0l0,0l0,0l0,0
		l0,0l0,0l0,0l0,0l0,0l0,0l0,0l0,0l0,0l0,0l0,0l0,0l0,0l0,0l0,0l0,0l0,0l0,0l0,0l0,0l0,0l0,0l0,0l0,0l0,0l0,0l0,0l0,0l0,0l0,0l0,0
		l0,0l0,0l0,0l0,0l0,0l0,0l0,0l0,0l0,0l0,0l0,0l0,0l0,0l0,0l0,0l0,0l0,0l0,0l0,0l0,0l0,0l0,0l0,0l0,0l0,0l0,0l0,0l0,0l0,0l0,0l0,0.1
		l0,0l0,0.1l0,0l0,0.1l0,0.1l0,0.1l0,0.1l0,0.1l0,0.1l0,0.1l0,0.1l0,0.1l0,0.1l0,0.1l0,0.1l0,0.1l0,0.1l0,0.1l0,0.1l0,0.1l0,0.1
		l0,0.1l0,0.1l0,0.1l0,0.1l0,0.1l0,0.1l0,0.1l0,0.1L556.5,396L556.5,396L556.5,396z M564.7,406.3L564.7,406.3l-0.1,0l-0.1,0l-0.1,0
		l-0.1,0l-0.1,0l-0.1,0l-0.1,0l-0.1,0l-0.1,0l-0.1,0l-0.1,0l-0.1,0l-0.1,0l-0.1,0l-0.1,0l-0.1,0l-0.1,0l-0.1,0l-0.1,0l-0.1,0l-0.1,0
		l-0.1,0l-0.1,0l-0.1,0l-0.1,0l-0.1,0l-0.1,0l-0.1,0l-0.1,0l-0.1,0l-0.1,0l-0.1,0l-0.1,0l-0.1,0l-0.1,0l-0.1,0l-0.1,0l-0.1,0l-0.1,0
		l-0.1,0l-0.1,0l-0.1,0l-0.1,0l-0.1,0l-0.1,0l-0.1,0l-0.1,0l-0.1,0l-0.1,0l-0.1,0l-0.1,0l-0.1,0l-0.1,0l-0.1,0l-0.1,0l-0.1,0l-0.1,0
		l-0.1,0l-0.1,0l-0.1,0l-0.1,0l-0.1,0l-0.1,0l-0.1,0l-0.1,0l-0.1,0l-0.1,0l-0.1,0l-0.1,0l-0.1,0l-0.1,0l-0.1,0l-0.1,0l-0.1,0l-0.1,0
		l-0.1,0l-0.1,0l-0.1,0l-0.1,0l-0.1,0l-0.1,0l-0.1,0l-0.1,0l-0.1,0l-0.1,0l-0.1,0l-0.1,0l-0.1,0l-0.1,0l-0.1,0l-0.1,0l-0.1,0l-0.1,0
		l-0.1,0l-0.1,0l-0.1,0l-0.1,0l-0.1,0l-0.1,0l-0.1,0l-0.1,0l0,0l-0.1,0l0,0l0,0l0,0l0,0l0,0l0,0l0,0l0,0l0,0l0,0l0,0l0,0l0,0l0,0
		l0,0l0,0l0,0l0,0l0,0l0,0l0,0l0,0l0,0l0,0l0,0l0,0l0,0l0,0l0,0l0,0l0,0l0,0l0,0l0,0l0,0l0,0l0,0l0,0l0,0l0,0l0,0l0,0l0,0l0,0l0,0
		l0,0l0,0l0,0l0,0l0-0.1l0-0.1l0-0.1l0-0.1l0-0.1l0-0.1l0-0.1l0-0.1l0-0.1l0-0.1l0-0.1l0-0.1l0-0.1l0-0.1l0-0.1l0-0.1l0-0.1l0-0.1
		l0-0.1l0-0.1l0-0.1l0-0.1l0-0.1l0-0.1l0-0.1l0-0.1l0-0.1l0-0.1l0-0.1l0-0.1l0-0.1l0-0.1l0-0.1l0-0.1l0-0.1l0-0.1l0-0.1l0-0.1l0-0.1
		l0-0.1l0-0.1l0-0.1l0-0.1l0-0.1l0-0.1l0-0.1l0-0.1l0-0.1l0-0.1l0-0.1l0-0.1l0-0.1l0-0.1l0-0.1l0-0.1l0-0.1l0-0.1l0-0.1l0-0.1l0-0.1
		l0-0.1l0-0.1l0-0.1l0-0.1l0-0.1l0-0.1l0-0.1l0-0.1l0-0.1l0-0.1l0-0.1l0-0.1l0-0.1l0-0.1l0-0.1l0-0.1l0-0.1l0-0.1l0-0.1l0-0.1l0-0.1
		l0-0.1l0-0.1l0-0.1l0-0.1l0-0.1l0-0.1l0-0.1l0-0.1l0-0.1l0-0.1l0-0.1l0-0.1l0-0.1l0-0.1l0-0.1l0-0.1l0-0.1l0-0.1l0-0.1l0-0.1l0-0.1
		V396v-0.1l0-0.1l0-0.1l0-0.1l0-0.1l0-0.1l0-0.1l0-0.1l0-0.1l0-0.1l0-0.1l0-0.1l0-0.1l0-0.1l0-0.1l0-0.1l0-0.1l0-0.1l0-0.1l0-0.1
		l0-0.1l0-0.1l0-0.1l0-0.1l0-0.1l0-0.1l0-0.1l0-0.1l0-0.1l0-0.1l0-0.1l0-0.1l0-0.1l0-0.1l0-0.1l0-0.1l0-0.1l0-0.1l0-0.1l0-0.1l0-0.1
		l0-0.1l0-0.1l0-0.1l0-0.1l0-0.1l0-0.1l0-0.1l0-0.1l0-0.1l0-0.1l0-0.1l0-0.1l0-0.1l0-0.1l0-0.1l0-0.1l0-0.1l0-0.1l0-0.1l0-0.1l0-0.1
		l0-0.1l0-0.1l0-0.1l0-0.1l0-0.1l0-0.1l0-0.1l0-0.1l0-0.1l0-0.1l0-0.1l0-0.1l0-0.1l0-0.1l0-0.1l0-0.1l0-0.1l0-0.1l0-0.1l0-0.1l0-0.1
		l0-0.1l0-0.1l0-0.1l0-0.1l0-0.1l0-0.1l0-0.1l0-0.1l0-0.1l0-0.1l0-0.1l0-0.1l0-0.1l0-0.1l0-0.1l0-0.1l0-0.1l0-0.1l0-0.1l0-0.1l0,0
		l0,0l0,0l0,0l0,0l0,0l0,0l0,0l0,0l0,0l0,0l0,0l0,0l0,0l0,0l0,0l0,0l0,0l0,0l0,0l0,0l0,0l0,0l0,0l0,0l0,0l0,0l0,0l0,0l0,0l0,0l0,0
		l0,0l0,0l0,0l0,0l0,0l0,0l0,0l0,0l0,0l0,0l0,0l0,0l0,0l0,0l0,0l0,0l0,0l0,0l0.1,0l0.1,0l0.1,0l0.1,0l0.1,0l0.1,0l0.1,0l0.1,0l0.1,0
		l0.1,0l0.1,0l0.1,0l0.1,0l0.1,0l0.1,0l0.1,0l0.1,0l0.1,0l0.1,0l0.1,0l0.1,0l0.1,0l0.1,0l0.1,0l0.1,0l0.1,0l0.1,0l0.1,0l0.1,0l0.1,0
		l0.1,0l0.1,0l0.1,0l0.1,0l0.1,0l0.1,0l0.1,0l0.1,0l0.1,0l0.1,0l0.1,0l0.1,0l0.1,0l0.1,0l0.1,0l0.1,0l0.1,0l0.1,0l0.1,0l0.1,0l0.1,0
		l0.1,0l0.1,0l0.1,0l0.1,0l0.1,0l0.1,0l0.1,0l0.1,0l0.1,0l0.1,0l0.1,0l0.1,0l0.1,0l0.1,0l0.1,0l0.1,0l0.1,0l0.1,0l0.1,0l0.1,0l0.1,0
		l0.1,0l0.1,0l0.1,0l0.1,0l0.1,0l0.1,0l0.1,0l0.1,0l0.1,0l0.1,0l0.1,0l0.1,0l0.1,0l0.1,0l0.1,0l0.1,0l0.1,0l0.1,0l0.1,0l0.1,0l0.1,0
		l0.1,0l0.1,0l0.1,0l0.1,0l0.1,0l0.1,0l0.1,0l0.1,0l0.1,0l0.1,0l0.1,0l0.1,0l0.1,0l0.1,0l0.1,0l0.1,0l0.1,0l0.1,0l0.1,0l0.1,0l0.1,0
		l0.1,0l0.1,0l0.1,0l0.1,0l0.1,0l0.1,0l0.1,0l0.1,0l0.1,0l0.1,0l0.1,0l0.1,0l0.1,0l0.1,0l0.1,0l0.1,0l0.1,0l0.1,0l0.1,0l0.1,0l0.1,0
		l0.1,0l0.1,0l0.1,0l0.1,0l0.1,0l0.1,0l0.1,0l0.1,0l0.1,0l0.1,0l0.1,0l0.1,0l0.1,0l0.1,0l0.1,0l0.1,0l0.1,0l0.1,0l0.1,0l0.1,0l0.1,0
		l0.1,0l0.1,0l0.1,0l0.1,0l0.1,0l0.1,0l0.1,0l0.1,0l0.1,0l0.1,0l0.1,0l0.1,0l0.1,0l0.1,0l0.1,0l0.1,0l0.1,0l0.1,0l0.1,0l0.1,0l0.1,0
		l0.1,0l0.1,0l0.1,0l0.1,0l0.1,0l0.1,0l0.1,0l0.1,0l0.1,0l0.1,0l0.1,0l0.1,0l0.1,0l0.1,0l0.1,0l0.1,0l0.1,0l0.1,0l0.1,0l0.1,0l0.1,0
		l0.1,0l0.1,0l0.1,0l0.1,0l0.1,0l0.1,0l0.1,0l0.1,0l0,0l0,0l0,0l0,0l0,0l0,0l0,0l0,0l0,0l0,0l0,0l0,0l0,0l0,0l0,0l0,0l0,0l0,0l0,0
		l0,0l0,0l0,0l0,0l0,0l0,0l0,0l0,0l0,0l0,0l0,0l0,0l0,0l0,0l0,0l0,0l0,0l0,0l0,0l0,0l0,0l0,0l0,0l0,0l0,0l0,0l0,0l0,0l0,0l0,0l0,0
		l0,0.1l0,0.1l0,0.1l0,0.1l0,0.1l0,0.1l0,0.1l0,0.1l0,0.1l0,0.1l0,0.1l0,0.1l0,0.1l0,0.1l0,0.1l0,0.1l0,0.1l0,0.1l0,0.1l0,0.1l0,0.1
		l0,0.1l0,0.1l0,0.1l0,0.1l0,0.1l0,0.1l0,0.1l0,0.1l0,0.1l0,0.1l0,0.1l0,0.1l0,0.1l0,0.1l0,0.1l0,0.1l0,0.1l0,0.1l0,0.1l0,0.1l0,0.1
		l0,0.1l0,0.1l0,0.1l0,0.1l0,0.1l0,0.1l0,0.1l0,0.1l0,0.1l0,0.1l0,0.1l0,0.1l0,0.1l0,0.1l0,0.1l0,0.1l0,0.1l0,0.1l0,0.1l0,0.1l0,0.1
		l0,0.1l0,0.1l0,0.1l0,0.1l0,0.1l0,0.1l0,0.1l0,0.1l0,0.1l0,0.1l0,0.1l0,0.1l0,0.1l0,0.1l0,0.1l0,0.1l0,0.1l0,0.1l0,0.1l0,0.1l0,0.1
		l0,0.1l0,0.1l0,0.1l0,0.1l0,0.1l0,0.1l0,0.1l0,0.1l0,0.1l0,0.1l0,0.1l0,0.1l0,0.1l0,0.1l0,0.1l0,0.1l0,0.1l0,0.1v0.1v0.1l0,0.1
		l0,0.1l0,0.1l0,0.1l0,0.1l0,0.1l0,0.1l0,0.1l0,0.1l0,0.1l0,0.1l0,0.1l0,0.1l0,0.1l0,0.1l0,0.1l0,0.1l0,0.1l0,0.1l0,0.1l0,0.1l0,0.1
		l0,0.1l0,0.1l0,0.1l0,0.1l0,0.1l0,0.1l0,0.1l0,0.1l0,0.1l0,0.1l0,0.1l0,0.1l0,0.1l0,0.1l0,0.1l0,0.1l0,0.1l0,0.1l0,0.1l0,0.1l0,0.1
		l0,0.1l0,0.1l0,0.1l0,0.1l0,0.1l0,0.1l0,0.1l0,0.1l0,0.1l0,0.1l0,0.1l0,0.1l0,0.1l0,0.1l0,0.1l0,0.1l0,0.1l0,0.1l0,0.1l0,0.1l0,0.1
		l0,0.1l0,0.1l0,0.1l0,0.1l0,0.1l0,0.1l0,0.1l0,0.1l0,0.1l0,0.1l0,0.1l0,0.1l0,0.1l0,0.1l0,0.1l0,0.1l0,0.1l0,0.1l0,0.1l0,0.1l0,0.1
		l0,0.1l0,0.1l0,0.1l0,0.1l0,0.1l0,0.1l0,0.1l0,0.1l0,0.1l0,0.1l0,0.1l0,0.1l0,0.1l0,0.1l0,0.1l0,0.1l0,0.1l0,0l0,0l0,0l0,0l0,0l0,0
		l0,0l0,0l0,0l0,0l0,0l0,0l0,0l0,0l0,0l0,0l0,0l0,0l0,0l0,0l0,0l0,0l0,0l0,0l0,0l0,0l0,0l0,0l0,0l0,0l0,0l0,0l0,0l0,0l0,0l0,0l0,0
		l0,0l0,0l0,0l0,0l0,0l0,0l0,0l0,0l0,0l0,0l0,0l0,0l-0.1,0l0,0l-0.1,0l-0.1,0l-0.1,0l-0.1,0l-0.1,0l-0.1,0l-0.1,0l-0.1,0l-0.1,0
		l-0.1,0l-0.1,0l-0.1,0l-0.1,0l-0.1,0l-0.1,0l-0.1,0l-0.1,0l-0.1,0l-0.1,0l-0.1,0l-0.1,0l-0.1,0l-0.1,0l-0.1,0l-0.1,0l-0.1,0l-0.1,0
		l-0.1,0l-0.1,0l-0.1,0l-0.1,0l-0.1,0l-0.1,0l-0.1,0l-0.1,0l-0.1,0l-0.1,0l-0.1,0l-0.1,0l-0.1,0l-0.1,0l-0.1,0l-0.1,0l-0.1,0l-0.1,0
		l-0.1,0l-0.1,0l-0.1,0l-0.1,0l-0.1,0l-0.1,0l-0.1,0l-0.1,0l-0.1,0l-0.1,0l-0.1,0l-0.1,0l-0.1,0l-0.1,0l-0.1,0l-0.1,0l-0.1,0l-0.1,0
		l-0.1,0l-0.1,0l-0.1,0l-0.1,0l-0.1,0l-0.1,0l-0.1,0l-0.1,0l-0.1,0l-0.1,0l-0.1,0l-0.1,0l-0.1,0l-0.1,0l-0.1,0l-0.1,0l-0.1,0l-0.1,0
		l-0.1,0l-0.1,0l-0.1,0l-0.1,0l-0.1,0l-0.1,0l-0.1,0l-0.1,0l-0.1,0l-0.1,0l-0.1,0l-0.1,0l-0.1,0l-0.1,0l-0.1,0l-0.1,0l-0.1,0l-0.1,0
		l-0.1,0L564.7,406.3L564.7,406.3L564.7,406.3z M563.6,407h2.2v4.3h-2.2V407L563.6,407z M563.6,420h2.2v4.3h-2.2V420L563.6,420z
		 M563.6,433h0.5l0.6-0.6h3.8v2.2h-3.8h-1.1v-1.1V433L563.6,433z M577.2,434.6v-2.2h4.3v2.2H577.2L577.2,434.6z M590.2,434.6v-2.2
		h4.3v2.2H590.2L590.2,434.6z M603.2,434.6v-2.2h4.3v2.2H603.2L603.2,434.6z M616.2,434.6v-2.2h4.3v2.2H616.2L616.2,434.6z
		 M629.2,434.6v-2.2h4.3v2.2H629.2L629.2,434.6z M639.5,435.2h2.2v4.3h-2.2V435.2L639.5,435.2z M639.5,448.2h2.2v4.3h-2.2V448.2
		L639.5,448.2z M639.5,461.2h2.2v4.3h-2.2V461.2L639.5,461.2z M639.5,474.2h2.2v4.3h-2.2V474.2L639.5,474.2z M639.5,487.2h2.2v4.3
		h-2.2V487.2L639.5,487.2z M639.5,500.2h2.2v4.3h-2.2V500.2L639.5,500.2z M639.5,513.2h2.2v4.3h-2.2V513.2L639.5,513.2z
		 M639.5,526.2h2.2v4.3h-2.2V526.2L639.5,526.2z M639.5,539.2h2.2v4.3h-2.2V539.2L639.5,539.2z M639.5,552.2h2.2v4.3h-2.2V552.2
		L639.5,552.2z M639.5,565.2h2.2v4.3h-2.2V565.2z"/>
	<g display="inline">
		
			<path fill-rule="evenodd" clip-rule="evenodd" fill="#BFBFBF" stroke="#3F3F3F" stroke-width="2.3853" stroke-miterlimit="2.4142" d="
			M495.8,253.6c-6.4,13.7-12.9,27.3-19.3,41c-1.6,4-3.8,6.2-6.9,6.3c-11,0-22,0-32.9,0c-3.3-0.2-4.6-1.7-3.3-5.4
			c9.4-19.5,18.9-38.9,28.3-58.4c1.5-2.8,4.2-4.7,7.3-4.6h12.6c2.9,0.2,5,2.1,6.5,5.4L495.8,253.6L495.8,253.6z"/>
		
			<path fill-rule="evenodd" clip-rule="evenodd" fill="#FFFFFF" stroke="#3F3F3F" stroke-width="2.3853" stroke-miterlimit="2.4142" d="
			M506.9,289.8h-28.2l17.1-36.2l14.3,29.4C512.5,287.7,511.5,290,506.9,289.8L506.9,289.8z"/>
		
			<rect x="519.3" y="232.5" fill-rule="evenodd" clip-rule="evenodd" fill="#BFBFBF" stroke="#3F3F3F" stroke-width="2.3971" stroke-miterlimit="2.4142" width="37.7" height="58.4"/>
		
			<path fill-rule="evenodd" clip-rule="evenodd" fill="#BFBFBF" stroke="#3F3F3F" stroke-width="2.3853" stroke-miterlimit="2.4142" d="
			M566.4,232.5h19.3c2.5,0,4.9,2.5,3.8,4.8l-4.2,8.8c-1.1,2.3-3.2,4.6-5.7,4.6h-13.1c-2.5,0-4.6-2.1-4.6-4.6v-8.9
			C561.8,234.6,563.9,232.5,566.4,232.5L566.4,232.5z"/>
		
			<path fill-rule="evenodd" clip-rule="evenodd" fill="#BFBFBF" stroke="#3F3F3F" stroke-width="2.3853" stroke-miterlimit="2.4142" d="
			M566.4,255.6h8.2c2.5,0,4.9,2.5,3.8,4.8l-4.2,8.8c-1.1,2.3-3.2,4.6-5.7,4.6h-2.1c-2.5,0-4.6-2.1-4.6-4.6v-8.9
			C561.8,257.7,563.9,255.6,566.4,255.6L566.4,255.6z"/>
		
			<path fill-rule="evenodd" clip-rule="evenodd" fill="#BFBFBF" stroke="#3F3F3F" stroke-width="2.3853" stroke-miterlimit="2.4142" d="
			M602.5,232.5H631c2.5,0,4.6,2.1,4.6,4.6v49.1c0,2.6-2.1,4.6-4.6,4.6h-28.5c-2.5,0-4.6-2.1-4.6-4.6v-49.1
			C597.9,234.6,599.9,232.5,602.5,232.5L602.5,232.5z"/>
		
			<path fill-rule="evenodd" clip-rule="evenodd" fill="#BFBFBF" stroke="#3F3F3F" stroke-width="2.3853" stroke-miterlimit="2.4142" d="
			M648.2,232.5h28.5c2.5,0,4.6,2.1,4.6,4.6v49.1c0,2.6-2.1,4.6-4.6,4.6h-28.5c-2.5,0-4.6-2.1-4.6-4.6v-49.1
			C643.6,234.6,645.6,232.5,648.2,232.5L648.2,232.5z"/>
		
			<path fill-rule="evenodd" clip-rule="evenodd" fill="#BFBFBF" stroke="#3F3F3F" stroke-width="2.3853" stroke-miterlimit="2.4142" d="
			M691.2,232.5H719c2.5,0,4.9,2.5,3.8,4.8l-15.5,32c-1.1,2.3-3.2,4.6-5.7,4.6h-10.4c-2.5,0-4.6-2.1-4.6-4.6v-32.1
			C686.6,234.6,688.6,232.5,691.2,232.5L691.2,232.5z"/>
	</g>
	<g display="inline">
		<g>
			<polygon fill="#DDDDDD" stroke="#DDDDDD" stroke-miterlimit="10" points="602,459.5 602,560.3 664.4,560.3 677.7,547.1 
				677.7,459.5 			"/>
			<polygon fill="#DDDDDD" points="664.4,547.1 664.4,560.3 677.7,547.1 			"/>
			<rect x="608.8" y="472.7" fill="#DDDDDD" width="22.2" height="17.1"/>
			<rect x="608.8" y="497.9" fill="#DDDDDD" width="62.2" height="17.1"/>
			
				<line fill="none" stroke="#DDDDDD" stroke-width="4" stroke-linecap="round" stroke-linejoin="round" stroke-miterlimit="10" x1="636.8" y1="475.3" x2="671" y2="475.3"/>
			
				<line fill="none" stroke="#DDDDDD" stroke-width="4" stroke-linecap="round" stroke-linejoin="round" stroke-miterlimit="10" x1="636.8" y1="481.3" x2="671" y2="481.3"/>
			
				<line fill="none" stroke="#DDDDDD" stroke-width="4" stroke-linecap="round" stroke-linejoin="round" stroke-miterlimit="10" x1="636.8" y1="487.2" x2="671" y2="487.2"/>
			
				<line fill="none" stroke="#DDDDDD" stroke-width="4" stroke-linecap="round" stroke-linejoin="round" stroke-miterlimit="10" x1="608.8" y1="523.4" x2="671" y2="523.4"/>
			
				<line fill="none" stroke="#DDDDDD" stroke-width="4" stroke-linecap="round" stroke-linejoin="round" stroke-miterlimit="10" x1="608.8" y1="529.1" x2="671" y2="529.1"/>
			
				<line fill="none" stroke="#DDDDDD" stroke-width="4" stroke-linecap="round" stroke-linejoin="round" stroke-miterlimit="10" x1="608.8" y1="534.7" x2="671" y2="534.7"/>
			
				<line fill="none" stroke="#DDDDDD" stroke-width="4" stroke-linecap="round" stroke-linejoin="round" stroke-miterlimit="10" x1="608.8" y1="540.4" x2="671" y2="540.4"/>
		</g>
		<g>
			<g>
				<polygon fill="#FFFFFF" stroke="#969696" stroke-miterlimit="10" points="599.7,457.2 599.7,558 662,558 675.3,544.7 
					675.3,457.2 				"/>
				<polygon fill="#DFDFDF" points="662,544.7 662,558 675.3,544.7 				"/>
				<rect x="606.4" y="470.4" fill="#969696" width="22.2" height="17.1"/>
				<rect x="606.4" y="495.6" fill="#F4D45A" width="62.2" height="17.1"/>
				<g>
					
						<line fill="none" stroke="#969696" stroke-width="4" stroke-linecap="round" stroke-linejoin="round" stroke-miterlimit="10" x1="634.5" y1="473" x2="668.7" y2="473"/>
					
						<line fill="none" stroke="#969696" stroke-width="4" stroke-linecap="round" stroke-linejoin="round" stroke-miterlimit="10" x1="634.5" y1="478.9" x2="668.7" y2="478.9"/>
					
						<line fill="none" stroke="#969696" stroke-width="4" stroke-linecap="round" stroke-linejoin="round" stroke-miterlimit="10" x1="634.5" y1="484.9" x2="668.7" y2="484.9"/>
				</g>
				
					<line fill="none" stroke="#969696" stroke-width="4" stroke-linecap="round" stroke-linejoin="round" stroke-miterlimit="10" x1="606.4" y1="521" x2="668.7" y2="521"/>
				
					<line fill="none" stroke="#969696" stroke-width="4" stroke-linecap="round" stroke-linejoin="round" stroke-miterlimit="10" x1="606.4" y1="526.7" x2="668.7" y2="526.7"/>
				
					<line fill="none" stroke="#969696" stroke-width="4" stroke-linecap="round" stroke-linejoin="round" stroke-miterlimit="10" x1="606.4" y1="532.4" x2="668.7" y2="532.4"/>
				
					<line fill="none" stroke="#969696" stroke-width="4" stroke-linecap="round" stroke-linejoin="round" stroke-miterlimit="10" x1="606.4" y1="538" x2="668.7" y2="538"/>
			</g>
		</g>
	</g>
</g>
<g id="Capa_2">
	<rect x="0" y="0.4" display="none" fill-rule="evenodd" clip-rule="evenodd" fill="#2B47AD" width="1106.6" height="1106.2"/>
	<ellipse opacity="5.000000e-002" fill="#272425" cx="553.3" cy="937.7" rx="551.2" ry="81"/>
	<g>
		<path fill-rule="evenodd" clip-rule="evenodd" fill="#2B334E" d="M239.2,433.5h628.1c12.8,0,23.3,10.5,23.3,23.3v396.8
			c0,12.8-10.5,23.3-23.3,23.3H239.2c-12.8,0-23.3-10.5-23.3-23.3V456.9C215.9,444,226.4,433.5,239.2,433.5z"/>
		<rect x="251" y="480.1" fill-rule="evenodd" clip-rule="evenodd" fill="#FFFFFF" width="605" height="346"/>
		<polygon fill-rule="evenodd" clip-rule="evenodd" fill="#F3F3F3" points="251.1,480 855.9,480 855.9,480 251.1,826.2 		"/>
		<path fill-rule="evenodd" clip-rule="evenodd" fill="#E5C935" d="M553.3,466c4.7,0,8.5-3.8,8.5-8.5c0-4.7-3.8-8.5-8.5-8.5
			c-4.7,0-8.5,3.8-8.5,8.5C544.8,462.2,548.6,466,553.3,466z"/>
		<path fill-rule="evenodd" clip-rule="evenodd" fill="#E5C935" d="M553.3,865.4c7.6,0,13.8-6.2,13.8-13.8c0-7.6-6.2-13.8-13.8-13.8
			c-7.6,0-13.8,6.2-13.8,13.8C539.5,859.3,545.7,865.4,553.3,865.4z"/>
		<polygon fill-rule="evenodd" clip-rule="evenodd" fill="#D9D9D9" points="215.9,877 890.7,877 1007.9,926.9 98.7,926.9 		"/>
		<path fill-rule="evenodd" clip-rule="evenodd" fill="#C5C5C5" d="M98.7,926.9h909.1V940c0,9.3-7.6,16.9-16.9,16.9H115.6
			c-9.3,0-16.9-7.6-16.9-16.9V926.9z"/>
		<rect x="461.5" y="936.1" fill-rule="evenodd" clip-rule="evenodd" fill="#A2A2A2" width="183.6" height="11.7"/>
	</g>
	<g>
		<circle fill="#E5C935" cx="770.9" cy="373" r="16.1"/>
		<circle fill="#E5C935" cx="936.8" cy="342.4" r="14.2"/>
		<circle fill="#E5C935" cx="1007.8" cy="573" r="16.1"/>
		<circle fill="#E5C935" cx="863.7" cy="214.7" r="16.1"/>
		<circle fill="#B82A37" cx="905.4" cy="100.8" r="16.1"/>
		<circle fill="#B82A37" cx="982.9" cy="239.1" r="16.1"/>
		<circle fill="#B82A37" cx="1054.7" cy="535.9" r="16.1"/>
		<circle fill="#B82A37" cx="699.4" cy="342.4" r="16.1"/>
		<circle fill="#4E8A89" cx="863.7" cy="342.4" r="10.4"/>
		<circle fill="#4E8A89" cx="796.4" cy="150.7" r="10.4"/>
		<circle fill="#4E8A89" cx="1031.9" cy="393" r="10.4"/>
		<circle fill="#4E8A89" cx="982.9" cy="519.8" r="10.4"/>
		<circle fill="#4E8A89" cx="936.8" cy="630.6" r="10.4"/>
		<circle fill="#4E8A89" cx="607.4" cy="401.5" r="10.4"/>
		<circle fill="#D15E2B" cx="799.3" cy="298.1" r="4.1"/>
		<circle fill="#D15E2B" cx="1038.6" cy="505.3" r="4.1"/>
		<circle fill="#D15E2B" cx="1098.5" cy="356.1" r="4.1"/>
		<circle fill="#D15E2B" cx="947.2" cy="484.5" r="4.1"/>
		<circle fill="#D15E2B" cx="1074.9" cy="315.7" r="4.1"/>
		<circle fill="#D15E2B" cx="1011" cy="424" r="4.1"/>
		<circle fill="#D15E2B" cx="926.7" cy="271.2" r="4.1"/>
		<circle fill="#D15E2B" cx="819.5" cy="168" r="4.1"/>
		<circle fill="#D15E2B" cx="694.1" cy="306.9" r="4.1"/>
		<circle fill="#D15E2B" cx="712.7" cy="235" r="4.1"/>
		<circle fill="#D15E2B" cx="775" cy="187.9" r="4.1"/>
		<circle fill="#B82A37" cx="675.3" cy="168" r="4.1"/>
		<circle fill="#E5C935" cx="697.5" cy="138.5" r="4.1"/>
		<circle fill="#4E8A89" cx="654.7" cy="316.9" r="4.6"/>
	</g>
	<rect x="251" y="480.1" fill-rule="evenodd" clip-rule="evenodd" fill="#FFFFFF" width="605" height="346"/>
	<defs>
		<filter id="Adobe_OpacityMaskFilter" filterUnits="userSpaceOnUse" x="247.7" y="474" width="759.8" height="369.7">
			<feColorMatrix  type="matrix" values="1 0 0 0 0  0 1 0 0 0  0 0 1 0 0  0 0 0 1 0"/>
		</filter>
	</defs>
	<mask maskUnits="userSpaceOnUse" x="247.7" y="474" width="759.8" height="369.7" id="SVGID_1_">
		<g filter="url(#Adobe_OpacityMaskFilter)">
			<rect x="251" y="480.1" fill-rule="evenodd" clip-rule="evenodd" fill="#FFFFFF" width="605" height="346"/>
		</g>
	</mask>
	<g transform="matrix(1 0 0 1 -1.525879e-005 3.051758e-005)" mask="url(#SVGID_1_)">
		
			<image overflow="visible" width="1897" height="923" xlink:href="afip1.png"  transform="matrix(0.4005 0 0 0.4005 247.7359 473.9719)">
		</image>
	</g>
	<polygon opacity="8.000000e-002" fill-rule="evenodd" clip-rule="evenodd" fill="#F3F3F3" points="251.1,480 855.9,480 855.9,480 
		251.1,826.2 	"/>
</g>
</svg>
