<?xml version="1.0" encoding="utf-8"?>
<!-- Generator: Adobe Illustrator 18.0.0, SVG Export Plug-In . SVG Version: 6.00 Build 0)  -->
<!DOCTYPE svg PUBLIC "-//W3C//DTD SVG 1.1//EN" "http://www.w3.org/Graphics/SVG/1.1/DTD/svg11.dtd">
<svg version="1.1" id="Capa_1" xmlns="http://www.w3.org/2000/svg" xmlns:xlink="http://www.w3.org/1999/xlink" x="0px" y="0px"
	 viewBox="0 0 1106.6 1106.6" enable-background="new 0 0 1106.6 1106.6" xml:space="preserve">
<g>
	<path opacity="0.18" fill-rule="evenodd" clip-rule="evenodd" fill="#111111" d="M741,215.5c-4,0-7.9,0.3-11.7,0.8
		c-15.7,2.2-30,8.8-41.6,18.6c-0.2-7.7-0.9-15.2-2.2-22.5c-1-5.4-2.2-10.6-3.8-15.8C669,154,637,119.7,595.9,103.8
		c-4.7-1.8-9.6-3.4-14.5-4.7c-11.8-3.2-24.3-4.9-37.1-4.9c-2,0-4,0.1-5.9,0.2c-76.5,3.1-137.6,66.1-137.6,143.4
		c0,14.7,2.2,28.8,6.3,42.1c-27.5,0.6-49.6,23-49.6,50.7c0,28,22.7,50.7,50.7,50.7h136.1h6.2H741c45.8,0,82.9-37.1,82.9-82.9
		C823.9,252.6,786.7,215.5,741,215.5z"/>
	<path fill="#C6E9F4" d="M730.2,201.9c-4,0-7.9,0.3-11.7,0.9c-15.7,2.3-30,8.9-41.6,18.7c-0.2-7.7-1-15.2-2.3-22.5
		c-1-5.4-2.3-10.6-3.8-15.8c-12.8-42.6-44.9-76.8-86-92.6c-4.7-1.8-9.6-3.4-14.6-4.7c-11.9-3.1-24.3-4.8-37.1-4.8
		c-2,0-4,0.1-5.9,0.2c-76.5,3.3-137.4,66.5-137.2,143.7c0,14.7,2.3,28.8,6.4,42.1c-27.5,0.7-49.5,23.2-49.5,50.8
		c0.1,28,22.8,50.7,50.9,50.6l136.1-0.4l6.2,0l190.6-0.5c45.8-0.1,82.8-37.3,82.7-83.1C813.1,238.8,775.9,201.8,730.2,201.9z"/>
	<g>
		<g>
			<polygon fill="#DDDDDD" stroke="#DDDDDD" stroke-miterlimit="10" points="497.8,157.1 497.8,330.3 604.9,330.3 627.7,307.5 
				627.7,157.1 			"/>
			<polygon fill="#DDDDDD" points="604.9,307.5 604.9,330.3 627.7,307.5 			"/>
			<rect x="509.4" y="179.8" fill="#DDDDDD" width="38.1" height="29.4"/>
			<rect x="509.4" y="223.1" fill="#DDDDDD" width="106.9" height="29.4"/>
			
				<line fill="#DDDDDD" stroke="#DDDDDD" stroke-width="4" stroke-linecap="round" stroke-linejoin="round" stroke-miterlimit="10" x1="557.6" y1="184.3" x2="616.3" y2="184.3"/>
			
				<line fill="#DDDDDD" stroke="#DDDDDD" stroke-width="4" stroke-linecap="round" stroke-linejoin="round" stroke-miterlimit="10" x1="557.6" y1="194.5" x2="616.3" y2="194.5"/>
			
				<line fill="#DDDDDD" stroke="#DDDDDD" stroke-width="4" stroke-linecap="round" stroke-linejoin="round" stroke-miterlimit="10" x1="557.6" y1="204.7" x2="616.3" y2="204.7"/>
			
				<line fill="#DDDDDD" stroke="#DDDDDD" stroke-width="4" stroke-linecap="round" stroke-linejoin="round" stroke-miterlimit="10" x1="509.4" y1="266.8" x2="616.3" y2="266.8"/>
			
				<line fill="#DDDDDD" stroke="#DDDDDD" stroke-width="4" stroke-linecap="round" stroke-linejoin="round" stroke-miterlimit="10" x1="509.4" y1="276.6" x2="616.3" y2="276.6"/>
			
				<line fill="#DDDDDD" stroke="#DDDDDD" stroke-width="4" stroke-linecap="round" stroke-linejoin="round" stroke-miterlimit="10" x1="509.4" y1="286.3" x2="616.3" y2="286.3"/>
			
				<line fill="#DDDDDD" stroke="#DDDDDD" stroke-width="4" stroke-linecap="round" stroke-linejoin="round" stroke-miterlimit="10" x1="509.4" y1="296" x2="616.3" y2="296"/>
		</g>
		<g>
			<g>
				<polygon fill="#FFFFFF" stroke="#969696" stroke-miterlimit="10" points="493.8,153.1 493.8,326.3 600.9,326.3 623.7,303.5 
					623.7,153.1 				"/>
				<polygon fill="#DFDFDF" points="600.9,303.5 600.9,326.3 623.7,303.5 				"/>
				<rect x="505.4" y="175.8" fill="#969696" width="38.1" height="29.4"/>
				<rect x="505.4" y="219.1" fill="#F4D45A" width="106.9" height="29.4"/>
				<g>
					
						<line fill="#969696" stroke="#969696" stroke-width="4" stroke-linecap="round" stroke-linejoin="round" stroke-miterlimit="10" x1="553.6" y1="180.3" x2="612.3" y2="180.3"/>
					
						<line fill="#969696" stroke="#969696" stroke-width="4" stroke-linecap="round" stroke-linejoin="round" stroke-miterlimit="10" x1="553.6" y1="190.5" x2="612.3" y2="190.5"/>
					
						<line fill="#969696" stroke="#969696" stroke-width="4" stroke-linecap="round" stroke-linejoin="round" stroke-miterlimit="10" x1="553.6" y1="200.7" x2="612.3" y2="200.7"/>
				</g>
				
					<line fill="#969696" stroke="#969696" stroke-width="4" stroke-linecap="round" stroke-linejoin="round" stroke-miterlimit="10" x1="505.4" y1="262.8" x2="612.3" y2="262.8"/>
				
					<line fill="#969696" stroke="#969696" stroke-width="4" stroke-linecap="round" stroke-linejoin="round" stroke-miterlimit="10" x1="505.4" y1="272.6" x2="612.3" y2="272.6"/>
				
					<line fill="#969696" stroke="#969696" stroke-width="4" stroke-linecap="round" stroke-linejoin="round" stroke-miterlimit="10" x1="505.4" y1="282.3" x2="612.3" y2="282.3"/>
				
					<line fill="#969696" stroke="#969696" stroke-width="4" stroke-linecap="round" stroke-linejoin="round" stroke-miterlimit="10" x1="505.4" y1="292" x2="612.3" y2="292"/>
			</g>
		</g>
	</g>
</g>
<ellipse opacity="0.18" fill="#111111" cx="553.4" cy="1084.5" rx="137.6" ry="8"/>
<g>
	<path fill-rule="evenodd" clip-rule="evenodd" fill="#F9F1F3" d="M457,1083.6c0-4.3,3.2-7.9,7.5-8.4l16.4-2l16.5-62.9h122.1
		l16.5,62.9l16.4,2c4.3,0.5,7.5,4.1,7.5,8.4H457z"/>
	<polygon fill-rule="evenodd" clip-rule="evenodd" fill="#B9BBBC" points="494.6,1020.8 497.4,1010.3 619.5,1010.3 622.2,1020.8 	
		"/>
	<path fill-rule="evenodd" clip-rule="evenodd" fill="#303130" d="M250.8,957.7V605c0-7.5,6.1-13.6,13.6-13.6h577.7
		c7.5,0,13.6,6.1,13.6,13.6v352.8H250.8z"/>
	<path fill-rule="evenodd" clip-rule="evenodd" fill="#F9F1F3" d="M842.1,1012.3H264.4c-7.5,0-13.6-6.1-13.6-13.6v-40.9h605v40.9
		C855.8,1006.2,849.7,1012.3,842.1,1012.3z"/>
	<rect x="269.5" y="615.2" fill-rule="evenodd" clip-rule="evenodd" fill="#FFFFFF" width="567.5" height="318.7"/>
	<rect x="269.5" y="905.5" fill-rule="evenodd" clip-rule="evenodd" fill="#80C2CC" width="567.5" height="28.3"/>
	<g>
		<rect x="435.8" y="624.9" fill-rule="evenodd" clip-rule="evenodd" fill="#7589C2" width="235" height="15.4"/>
		<rect x="483.8" y="645.1" fill-rule="evenodd" clip-rule="evenodd" fill="#7589C2" width="139" height="15.4"/>
	</g>
	<g>
		<rect x="348.2" y="773.9" fill-rule="evenodd" clip-rule="evenodd" fill="#80C2CC" width="71.4" height="118"/>
		<g>
			<rect x="349.8" y="674.6" fill-rule="evenodd" clip-rule="evenodd" fill="#49535A" width="244.7" height="90.5"/>
			<g>
				<path fill-rule="evenodd" clip-rule="evenodd" fill="#FFFFFF" d="M578.2,713.4c-0.4-0.5-0.3-1.1,0.2-1.5
					c0.5-0.4,1.1-0.3,1.5,0.2l5.3,7c0,0,0.1,0.1,0.1,0.1l0,0l0,0l0,0c0,0,0,0.1,0,0.1l0,0.1l0,0l0,0.1l0,0.1c0,0,0,0.1,0,0.1v0l0,0
					l0,0v0v0v0l0,0l0,0v0c0,0,0,0.1,0,0.1l0,0.1l0,0.1l0,0l0,0.1c0,0,0,0.1,0,0.1l0,0l0,0l0,0c0,0-0.1,0.1-0.1,0.1l-5.3,7
					c-0.4,0.5-1,0.6-1.5,0.2c-0.5-0.4-0.5-1-0.2-1.5l4.8-6.4L578.2,713.4z"/>
				<path fill-rule="evenodd" clip-rule="evenodd" fill="#FFFFFF" d="M364.5,712.1c0.4-0.5,1-0.5,1.5-0.2c0.5,0.4,0.5,1,0.2,1.5
					l-4.8,6.4l4.8,6.4c0.4,0.5,0.3,1.1-0.2,1.5c-0.5,0.4-1.1,0.3-1.5-0.2l-5.3-7c0,0-0.1-0.1-0.1-0.1l0,0l0,0l0,0c0,0,0-0.1,0-0.1
					l0-0.1l0,0l0-0.1l0-0.1c0,0,0-0.1,0-0.1v0l0,0l0,0v0v0v0l0,0l0,0v0c0,0,0-0.1,0-0.1l0-0.1l0-0.1l0,0l0-0.1l0-0.1l0,0l0,0l0,0
					c0,0,0.1-0.1,0.1-0.1L364.5,712.1z"/>
			</g>
		</g>
		<rect x="438.1" y="773.9" fill-rule="evenodd" clip-rule="evenodd" fill="#D9804A" width="71.4" height="58.3"/>
		<rect x="601.9" y="773.9" fill-rule="evenodd" clip-rule="evenodd" fill="#D0C975" width="156.4" height="58.3"/>
		<rect x="601.9" y="674.6" fill-rule="evenodd" clip-rule="evenodd" fill="#F0C830" width="156.4" height="90.5"/>
		<g>
			<rect x="438.1" y="838.1" fill-rule="evenodd" clip-rule="evenodd" fill="#909294" width="153" height="4.7"/>
			<rect x="438.1" y="846.7" fill-rule="evenodd" clip-rule="evenodd" fill="#909294" width="153" height="4.7"/>
			<rect x="438.1" y="855.3" fill-rule="evenodd" clip-rule="evenodd" fill="#909294" width="153" height="4.7"/>
			<rect x="438.1" y="863.8" fill-rule="evenodd" clip-rule="evenodd" fill="#909294" width="153" height="4.7"/>
			<rect x="438.1" y="872.4" fill-rule="evenodd" clip-rule="evenodd" fill="#909294" width="153" height="4.7"/>
			<rect x="438.1" y="881" fill-rule="evenodd" clip-rule="evenodd" fill="#909294" width="153" height="4.7"/>
			<rect x="438.1" y="889.6" fill-rule="evenodd" clip-rule="evenodd" fill="#909294" width="153" height="4.7"/>
		</g>
		<g>
			<rect x="516" y="776" fill-rule="evenodd" clip-rule="evenodd" fill="#909294" width="75.1" height="4.7"/>
			<rect x="516" y="784.6" fill-rule="evenodd" clip-rule="evenodd" fill="#909294" width="75.1" height="4.7"/>
			<rect x="516" y="793.2" fill-rule="evenodd" clip-rule="evenodd" fill="#909294" width="75.1" height="4.7"/>
			<rect x="516" y="801.8" fill-rule="evenodd" clip-rule="evenodd" fill="#909294" width="75.1" height="4.7"/>
			<rect x="516" y="810.3" fill-rule="evenodd" clip-rule="evenodd" fill="#909294" width="75.1" height="4.7"/>
			<rect x="516" y="818.9" fill-rule="evenodd" clip-rule="evenodd" fill="#909294" width="75.1" height="4.7"/>
			<rect x="516" y="827.5" fill-rule="evenodd" clip-rule="evenodd" fill="#909294" width="75.1" height="4.7"/>
		</g>
		<rect x="601.9" y="837.9" fill-rule="evenodd" clip-rule="evenodd" fill="#AFCB49" width="75.7" height="58.8"/>
		<rect x="682.7" y="837.9" fill-rule="evenodd" clip-rule="evenodd" fill="#6CA1AA" width="75.7" height="58.8"/>
	</g>
</g>
<path fill-rule="evenodd" clip-rule="evenodd" fill="#FFFFFF" d="M556.5,389.9h-2.2v-4.3h2.2V389.9L556.5,389.9z M639.5,572.2
	L639.5,572.2l0-0.1l0-0.1l0-0.1l0-0.1l0-0.1l0-0.1l0-0.1l0-0.1l0-0.1l0-0.1l0-0.1l0-0.1l0-0.1l0-0.1l0-0.1l0-0.1l0-0.1l0-0.1l0-0.1
	l0-0.1l0-0.1l0-0.1l0-0.1l0-0.1l0-0.1l0-0.1l0-0.1l0,0l0-0.1l0,0l0-0.1l0,0l0-0.1l0,0l0,0l0,0l0,0l0,0l0,0l0,0l0,0l0,0l0,0l0,0l0,0
	l0,0l0,0l0,0l0,0l0,0l0,0l0,0l0,0l0,0l0,0l0,0l0,0l0,0l0,0l0,0l0,0l0,0l0,0l0,0l0,0l0,0l0,0l0,0l0,0l0,0l0,0l0,0l0,0l0,0l0,0l0,0
	l0,0l0,0l0,0l0,0l0,0l0,0l0,0l0,0l0,0l0,0l0,0l0,0l0,0l0,0l0,0l0,0l0,0l0,0l0,0l0,0l0,0l0,0l0,0l0,0l0,0l0,0l0,0l0,0l0,0l0,0l0,0
	l0,0l0,0l0,0l0,0l0,0l0,0l0,0l0,0l0,0l0,0l0,0l0,0l0,0l0,0l0,0l0,0l0,0l0,0l0,0l0,0l0,0l0,0l0,0l0,0l0,0l0,0l0,0l0,0l0,0l0,0l0,0
	l0,0l0,0l0,0l0,0l0,0l0,0l0,0l0,0l0,0l0,0l0,0l0,0l0,0l0,0l0,0l0,0l0,0l0,0l0,0l0,0l0,0l0,0l0,0l0,0l0,0l0,0l0,0l0,0l0,0l0,0l0,0
	l0,0l0,0l0,0l0,0l0,0l0,0l0,0l0,0l0,0l0,0l0,0l0,0l0,0l0,0l0,0l0,0l0,0l0,0l0,0l0,0l0,0l0,0l0,0l0,0l0,0l0,0l0,0l0,0l0,0l0,0l0,0
	l0,0l0,0l0,0l0,0l0,0l0,0l0,0l0,0l0,0l0,0l0,0l0,0l0,0l0,0l0,0l0,0l0,0l0,0l0,0l0,0l0,0l0,0l0,0l-0.1,0l0,0l-0.1,0l-0.1,0l-0.1,0
	l-0.1,0l-0.1,0l-0.1,0l-0.1,0l-0.1,0l-0.1,0l-0.1,0l-0.1,0l-0.1,0l-0.1,0l-0.1,0l-0.1,0l-0.1,0l-0.1,0l-0.1,0l-0.1,0l-0.1,0l-0.1,0
	l-0.1,0l-0.1,0l-0.1,0l-0.1,0l-0.1,0l-0.1,0l-0.1,0l-0.1,0h-0.1h-0.1l-0.1,0l-0.1,0l-0.1,0l-0.1,0l-0.1,0l-0.1,0l-0.1,0l-0.1,0
	l-0.1,0l-0.1,0l-0.1,0l-0.1,0l-0.1,0l-0.1,0l-0.1,0l-0.1,0l-0.1,0l-0.1,0l-0.1,0l-0.1,0l-0.1,0l-0.1,0l-0.1,0l-0.1,0l-0.1,0l-0.1,0
	l-0.1,0l-0.1,0l-0.1,0l0,0l0,0l0,0l0,0l0,0l0,0l0,0l0,0l0,0l0,0l0,0l0,0l0,0l0,0l0,0l0,0l0,0l0,0l0,0l0,0l0,0l0,0l0,0l0,0l0,0l0,0
	l0,0l0,0l0,0l0,0l0,0l0,0l0,0l0,0l0,0l0,0l0,0l0,0l0,0l0,0l0,0l0,0l0,0l0,0l0,0l0,0l0,0l0,0l0,0l0,0l0,0l0,0l0,0l0,0l0,0l0,0l0,0
	l0,0l0,0l0,0l0,0l0,0l0,0l0,0l0,0l0,0l0,0l0,0l0,0l0,0l0,0l0,0l0,0l0,0l0,0l0,0l0,0l0,0l0,0l0,0l0,0l0,0l0,0l0,0l0,0l0,0l0,0l0,0
	l0,0l0,0l0,0l0,0l0,0l0,0l0,0l0,0l0,0l0,0l0,0l0,0l0,0l0,0l0,0l0,0l0,0l0,0l0,0l0,0l0,0l0,0l0,0l0,0l0,0l0,0l0,0l0,0l0,0l0,0l0,0
	l0,0l0,0l0,0l0,0l0,0l0,0l0,0l0,0l0,0l0,0l0,0l0,0l0,0l0,0l0,0l0,0l0,0l0,0l0,0l0,0l0,0l0,0l0,0l0,0l0,0l0,0l0,0l0,0l0,0l0,0l0,0
	l0,0l0,0l0,0l0,0l0,0l0,0l0,0l0,0l0,0l0,0l0,0l0,0l0,0l0,0l0,0l0,0l0,0l0,0l0,0l0,0l0,0l0,0l0,0l0,0l0,0l0,0l0,0l0,0l0,0l0,0l0,0
	l0,0l0,0l0,0l0,0l0,0l0,0l0,0l0,0l0,0l0,0l0,0l0,0l0,0l0,0.1l0,0l0,0l0,0.1l0,0.1l0,0.1l0,0.1l0,0.1l0,0.1l0,0.1l0,0.1l0,0.1l0,0.1
	l0,0.1l0,0.1l0,0.1l0,0.1l0,0.1l0,0.1l0,0.1l0,0.1l0,0.1l0,0.1l0,0.1l0,0.1l0,0.1l0,0.1l0,0.1l0,0.1l0,0.1l0,0.1v0.1v0.1l0,0.1
	l0,0.1l0,0.1l0,0.1l0,0.1l0,0.1l0,0.1l0,0.1l0,0.1l0,0.1l0,0.1l0,0.1l0,0.1l0,0.1l0,0.1l0,0.1l0,0.1l0,0.1l0,0.1l0,0.1l0,0.1l0,0.1
	l0,0.1l0,0.1l0,0.1l0,0.1l0,0.1l0,0.1l0,0l0,0.1l0,0l0,0l0,0l0,0l0,0l0,0l0,0l0,0l0,0l0,0l0,0l0,0l0,0l0,0l0,0l0,0l0,0l0,0l0,0l0,0
	l0,0l0,0l0,0l0,0l0,0l0,0l0,0l0,0l0,0l0,0l0,0l0,0l0,0l0,0l0,0l0,0l0,0l0,0l0,0l0,0l0,0l0,0l0,0l0,0l0,0l0,0l0,0l0,0l0,0l0,0l0,0
	l0,0l0,0l0,0l0,0l0,0l0,0l0,0l0,0l0,0l0,0l0,0l0,0l0,0l0,0l0,0l0,0l0,0l0,0l0,0l0,0l0,0l0,0l0,0l0,0l0,0l0,0l0,0l0,0l0,0l0,0l0,0
	l0,0l0,0l0,0l0,0l0,0l0,0l0,0l0,0l0,0l0,0l0,0l0,0l0,0l0,0l0,0l0,0l0,0l0,0l0,0l0,0l0,0l0,0l0,0l0,0l0,0l0,0l0,0l0,0l0,0l0,0l0,0
	l0,0l0,0l0,0l0,0l0,0l0,0l0,0l0,0l0,0l0,0l0,0l0,0l0,0l0,0l0,0l0,0l0,0l0,0l0,0l0,0l0,0l0,0l0,0l0,0l0,0l0,0l0,0l0,0l0,0l0,0l0,0
	l0,0l0,0l0,0l0,0l0,0l0,0l0,0l0,0l0,0l0,0l0,0l0,0l0,0l0,0l0,0l0,0l0,0l0,0l0,0l0,0l0,0l0,0l0,0l0,0l0,0l0,0l0,0l0,0l0,0l0,0l0,0
	l0,0l0,0l0,0l0,0l0,0l0,0l0,0l0,0l0,0l0,0l0,0l0,0l0,0l0,0l0,0l0,0l0,0l0,0l0,0l0,0l0.1,0l0.1,0l0.1,0l0.1,0l0.1,0l0.1,0l0.1,0
	l0.1,0l0.1,0l0.1,0l0.1,0l0.1,0l0.1,0l0.1,0l0.1,0l0.1,0l0.1,0l0.1,0l0.1,0l0.1,0l0.1,0l0.1,0l0.1,0l0.1,0l0.1,0l0.1,0l0.1,0l0.1,0
	l0.1,0h0.1h0.1l0.1,0l0.1,0l0.1,0l0.1,0l0.1,0l0.1,0l0.1,0l0.1,0l0.1,0l0.1,0l0.1,0l0.1,0l0.1,0l0.1,0l0.1,0l0.1,0l0.1,0l0.1,0
	l0.1,0l0.1,0l0.1,0l0.1,0l0.1,0l0.1,0l0.1,0l0.1,0l0.1,0l0.1,0l0.1,0l0,0l0,0l0.1,0l0,0l0,0l0,0l0,0l0,0l0,0l0,0l0,0l0,0l0,0l0,0
	l0,0l0,0l0,0l0,0l0,0l0,0l0,0l0,0l0,0l0,0l0,0l0,0l0,0l0,0l0,0l0,0l0,0l0,0l0,0l0,0l0,0l0,0l0,0l0,0l0,0l0,0l0,0l0,0l0,0l0,0l0,0
	l0,0l0,0l0,0l0,0l0,0l0,0l0,0l0,0l0,0l0,0l0,0l0,0l0,0l0,0l0,0l0,0l0,0l0,0l0,0l0,0l0,0l0,0l0,0l0,0l0,0l0,0l0,0l0,0l0,0l0,0l0,0
	l0,0l0,0l0,0l0,0l0,0l0,0l0,0l0,0l0,0l0,0l0,0l0,0l0,0l0,0l0,0l0,0l0,0l0,0l0,0l0,0l0,0l0,0l0,0l0,0l0,0l0,0l0,0l0,0l0,0l0,0l0,0
	l0,0l0,0l0,0l0,0l0,0l0,0l0,0l0,0l0,0l0,0l0,0l0,0l0,0l0,0l0,0l0,0l0,0l0,0l0,0l0,0l0,0l0,0l0,0l0,0l0,0l0,0l0,0l0,0l0,0l0,0l0,0
	l0,0l0,0l0,0l0,0l0,0l0,0l0,0l0,0l0,0l0,0l0,0l0,0l0,0l0,0l0,0l0,0l0,0l0,0l0,0l0,0l0,0l0,0l0,0l0,0l0,0l0,0l0,0l0,0l0,0l0,0l0,0
	l0,0l0,0l0,0l0,0l0,0l0,0l0,0l0,0l0,0l0,0l0,0l0,0l0,0l0,0l0,0l0,0l0,0l0,0l0,0l0,0l0,0l0,0l0,0l0,0l0,0l0-0.1l0,0l0-0.1l0,0l0-0.1
	l0-0.1l0-0.1l0-0.1l0-0.1l0-0.1l0-0.1l0-0.1l0-0.1l0-0.1l0-0.1l0-0.1l0-0.1l0-0.1l0-0.1l0-0.1l0-0.1l0-0.1l0-0.1l0-0.1l0-0.1l0-0.1
	l0-0.1l0-0.1l0-0.1l0-0.1L639.5,572.2L639.5,572.2L639.5,572.2z M631.3,561.8L631.3,561.8l0.1,0l0.1,0l0.1,0l0.1,0l0.1,0l0.1,0
	l0.1,0l0.1,0l0.1,0l0.1,0l0.1,0l0.1,0l0.1,0l0.1,0l0.1,0l0.1,0l0.1,0l0.1,0l0.1,0l0.1,0l0.1,0l0.1,0l0.1,0l0.1,0l0.1,0l0.1,0l0.1,0
	l0.1,0l0.1,0l0.1,0l0.1,0l0.1,0l0.1,0l0.1,0l0.1,0l0.1,0l0.1,0l0.1,0l0.1,0l0.1,0l0.1,0l0.1,0l0.1,0l0.1,0l0.1,0l0.1,0l0.1,0l0.1,0
	l0.1,0l0.1,0l0.1,0l0.1,0l0.1,0l0.1,0l0.1,0l0.1,0l0.1,0l0.1,0l0.1,0l0.1,0l0.1,0l0.1,0l0.1,0l0.1,0l0.1,0l0.1,0l0.1,0l0.1,0l0.1,0
	l0.1,0l0.1,0l0.1,0l0.1,0l0.1,0l0.1,0l0.1,0l0.1,0l0.1,0l0.1,0l0.1,0l0.1,0l0.1,0l0.1,0l0.1,0l0.1,0l0.1,0l0.1,0l0.1,0l0.1,0l0.1,0
	l0.1,0l0.1,0l0.1,0l0.1,0l0.1,0l0.1,0l0.1,0l0.1,0l0.1,0l0.1,0l0.1,0l0,0l0.1,0l0,0l0,0l0,0l0,0l0,0l0,0l0,0l0,0l0,0l0,0l0,0l0,0
	l0,0l0,0l0,0l0,0l0,0l0,0l0,0l0,0l0,0l0,0l0,0l0,0l0,0l0,0l0,0l0,0l0,0l0,0l0,0l0,0l0,0l0,0l0,0l0,0l0,0l0,0l0,0l0,0l0,0l0,0l0,0
	l0,0l0,0l0,0l0,0l0,0l0,0l0,0.1l0,0.1l0,0.1l0,0.1l0,0.1l0,0.1l0,0.1l0,0.1l0,0.1l0,0.1l0,0.1l0,0.1l0,0.1l0,0.1l0,0.1l0,0.1l0,0.1
	l0,0.1l0,0.1l0,0.1l0,0.1l0,0.1l0,0.1l0,0.1l0,0.1l0,0.1l0,0.1l0,0.1l0,0.1l0,0.1l0,0.1l0,0.1l0,0.1l0,0.1l0,0.1l0,0.1l0,0.1l0,0.1
	l0,0.1l0,0.1l0,0.1l0,0.1l0,0.1l0,0.1l0,0.1l0,0.1l0,0.1l0,0.1l0,0.1l0,0.1l0,0.1l0,0.1l0,0.1l0,0.1l0,0.1l0,0.1l0,0.1l0,0.1l0,0.1
	l0,0.1l0,0.1l0,0.1l0,0.1l0,0.1l0,0.1l0,0.1l0,0.1l0,0.1l0,0.1l0,0.1l0,0.1l0,0.1l0,0.1l0,0.1l0,0.1l0,0.1l0,0.1l0,0.1l0,0.1l0,0.1
	l0,0.1l0,0.1l0,0.1l0,0.1l0,0.1l0,0.1l0,0.1l0,0.1l0,0.1l0,0.1l0,0.1l0,0.1l0,0.1l0,0.1l0,0.1l0,0.1l0,0.1l0,0.1l0,0.1l0,0.1l0,0.1
	l0,0.1v0.1v0.1l0,0.1l0,0.1l0,0.1l0,0.1l0,0.1l0,0.1l0,0.1l0,0.1l0,0.1l0,0.1l0,0.1l0,0.1l0,0.1l0,0.1l0,0.1l0,0.1l0,0.1l0,0.1
	l0,0.1l0,0.1l0,0.1l0,0.1l0,0.1l0,0.1l0,0.1l0,0.1l0,0.1l0,0.1l0,0.1l0,0.1l0,0.1l0,0.1l0,0.1l0,0.1l0,0.1l0,0.1l0,0.1l0,0.1l0,0.1
	l0,0.1l0,0.1l0,0.1l0,0.1l0,0.1l0,0.1l0,0.1l0,0.1l0,0.1l0,0.1l0,0.1l0,0.1l0,0.1l0,0.1l0,0.1l0,0.1l0,0.1l0,0.1l0,0.1l0,0.1l0,0.1
	l0,0.1l0,0.1l0,0.1l0,0.1l0,0.1l0,0.1l0,0.1l0,0.1l0,0.1l0,0.1l0,0.1l0,0.1l0,0.1l0,0.1l0,0.1l0,0.1l0,0.1l0,0.1l0,0.1l0,0.1l0,0.1
	l0,0.1l0,0.1l0,0.1l0,0.1l0,0.1l0,0.1l0,0.1l0,0.1l0,0.1l0,0.1l0,0.1l0,0.1l0,0.1l0,0.1l0,0.1l0,0.1l0,0.1l0,0.1l0,0.1l0,0.1l0,0.1
	l0,0l0,0l0,0l0,0l0,0l0,0l0,0l0,0l0,0l0,0l0,0l0,0l0,0l0,0l0,0l0,0l0,0l0,0l0,0l0,0l0,0l0,0l0,0l0,0l0,0l0,0l0,0l0,0l0,0l0,0l0,0
	l0,0l0,0l0,0l0,0l0,0l0,0l0,0l0,0l0,0l0,0l0,0l0,0l0,0l0,0l0,0l0,0l0,0l0,0l0,0l-0.1,0l-0.1,0l-0.1,0l-0.1,0l-0.1,0l-0.1,0l-0.1,0
	l-0.1,0l-0.1,0l-0.1,0l-0.1,0l-0.1,0l-0.1,0l-0.1,0l-0.1,0l-0.1,0l-0.1,0l-0.1,0l-0.1,0l-0.1,0l-0.1,0l-0.1,0l-0.1,0l-0.1,0l-0.1,0
	l-0.1,0l-0.1,0l-0.1,0l-0.1,0l-0.1,0l-0.1,0l-0.1,0l-0.1,0l-0.1,0l-0.1,0l-0.1,0l-0.1,0l-0.1,0l-0.1,0l-0.1,0l-0.1,0l-0.1,0l-0.1,0
	l-0.1,0l-0.1,0l-0.1,0l-0.1,0l-0.1,0l-0.1,0l-0.1,0l-0.1,0l-0.1,0l-0.1,0l-0.1,0l-0.1,0l-0.1,0l-0.1,0l-0.1,0l-0.1,0l-0.1,0l-0.1,0
	l-0.1,0l-0.1,0l-0.1,0l-0.1,0l-0.1,0l-0.1,0l-0.1,0l-0.1,0l-0.1,0l-0.1,0l-0.1,0l-0.1,0l-0.1,0l-0.1,0l-0.1,0l-0.1,0l-0.1,0l-0.1,0
	l-0.1,0l-0.1,0l-0.1,0l-0.1,0l-0.1,0l-0.1,0l-0.1,0l-0.1,0l-0.1,0l-0.1,0l-0.1,0l-0.1,0l-0.1,0l-0.1,0l-0.1,0l-0.1,0l-0.1,0l-0.1,0
	l-0.1,0l-0.1,0l-0.1,0l-0.1,0l-0.1,0l-0.1,0l-0.1,0l-0.1,0l-0.1,0l-0.1,0l-0.1,0l-0.1,0l-0.1,0l-0.1,0l-0.1,0l-0.1,0l-0.1,0l-0.1,0
	l-0.1,0l-0.1,0l-0.1,0l-0.1,0l-0.1,0l-0.1,0l-0.1,0l-0.1,0l-0.1,0l-0.1,0l-0.1,0l-0.1,0l-0.1,0l-0.1,0l-0.1,0l-0.1,0l-0.1,0l-0.1,0
	l-0.1,0l-0.1,0l-0.1,0l-0.1,0l-0.1,0l-0.1,0l-0.1,0l-0.1,0l-0.1,0l-0.1,0l-0.1,0l-0.1,0l-0.1,0l-0.1,0l-0.1,0l-0.1,0l-0.1,0l-0.1,0
	l-0.1,0l-0.1,0l-0.1,0l-0.1,0l-0.1,0l-0.1,0l-0.1,0l-0.1,0l-0.1,0l-0.1,0l-0.1,0l-0.1,0l-0.1,0l-0.1,0l-0.1,0l-0.1,0l-0.1,0l-0.1,0
	l-0.1,0l-0.1,0l-0.1,0l-0.1,0l-0.1,0l-0.1,0l-0.1,0l-0.1,0l-0.1,0l-0.1,0l-0.1,0l-0.1,0l-0.1,0l-0.1,0l-0.1,0l-0.1,0l-0.1,0l-0.1,0
	l-0.1,0l-0.1,0l-0.1,0l-0.1,0l-0.1,0l-0.1,0l-0.1,0l-0.1,0l-0.1,0l-0.1,0l-0.1,0l-0.1,0l-0.1,0l-0.1,0l-0.1,0l-0.1,0l-0.1,0l-0.1,0
	l-0.1,0l0,0l0,0l0,0l0,0l0,0l0,0l0,0l0,0l0,0l0,0l0,0l0,0l0,0l0,0l0,0l0,0l0,0l0,0l0,0l0,0l0,0l0,0l0,0l0,0l0,0l0,0l0,0l0,0l0,0l0,0
	l0,0l0,0l0,0l0,0l0,0l0,0l0,0l0,0l0,0l0,0l0,0l0,0l0,0l0,0l0,0l0,0l0,0l0,0l0,0l0,0l0-0.1l0-0.1l0-0.1l0-0.1l0-0.1l0-0.1l0-0.1
	l0-0.1l0-0.1l0-0.1l0-0.1l0-0.1l0-0.1l0-0.1l0-0.1l0-0.1l0-0.1l0-0.1l0-0.1l0-0.1l0-0.1l0-0.1l0-0.1l0-0.1l0-0.1l0-0.1l0-0.1l0-0.1
	l0-0.1l0-0.1l0-0.1l0-0.1l0-0.1l0-0.1l0-0.1l0-0.1l0-0.1l0-0.1l0-0.1l0-0.1l0-0.1l0-0.1l0-0.1l0-0.1l0-0.1l0-0.1l0-0.1l0-0.1l0-0.1
	l0-0.1l0-0.1l0-0.1l0-0.1l0-0.1l0-0.1l0-0.1l0-0.1l0-0.1l0-0.1l0-0.1l0-0.1l0-0.1l0-0.1l0-0.1l0-0.1l0-0.1l0-0.1l0-0.1l0-0.1l0-0.1
	l0-0.1l0-0.1l0-0.1l0-0.1l0-0.1l0-0.1l0-0.1l0-0.1l0-0.1l0-0.1l0-0.1l0-0.1l0-0.1l0-0.1l0-0.1l0-0.1l0-0.1l0-0.1l0-0.1l0-0.1l0-0.1
	l0-0.1l0-0.1l0-0.1l0-0.1l0-0.1l0-0.1l0-0.1l0-0.1l0-0.1l0-0.1l0-0.1v-0.1v-0.1l0-0.1l0-0.1l0-0.1l0-0.1l0-0.1l0-0.1l0-0.1l0-0.1
	l0-0.1l0-0.1l0-0.1l0-0.1l0-0.1l0-0.1l0-0.1l0-0.1l0-0.1l0-0.1l0-0.1l0-0.1l0-0.1l0-0.1l0-0.1l0-0.1l0-0.1l0-0.1l0-0.1l0-0.1l0-0.1
	l0-0.1l0-0.1l0-0.1l0-0.1l0-0.1l0-0.1l0-0.1l0-0.1l0-0.1l0-0.1l0-0.1l0-0.1l0-0.1l0-0.1l0-0.1l0-0.1l0-0.1l0-0.1l0-0.1l0-0.1l0-0.1
	l0-0.1l0-0.1l0-0.1l0-0.1l0-0.1l0-0.1l0-0.1l0-0.1l0-0.1l0-0.1l0-0.1l0-0.1l0-0.1l0-0.1l0-0.1l0-0.1l0-0.1l0-0.1l0-0.1l0-0.1l0-0.1
	l0-0.1l0-0.1l0-0.1l0-0.1l0-0.1l0-0.1l0-0.1l0-0.1l0-0.1l0-0.1l0-0.1l0-0.1l0-0.1l0-0.1l0-0.1l0-0.1l0-0.1l0-0.1l0-0.1l0-0.1l0-0.1
	l0-0.1l0-0.1l0-0.1l0-0.1l0-0.1l0-0.1l0-0.1l0-0.1l0-0.1l0-0.1l0,0l0,0l0,0l0,0l0,0l0,0l0,0l0,0l0,0l0,0l0,0l0,0l0,0l0,0l0,0l0,0
	l0,0l0,0l0,0l0,0l0,0l0,0l0,0l0,0l0,0l0,0l0,0l0,0l0,0l0,0l0,0l0,0l0,0l0,0l0,0l0,0l0,0l0,0l0,0l0,0l0,0l0,0l0,0l0,0l0,0l0,0l0,0
	l0,0l0,0l0.1,0l0,0l0.1,0l0.1,0l0.1,0l0.1,0l0.1,0l0.1,0l0.1,0l0.1,0l0.1,0l0.1,0l0.1,0l0.1,0l0.1,0l0.1,0l0.1,0l0.1,0l0.1,0l0.1,0
	l0.1,0l0.1,0l0.1,0l0.1,0l0.1,0l0.1,0l0.1,0l0.1,0l0.1,0l0.1,0l0.1,0l0.1,0l0.1,0l0.1,0l0.1,0l0.1,0l0.1,0l0.1,0l0.1,0l0.1,0l0.1,0
	l0.1,0l0.1,0l0.1,0l0.1,0l0.1,0l0.1,0l0.1,0l0.1,0l0.1,0l0.1,0l0.1,0l0.1,0l0.1,0l0.1,0l0.1,0l0.1,0l0.1,0l0.1,0l0.1,0l0.1,0l0.1,0
	l0.1,0l0.1,0l0.1,0l0.1,0l0.1,0l0.1,0l0.1,0l0.1,0l0.1,0l0.1,0l0.1,0l0.1,0l0.1,0l0.1,0l0.1,0l0.1,0l0.1,0l0.1,0l0.1,0l0.1,0l0.1,0
	l0.1,0l0.1,0l0.1,0l0.1,0l0.1,0l0.1,0l0.1,0l0.1,0l0.1,0l0.1,0l0.1,0l0.1,0l0.1,0l0.1,0l0.1,0l0.1,0l0.1,0l0.1,0l0.1,0L631.3,561.8
	L631.3,561.8L631.3,561.8z M632.4,561.1h-2.2v-4.3h2.2V561.1L632.4,561.1z M632.4,548.1h-2.2v-4.3h2.2V548.1L632.4,548.1z
	 M632.4,535.1h-0.5l-0.6,0.6h-3.8v-2.2h3.8h1.1v1.1V535.1L632.4,535.1z M618.8,533.5v2.2h-4.3v-2.2H618.8L618.8,533.5z M605.8,533.5
	v2.2h-4.3v-2.2H605.8L605.8,533.5z M592.8,533.5v2.2h-4.3v-2.2H592.8L592.8,533.5z M579.8,533.5v2.2h-4.3v-2.2H579.8L579.8,533.5z
	 M566.8,533.5v2.2h-4.3v-2.2H566.8L566.8,533.5z M556.5,533h-2.2v-4.3h2.2V533L556.5,533z M556.5,520h-2.2v-4.3h2.2V520L556.5,520z
	 M556.5,507h-2.2v-4.3h2.2V507L556.5,507z M556.5,494h-2.2v-4.3h2.2V494L556.5,494z M556.5,481h-2.2v-4.3h2.2V481L556.5,481z
	 M556.5,467.9h-2.2v-4.3h2.2V467.9L556.5,467.9z M556.5,454.9h-2.2v-4.3h2.2V454.9L556.5,454.9z M556.5,441.9h-2.2v-4.3h2.2V441.9
	L556.5,441.9z M556.5,428.9h-2.2v-4.3h2.2V428.9L556.5,428.9z M556.5,415.9h-2.2v-4.3h2.2V415.9L556.5,415.9z M556.5,402.9h-2.2
	v-4.3h2.2V402.9z"/>
</svg>
